<svg xmlns="http://www.w3.org/2000/svg" width="40" height="40" viewBox="0 0 40 40">
  <g id="Group_1027" data-name="Group 1027" transform="translate(-1345 -5323)">
    <g id="Ellipse_65" data-name="Ellipse 65" transform="translate(1345 5323)" fill="none" stroke="#1057fc" stroke-width="2">
      <circle cx="20" cy="20" r="20" stroke="none"/>
      <circle cx="20" cy="20" r="19" fill="none"/>
    </g>
    <g id="Group_614" data-name="Group 614" transform="translate(593.334 4309)">
      <g id="Group_610" data-name="Group 610" transform="translate(765.833 1024)">
        <path id="Path_1599" data-name="Path 1599" d="M777.25,1034a.417.417,0,0,1-.417-.417v-3.75a5,5,0,0,0-10,0v3.75a.417.417,0,1,1-.833,0v-3.75a5.833,5.833,0,0,1,11.667,0v3.75A.417.417,0,0,1,777.25,1034Z" transform="translate(-766 -1024)" fill="#210f47"/>
      </g>
      <g id="Group_611" data-name="Group 611" transform="translate(767.5 1025.667)">
        <path id="Path_1600" data-name="Path 1600" d="M775.917,1034.333a.417.417,0,0,1-.417-.417v-3.75a3.333,3.333,0,1,0-6.667,0v3.75a.417.417,0,0,1-.833,0v-3.75a4.167,4.167,0,0,1,8.333,0v3.75A.417.417,0,0,1,775.917,1034.333Z" transform="translate(-768 -1026)" fill="#210f47"/>
      </g>
      <g id="Group_612" data-name="Group 612" transform="translate(765 1033.167)">
        <path id="Path_1601" data-name="Path 1601" d="M776.25,1045.833h-9.167A2.086,2.086,0,0,1,765,1043.75v-7.5a1.251,1.251,0,0,1,1.25-1.25h10.833a1.251,1.251,0,0,1,1.25,1.25v7.5A2.086,2.086,0,0,1,776.25,1045.833Zm-10-10a.417.417,0,0,0-.417.417v7.5a1.251,1.251,0,0,0,1.25,1.25h9.167a1.252,1.252,0,0,0,1.25-1.25v-7.5a.417.417,0,0,0-.417-.417Z" transform="translate(-765 -1035)" fill="#210f47"/>
      </g>
      <g id="Group_613" data-name="Group 613" transform="translate(770 1035.667)">
        <path id="Path_1602" data-name="Path 1602" d="M773.917,1043h-2.5a.418.418,0,0,1-.4-.548l.52-1.56a1.647,1.647,0,0,1-.541-1.225,1.667,1.667,0,0,1,3.333,0,1.647,1.647,0,0,1-.541,1.225l.52,1.56a.418.418,0,0,1-.4.548Zm-1.922-.833h1.345l-.433-1.3a.417.417,0,0,1,.182-.49.833.833,0,1,0-.843,0,.417.417,0,0,1,.182.49Z" transform="translate(-771 -1038)" fill="#210f47"/>
      </g>
    </g>
  </g>
</svg>
