<svg xmlns="http://www.w3.org/2000/svg" width="60" height="60" viewBox="0 0 60 60">
  <g id="Group_1048" data-name="Group 1048" transform="translate(-1103 -1080)">
    <g id="Ellipse_108" data-name="Ellipse 108" transform="translate(1103 1080)" fill="none" stroke="#1057fc" stroke-width="4">
      <circle cx="30" cy="30" r="30" stroke="none"/>
      <circle cx="30" cy="30" r="28" fill="none"/>
    </g>
    <g id="Group_579" data-name="Group 579" transform="translate(494.75 982.117)">
      <g id="Group_573" data-name="Group 573" transform="translate(627 112.882)">
        <path id="Path_1578" data-name="Path 1578" d="M638.25,122.917a14.581,14.581,0,0,1-4.124-.6l-4.883-1.436a3.142,3.142,0,0,1-2.244-3v-4.38a.625.625,0,0,1,.625-.625h21.25a.625.625,0,0,1,.625.625v4.38a3.143,3.143,0,0,1-2.242,3l-4.884,1.436A14.581,14.581,0,0,1,638.25,122.917Zm-10-8.785v3.755a1.886,1.886,0,0,0,1.346,1.8l4.881,1.436a13.359,13.359,0,0,0,7.545,0l4.883-1.436a1.886,1.886,0,0,0,1.345-1.8v-3.755Z" transform="translate(-627 -112.882)" fill="#210f47"/>
      </g>
      <g id="Group_574" data-name="Group 574" transform="translate(633.25 112.882)">
        <path id="Path_1579" data-name="Path 1579" d="M632.625,121.632a.624.624,0,0,1-.625-.625v-7.5a.625.625,0,1,1,1.25,0v7.5A.624.624,0,0,1,632.625,121.632Z" transform="translate(-632 -112.882)" fill="#210f47"/>
      </g>
      <g id="Group_575" data-name="Group 575" transform="translate(642 112.882)">
        <path id="Path_1580" data-name="Path 1580" d="M639.625,121.632a.624.624,0,0,1-.625-.625v-7.5a.625.625,0,1,1,1.25,0v7.5A.624.624,0,0,1,639.625,121.632Z" transform="translate(-639 -112.882)" fill="#210f47"/>
      </g>
      <g id="Group_576" data-name="Group 576" transform="translate(635.75 121.632)">
        <path id="Path_1581" data-name="Path 1581" d="M636.5,124.882a2.5,2.5,0,1,1,2.5-2.5A2.5,2.5,0,0,1,636.5,124.882Zm0-3.75a1.25,1.25,0,1,0,1.25,1.25A1.251,1.251,0,0,0,636.5,121.132Z" transform="translate(-634 -119.882)" fill="#210f47"/>
      </g>
      <g id="Group_577" data-name="Group 577" transform="translate(629.5 125.382)">
        <path id="Path_1582" data-name="Path 1582" d="M637.75,140.382a8.75,8.75,0,1,1,8.75-8.75A8.76,8.76,0,0,1,637.75,140.382Zm0-16.25a7.5,7.5,0,1,0,7.5,7.5A7.508,7.508,0,0,0,637.75,124.132Z" transform="translate(-629 -122.882)" fill="#210f47"/>
      </g>
      <g id="Group_578" data-name="Group 578" transform="translate(632.625 127.927)">
        <path id="Path_1583" data-name="Path 1583" d="M640.31,136.123a.628.628,0,0,1-.387-.134l-2.794-2.205-2.737,2.2a.624.624,0,0,1-.99-.663l1.035-3.531-2.69-2.046a.625.625,0,0,1,.379-1.122h3.3l1.106-3.323a.652.652,0,0,1,1.188,0l1.106,3.323h3.3a.625.625,0,0,1,.379,1.122l-2.685,2.042,1.087,3.526a.625.625,0,0,1-.242.7A.633.633,0,0,1,640.31,136.123Zm-3.185-3.763a.631.631,0,0,1,.388.134l1.609,1.269-.625-2.024a.622.622,0,0,1,.218-.681l1.559-1.185h-1.9a.628.628,0,0,1-.594-.428l-.656-1.971-.656,1.971a.628.628,0,0,1-.594.428h-1.9l1.559,1.185a.623.623,0,0,1,.22.674l-.6,2.031,1.573-1.265A.625.625,0,0,1,637.125,132.361Z" transform="translate(-631.5 -124.918)" fill="#210f47"/>
      </g>
    </g>
  </g>
</svg>
