<svg xmlns="http://www.w3.org/2000/svg" width="60" height="60" viewBox="0 0 60 60">
  <g id="Group_1022" data-name="Group 1022" transform="translate(-1448 -2908)">
    <g id="Ellipse_92" data-name="Ellipse 92" transform="translate(1448 2908)" fill="none" stroke="#210f47" stroke-width="3">
      <circle cx="30" cy="30" r="30" stroke="none"/>
      <circle cx="30" cy="30" r="28.5" fill="none"/>
    </g>
    <g id="kiwi_8_" data-name="kiwi (8)" transform="translate(1463 2853.336)">
      <path id="Path_1556" data-name="Path 1556" d="M29.969,91.3a20.811,20.811,0,0,0-4.245-6.472,1.344,1.344,0,0,0,.149-.864,9.935,9.935,0,0,0-.84-2.7,5.993,5.993,0,0,0-1.02-1.49,4.148,4.148,0,0,0-1.624-1.068,8.926,8.926,0,0,0-2.982-.509,8.55,8.55,0,0,0-1.559.141,7.362,7.362,0,0,0-1.225-1.611,8.7,8.7,0,0,0-1.669-1.3,10.118,10.118,0,0,0-2.024-.927A11.635,11.635,0,0,0,10.6,74a.617.617,0,0,0-.615.519.587.587,0,0,0,.517.648c2.954.327,5.507,1.936,6.5,4.094a2.786,2.786,0,0,1,.03,2.345.586.586,0,1,0,1,.613,3.529,3.529,0,0,0,.277-2.771,7.488,7.488,0,0,1,1.093-.079h0A7.753,7.753,0,0,1,22,79.81a2.97,2.97,0,0,1,1.168.773,5.519,5.519,0,0,1,1.1,1.864,9.457,9.457,0,0,1,.449,1.708.349.349,0,0,1-.012.1.177.177,0,0,1-.062.075.174.174,0,0,1-.1.031.183.183,0,0,1-.1-.029,7.528,7.528,0,0,0-1.263-.661,4.922,4.922,0,0,0-1.793-.375,3.285,3.285,0,0,0-2.2.8,4.323,4.323,0,0,1-1.725.867,6.97,6.97,0,0,1-1.776.215h0c-.421,0-1.37-.115-1.37-.115a.571.571,0,0,0-.227,0,6.426,6.426,0,0,0-2.024.715,4.078,4.078,0,0,0-1.246,1.083,3.834,3.834,0,0,0-.751,2.243.349.349,0,0,1-.336.334,4.8,4.8,0,0,1-1.24-.312A13.6,13.6,0,0,1,6.4,87.28a.579.579,0,0,0-.292-.215,8.018,8.018,0,0,1-3.584-2.3,5.023,5.023,0,0,1-.145-6.687A7.76,7.76,0,0,1,5.6,75.788.586.586,0,1,0,5.174,74.7a8.951,8.951,0,0,0-3.712,2.648A6.328,6.328,0,0,0,0,81.336a6.04,6.04,0,0,0,.434,2.245,6.865,6.865,0,0,0,1.2,1.953,9.118,9.118,0,0,0,3.779,2.53L6.077,91.3l-.6.42a.586.586,0,1,0,.671.961l.353-.247.821,1.707a.586.586,0,1,0,1.056-.509l-.47-.977,1.665.658A.586.586,0,0,0,10,92.225L7.239,91.133,6.9,89.474a6.139,6.139,0,0,0,1.067.7,4.578,4.578,0,0,0,1.807.437,1.366,1.366,0,0,0,.428-.077l1.873,2.175-.4.445a.586.586,0,1,0,.868.788l.289-.319,1.181,1.481a.586.586,0,1,0,.916-.731l-.676-.848,1.769.271a.586.586,0,0,0,.177-1.159l-3.036-.465-2.072-2.407a1.513,1.513,0,0,0,.156-.64,2.675,2.675,0,0,1,.516-1.56,3.912,3.912,0,0,1,2.45-1.33,9.289,9.289,0,0,0,1.481.116,8.22,8.22,0,0,0,2.079-.254,5.483,5.483,0,0,0,2.188-1.11,2.129,2.129,0,0,1,1.434-.522,4.8,4.8,0,0,1,2.419.847,1.344,1.344,0,0,0,.734.218v0a1.345,1.345,0,0,0,.213-.017,20.175,20.175,0,0,1,4.1,6.166.586.586,0,1,0,1.11-.378Z" transform="translate(0)" fill="#1057fc" stroke="#210f47" stroke-width="0.2"/>
      <circle id="Ellipse_166" data-name="Ellipse 166" cx="0.586" cy="0.586" r="0.586" transform="translate(21.079 81.022)" fill="#1057fc" stroke="#210f47" stroke-width="0.2"/>
    </g>
  </g>
</svg>
