<svg xmlns="http://www.w3.org/2000/svg" width="40" height="40" viewBox="0 0 40 40">
  <g id="Group_1026" data-name="Group 1026" transform="translate(-1000 -5323)">
    <g id="Ellipse_64" data-name="Ellipse 64" transform="translate(1000 5323)" fill="none" stroke="#1057fc" stroke-width="2">
      <circle cx="20" cy="20" r="20" stroke="none"/>
      <circle cx="20" cy="20" r="19" fill="none"/>
    </g>
    <g id="Group_609" data-name="Group 609" transform="translate(242 2291.451)">
      <g id="Group_607" data-name="Group 607" transform="translate(768 3045.715)">
        <g id="Group_605" data-name="Group 605" transform="translate(0 0.024)">
          <path id="Path_1596" data-name="Path 1596" d="M770.866,3055.887h-2.449a.416.416,0,0,1-.417-.417,2.454,2.454,0,0,1,1.861-2.385l1.4-.349.078-.315a3.014,3.014,0,0,1-.686-1.386.8.8,0,0,1-.5-.644l-.1-.8a.817.817,0,0,1,.2-.64.827.827,0,0,1,.2-.163c-.027-.241-.056-.538-.056-.692,0-.752.219-1.748,2.079-1.809a2.575,2.575,0,0,1,1.123-.375.417.417,0,1,1,.089.829,1.686,1.686,0,0,0-.839.3.414.414,0,0,1-.238.078c-1.381.012-1.381.5-1.381.978,0,.162.057.665.092.943a.422.422,0,0,1-.1.328.417.417,0,0,1-.312.141l.077.777a.451.451,0,0,1,.463.368,2.122,2.122,0,0,0,.644,1.338.416.416,0,0,1,.12.405l-.2.782a.417.417,0,0,1-.3.3l-1.642.411a1.618,1.618,0,0,0-1.177,1.158h1.979a.417.417,0,0,1,0,.833Z" transform="translate(-768 -3045.911)" fill="#210f47"/>
        </g>
        <g id="Group_606" data-name="Group 606" transform="translate(14.701)">
          <path id="Path_1597" data-name="Path 1597" d="M788.074,3055.882v-.833h1.979a1.618,1.618,0,0,0-1.177-1.159l-1.643-.411a.417.417,0,0,1-.3-.3l-.187-.749a.418.418,0,0,1,.126-.411,2.137,2.137,0,0,0,.676-1.366.416.416,0,0,1,.415-.383l.1-.781a.39.39,0,0,1-.29-.121.385.385,0,0,1-.1-.3l.049-1a.416.416,0,0,1,.12-.273l.2-.2c.059-.063.151-.162-.053-.474a1.09,1.09,0,0,0-.994-.41,2.413,2.413,0,0,0-.794.119.417.417,0,1,1-.272-.788,3.238,3.238,0,0,1,1.066-.164,1.871,1.871,0,0,1,1.692.787,1.127,1.127,0,0,1-.046,1.509l-.093.094-.026.526a.815.815,0,0,1,.372.791l-.1.795a.818.818,0,0,1-.454.633,2.982,2.982,0,0,1-.725,1.436l.069.278,1.4.349a2.454,2.454,0,0,1,1.861,2.384.416.416,0,0,1-.417.417Z" transform="translate(-785.642 -3045.882)" fill="#210f47"/>
        </g>
      </g>
      <g id="Group_608" data-name="Group 608" transform="translate(771.333 3044.882)">
        <path id="Path_1598" data-name="Path 1598" d="M772.417,3058.215a.415.415,0,0,1-.417-.417,3.2,3.2,0,0,1,2.423-3.1l2-.5.147-.6a3.941,3.941,0,0,1-.967-1.948.961.961,0,0,1-.669-.8l-.137-1.087a.96.96,0,0,1,.233-.755.946.946,0,0,1,.318-.236c-.038-.337-.087-.8-.087-1.031,0-1.048.314-2.25,2.73-2.316a3.734,3.734,0,0,1,2.106-.546,2.418,2.418,0,0,1,2.179,1,1.4,1.4,0,0,1-.045,1.873l-.167.167-.043.868a.959.959,0,0,1,.515.973l-.137,1.087a.959.959,0,0,1-.6.775,3.9,3.9,0,0,1-1.021,2.021l.136.545,2,.5h0a3.194,3.194,0,0,1,2.423,3.1.416.416,0,0,1-.417.417Zm.453-.835h11.593a2.364,2.364,0,0,0-1.755-1.88l-2.241-.56a.415.415,0,0,1-.3-.3l-.255-1.021a.417.417,0,0,1,.127-.412,3.06,3.06,0,0,0,.971-1.962.415.415,0,0,1,.415-.383.136.136,0,0,0,.152-.112l.136-1.086a.122.122,0,0,0-.029-.1.127.127,0,0,0-.1-.043.417.417,0,0,1-.411-.437l.066-1.36a.42.42,0,0,1,.121-.274l.273-.271c.1-.1.29-.309-.054-.836a1.627,1.627,0,0,0-1.482-.626,2.838,2.838,0,0,0-1.731.466.417.417,0,0,1-.238.078c-2.033.02-2.033.833-2.033,1.485,0,.258.09,1.031.125,1.307a.417.417,0,0,1-.413.469c-.107,0-.138.026-.151.042a.119.119,0,0,0-.031.1l.136,1.086a.127.127,0,0,0,.126.112h.088a.417.417,0,0,1,.415.383,3.034,3.034,0,0,0,.927,1.924.415.415,0,0,1,.119.4l-.266,1.066a.414.414,0,0,1-.3.3l-2.241.56A2.364,2.364,0,0,0,772.87,3057.38Z" transform="translate(-772 -3044.882)" fill="#210f47"/>
      </g>
    </g>
  </g>
</svg>
