<svg xmlns="http://www.w3.org/2000/svg" width="28.785" height="30" viewBox="0 0 28.785 30">
  <g id="Group_708" data-name="Group 708" transform="translate(-433.951 -2383.755)">
    <g id="Group_684" data-name="Group 684" transform="translate(433.951 2383.755)">
      <g id="Group_677" data-name="Group 677">
        <g id="Group_676" data-name="Group 676">
          <path id="Path_1643" data-name="Path 1643" d="M439.583,2388.724c-2.8,0-5.632-.86-5.632-2.5,0-3.288,11.264-3.288,11.264,0C445.215,2387.864,442.383,2388.724,439.583,2388.724Zm0-3.755c-2.845,0-4.38.889-4.38,1.252s1.536,1.251,4.38,1.251,4.38-.889,4.38-1.251S442.429,2384.969,439.583,2384.969Z" transform="translate(-433.951 -2383.755)" fill="#1057fc"/>
        </g>
      </g>
      <g id="Group_679" data-name="Group 679" transform="translate(0 4.298)">
        <g id="Group_678" data-name="Group 678">
          <path id="Path_1644" data-name="Path 1644" d="M439.583,2390.452c-2.8,0-5.632-.9-5.632-2.637a.626.626,0,0,1,1.252,0c0,.49,1.663,1.385,4.38,1.385s4.38-.9,4.38-1.385a.626.626,0,0,1,1.252,0C445.215,2389.547,442.383,2390.452,439.583,2390.452Z" transform="translate(-433.951 -2387.189)" fill="#1057fc"/>
        </g>
      </g>
      <g id="Group_681" data-name="Group 681" transform="translate(0 6.712)">
        <g id="Group_680" data-name="Group 680">
          <path id="Path_1645" data-name="Path 1645" d="M439.583,2392.381c-2.8,0-5.632-.906-5.632-2.637a.626.626,0,0,1,1.252,0c0,.488,1.663,1.386,4.38,1.386s4.38-.9,4.38-1.386a.626.626,0,0,1,1.252,0C445.215,2391.475,442.383,2392.381,439.583,2392.381Z" transform="translate(-433.951 -2389.118)" fill="#1057fc"/>
        </g>
      </g>
      <g id="Group_683" data-name="Group 683" transform="translate(0 1.974)">
        <g id="Group_682" data-name="Group 682">
          <path id="Path_1646" data-name="Path 1646" d="M439.583,2395.836c-2.712,0-5.632-.825-5.632-2.637v-7.241a.626.626,0,0,1,1.252,0v7.241c0,.565,1.707,1.386,4.38,1.386s4.38-.821,4.38-1.386v-7.241a.626.626,0,0,1,1.252,0v7.241C445.215,2395.011,442.3,2395.836,439.583,2395.836Z" transform="translate(-433.951 -2385.332)" fill="#1057fc"/>
        </g>
      </g>
    </g>
    <g id="Group_693" data-name="Group 693" transform="translate(442.712 2401.276)">
      <g id="Group_686" data-name="Group 686">
        <g id="Group_685" data-name="Group 685">
          <path id="Path_1647" data-name="Path 1647" d="M446.583,2402.724c-2.8,0-5.632-.86-5.632-2.5,0-3.288,11.264-3.288,11.264,0C452.215,2401.864,449.383,2402.724,446.583,2402.724Zm0-3.755c-2.845,0-4.38.888-4.38,1.251s1.536,1.251,4.38,1.251,4.38-.889,4.38-1.251S449.429,2398.969,446.583,2398.969Z" transform="translate(-440.951 -2397.755)" fill="#1057fc"/>
        </g>
      </g>
      <g id="Group_688" data-name="Group 688" transform="translate(0 4.298)">
        <g id="Group_687" data-name="Group 687">
          <path id="Path_1648" data-name="Path 1648" d="M446.583,2404.452c-2.8,0-5.632-.9-5.632-2.637a.626.626,0,0,1,1.252,0c0,.49,1.663,1.385,4.38,1.385s4.38-.9,4.38-1.385a.626.626,0,0,1,1.252,0C452.215,2403.547,449.383,2404.452,446.583,2404.452Z" transform="translate(-440.951 -2401.189)" fill="#1057fc"/>
        </g>
      </g>
      <g id="Group_690" data-name="Group 690" transform="translate(0 6.712)">
        <g id="Group_689" data-name="Group 689">
          <path id="Path_1649" data-name="Path 1649" d="M446.583,2406.381c-2.8,0-5.632-.906-5.632-2.637a.626.626,0,0,1,1.252,0c0,.488,1.663,1.385,4.38,1.385s4.38-.9,4.38-1.385a.626.626,0,0,1,1.252,0C452.215,2405.475,449.383,2406.381,446.583,2406.381Z" transform="translate(-440.951 -2403.118)" fill="#1057fc"/>
        </g>
      </g>
      <g id="Group_692" data-name="Group 692" transform="translate(0 1.974)">
        <g id="Group_691" data-name="Group 691">
          <path id="Path_1650" data-name="Path 1650" d="M446.583,2409.836c-2.712,0-5.632-.825-5.632-2.637v-7.241a.626.626,0,1,1,1.252,0v7.241c0,.564,1.707,1.386,4.38,1.386s4.38-.821,4.38-1.386v-7.241a.626.626,0,1,1,1.252,0v7.241C452.215,2409.011,449.3,2409.836,446.583,2409.836Z" transform="translate(-440.951 -2399.332)" fill="#1057fc"/>
        </g>
      </g>
    </g>
    <g id="Group_702" data-name="Group 702" transform="translate(451.473 2383.755)">
      <g id="Group_695" data-name="Group 695">
        <g id="Group_694" data-name="Group 694">
          <path id="Path_1651" data-name="Path 1651" d="M453.583,2388.724c-2.8,0-5.632-.86-5.632-2.5,0-3.288,11.264-3.288,11.264,0C459.215,2387.864,456.383,2388.724,453.583,2388.724Zm0-3.755c-2.845,0-4.38.889-4.38,1.252s1.536,1.251,4.38,1.251,4.38-.889,4.38-1.251S456.429,2384.969,453.583,2384.969Z" transform="translate(-447.951 -2383.755)" fill="#1057fc"/>
        </g>
      </g>
      <g id="Group_697" data-name="Group 697" transform="translate(0 4.298)">
        <g id="Group_696" data-name="Group 696">
          <path id="Path_1652" data-name="Path 1652" d="M453.583,2390.452c-2.8,0-5.632-.9-5.632-2.637a.626.626,0,0,1,1.252,0c0,.49,1.663,1.385,4.38,1.385s4.38-.9,4.38-1.385a.626.626,0,0,1,1.252,0C459.215,2389.547,456.383,2390.452,453.583,2390.452Z" transform="translate(-447.951 -2387.189)" fill="#1057fc"/>
        </g>
      </g>
      <g id="Group_699" data-name="Group 699" transform="translate(0 6.712)">
        <g id="Group_698" data-name="Group 698">
          <path id="Path_1653" data-name="Path 1653" d="M453.583,2392.381c-2.8,0-5.632-.906-5.632-2.637a.626.626,0,0,1,1.252,0c0,.488,1.663,1.386,4.38,1.386s4.38-.9,4.38-1.386a.626.626,0,0,1,1.252,0C459.215,2391.475,456.383,2392.381,453.583,2392.381Z" transform="translate(-447.951 -2389.118)" fill="#1057fc"/>
        </g>
      </g>
      <g id="Group_701" data-name="Group 701" transform="translate(0 1.974)">
        <g id="Group_700" data-name="Group 700">
          <path id="Path_1654" data-name="Path 1654" d="M453.583,2395.836c-2.712,0-5.632-.825-5.632-2.637v-7.241a.626.626,0,0,1,1.252,0v7.241c0,.565,1.707,1.386,4.38,1.386s4.38-.821,4.38-1.386v-7.241a.626.626,0,0,1,1.252,0v7.241C459.215,2395.011,456.3,2395.836,453.583,2395.836Z" transform="translate(-447.951 -2385.332)" fill="#1057fc"/>
        </g>
      </g>
    </g>
    <g id="Group_704" data-name="Group 704" transform="translate(438.957 2397.485)">
      <g id="Group_703" data-name="Group 703">
        <path id="Path_1655" data-name="Path 1655" d="M441.08,2398.48a.624.624,0,0,1-.442-.183l-2.5-2.5a.626.626,0,0,1,.885-.885l2.5,2.5a.625.625,0,0,1-.443,1.068Z" transform="translate(-437.951 -2394.725)" fill="#1057fc"/>
      </g>
    </g>
    <g id="Group_706" data-name="Group 706" transform="translate(453.976 2397.485)">
      <g id="Group_705" data-name="Group 705">
        <path id="Path_1656" data-name="Path 1656" d="M450.577,2398.48a.625.625,0,0,1-.442-1.068l2.5-2.5a.626.626,0,0,1,.885.885l-2.5,2.5A.629.629,0,0,1,450.577,2398.48Z" transform="translate(-449.951 -2394.725)" fill="#1057fc"/>
      </g>
    </g>
  </g>
</svg>
