<svg xmlns="http://www.w3.org/2000/svg" width="23.75" height="30" viewBox="0 0 23.75 30">
  <g id="Group_512" data-name="Group 512" transform="translate(-43 -2656)">
    <g id="Group_505" data-name="Group 505" transform="translate(43 2656)">
      <g id="Group_502" data-name="Group 502">
        <path id="Path_1523" data-name="Path 1523" d="M54.875,2679.75a11.875,11.875,0,1,1,11.875-11.875A11.889,11.889,0,0,1,54.875,2679.75Zm0-22.5A10.625,10.625,0,1,0,65.5,2667.875,10.638,10.638,0,0,0,54.875,2657.25Z" transform="translate(-43 -2656)" fill="#1057fc"/>
      </g>
      <g id="Group_503" data-name="Group 503" transform="translate(4.402 2.445)">
        <path id="Path_1524" data-name="Path 1524" d="M55.493,2679.162a.618.618,0,0,1-.4-.146.625.625,0,0,1-.077-.88,13.093,13.093,0,0,0,1.806-2.615,3.518,3.518,0,0,0,.02-1.537,4.392,4.392,0,0,0-1.18-1.011c-.886-.621-1.8-1.264-1.8-2.162,0-.512.448-.8.774-1.013.058-.038.131-.085.19-.126-.175-.941-1.815-2.137-3.145-3.109a12.358,12.358,0,0,1-2.593-2.235,7.988,7.988,0,0,1-1.079-2.178,4.28,4.28,0,0,1,.049-1.467,5.1,5.1,0,0,0,.08-1.16c-.1-.017-.235-.03-.329-.04-.449-.043-1.284-.129-1.284-.9a.625.625,0,0,1,1.125-.375c.086.012.2.025.284.034a1.55,1.55,0,0,1,1.19.465,3.052,3.052,0,0,1,.172,2.149,4.073,4.073,0,0,0-.07,1.008,6.987,6.987,0,0,0,.875,1.735,12.1,12.1,0,0,0,2.315,1.956c1.806,1.319,3.674,2.681,3.674,4.279,0,.514-.449.8-.775,1.016-.045.027-.1.063-.149.1a6.259,6.259,0,0,0,1.215,1A4.342,4.342,0,0,1,58,2673.506a4.508,4.508,0,0,1,.021,2.375,13.647,13.647,0,0,1-2.044,3.058A.626.626,0,0,1,55.493,2679.162Z" transform="translate(-46.522 -2657.956)" fill="#1057fc"/>
      </g>
      <g id="Group_504" data-name="Group 504" transform="translate(10.678)">
        <path id="Path_1525" data-name="Path 1525" d="M62.033,2674.859a.728.728,0,0,1-.114-.01.625.625,0,0,1-.5-.728,8.017,8.017,0,0,0,.107-3.436,3.677,3.677,0,0,0-1.284-.376,4.494,4.494,0,0,1-1.473-.434,2.552,2.552,0,0,1-.589-.589,2.588,2.588,0,0,0-.323-.355,3.934,3.934,0,0,0-1.129.054,3.7,3.7,0,0,1-1.784-.042c-.641-.266-3.964-2.087-3.273-3.751.3-.729,1.149-.545,1.713-.421a2.982,2.982,0,0,0,.58.091,6.088,6.088,0,0,0,.911-1.959,7.486,7.486,0,0,1,.78-1.751,2.3,2.3,0,0,1,.561-.49l.059-.041c-.163-.059-.35-.115-.479-.154a3.4,3.4,0,0,1-.979-.4,2.371,2.371,0,0,1-.489-.548l-.084-.113,0,0c-.212.326-.5.775-1.015.775-.754,0-1.4-1-1.555-1.362a3.958,3.958,0,0,1-.081-1.694c.018-.193.034-.37.034-.5a.625.625,0,0,1,1.25,0c0,.162-.018.379-.039.614a4.143,4.143,0,0,0-.009,1.1,1.846,1.846,0,0,0,.32.456c.016-.023.031-.048.045-.067.211-.328.5-.775,1.014-.775.531,0,.865.459,1.134.828a3,3,0,0,0,.217.275,3.742,3.742,0,0,0,.6.21c.7.209,1.483.446,1.6,1.17.1.6-.434.971-.821,1.245a2.607,2.607,0,0,0-.278.21,7.369,7.369,0,0,0-.606,1.427,5.053,5.053,0,0,1-1.519,2.64,1.916,1.916,0,0,1-1.417.029c-.049-.011-.109-.022-.17-.036a7.133,7.133,0,0,0,2.476,1.834,3.673,3.673,0,0,0,1.151-.042,3.712,3.712,0,0,1,1.784.042,2.21,2.21,0,0,1,.79.71,3,3,0,0,0,.281.316,4.359,4.359,0,0,0,1.039.266,3.191,3.191,0,0,1,2.07.875c.676.938.254,3.6.107,4.391A.625.625,0,0,1,62.033,2674.859Z" transform="translate(-51.543 -2656)" fill="#1057fc"/>
      </g>
    </g>
    <g id="Group_511" data-name="Group 511" transform="translate(45.5 2678.5)">
      <g id="Group_510" data-name="Group 510">
        <g id="Group_506" data-name="Group 506" transform="translate(6.25 2.5)">
          <path id="Path_1526" data-name="Path 1526" d="M55.625,2681h-5a.625.625,0,0,1-.625-.625v-2.5a.625.625,0,0,1,.625-.625h.625v-.625a.625.625,0,0,1,.625-.625h2.5a.625.625,0,0,1,.625.625v.625h.625a.625.625,0,0,1,.625.625v2.5A.625.625,0,0,1,55.625,2681Zm-4.375-1.25H55v-1.25h-.625a.625.625,0,0,1-.625-.625v-.625H52.5v.625a.625.625,0,0,1-.625.625H51.25Z" transform="translate(-50 -2676)" fill="#1057fc"/>
        </g>
        <g id="Group_507" data-name="Group 507" transform="translate(8.75)">
          <path id="Path_1527" data-name="Path 1527" d="M52.625,2677.75a.625.625,0,0,1-.625-.625v-2.5a.625.625,0,0,1,1.25,0v2.5A.625.625,0,0,1,52.625,2677.75Z" transform="translate(-52 -2674)" fill="#1057fc"/>
        </g>
        <g id="Group_508" data-name="Group 508" transform="translate(11.25 5)">
          <path id="Path_1528" data-name="Path 1528" d="M60.875,2679.25h-6.25a.625.625,0,0,1,0-1.25h6.25a.625.625,0,0,1,0,1.25Z" transform="translate(-54 -2678)" fill="#1057fc"/>
        </g>
        <g id="Group_509" data-name="Group 509" transform="translate(0 5)">
          <path id="Path_1529" data-name="Path 1529" d="M51.875,2679.25h-6.25a.625.625,0,0,1,0-1.25h6.25a.625.625,0,0,1,0,1.25Z" transform="translate(-45 -2678)" fill="#1057fc"/>
        </g>
      </g>
    </g>
  </g>
</svg>
