<svg xmlns="http://www.w3.org/2000/svg" width="150" height="20.42" viewBox="0 0 150 20.42">
  <g id="Group_784" data-name="Group 784" transform="translate(-187.787 -406.818)">
    <path id="Path_1781" data-name="Path 1781" d="M318.665,418.135a1.171,1.171,0,0,0-1.057.591,1.721,1.721,0,0,0,.15,1.776,1.075,1.075,0,0,0,.659-.165,2.9,2.9,0,0,0,.349-2.081Zm-38.879-4.95a.558.558,0,0,0-.339.3,14.578,14.578,0,0,0-.218,4.08,7.141,7.141,0,0,0,.739,3.286.491.491,0,0,0,.5.058c.637-.548.471-1.517.546-2.345a19.778,19.778,0,0,0-.649-5.064A.625.625,0,0,0,279.786,413.185Zm10.393-2.664c.282.422.126,1.049.368,1.473.141.12.321-.063.4-.123.637-.65,1.072-1.622,2.194-1.385.681.2.886.944,1.309,1.405a9.361,9.361,0,0,0,1.318-.492c1.02-.289,1.937-.94,3.038-.926a.6.6,0,0,1,.381.321c.2.423-.013,1.07.408,1.35l.26-.041c1.135-1.016,2.772-1.954,4.417-1.256.522.219.785.783,1.168,1.245a.46.46,0,0,0,.4.018c1.135-1,2.712-1.974,4.356-1.3a3.143,3.143,0,0,1,1.916,2.553c.195,2.483-.152,4.968.261,7.388a.869.869,0,0,0,.643.481c.161,0,.159-.182.2-.283a3.838,3.838,0,0,1,1.84-3.908,23.126,23.126,0,0,1,3.376-1.21c.657-.529.331-1.658.187-2.363a1.319,1.319,0,0,0-.443-.441c-1.322-.215-1.554,1.281-2.23,2.011a1.662,1.662,0,0,1-1.418.634,1.006,1.006,0,0,1-.805-.8c-.165-.927-.291-2.017.526-2.647a9.011,9.011,0,0,1,6.418-1.489,2.834,2.834,0,0,1,2.03,1.462c.793,2.277.007,5.108.381,7.468a.728.728,0,0,0,.443.523c.32.039.72-.065.882.3.081.2.043.5.224.645a.954.954,0,0,0,.658-.529,28.178,28.178,0,0,0,.095-4.7c-.186-.868.388-2.244-.735-2.54a.8.8,0,0,1-.664-.561,1.137,1.137,0,0,1,.115-.889l.458-.366a28.15,28.15,0,0,1,4.3-1.377.586.586,0,0,1,.542.179c.342.382-.054,1.111.428,1.391a5.142,5.142,0,0,1,2.735-1.267,3.634,3.634,0,0,1,2.727,1.075c.826.924.793,2.217.86,3.447a35.112,35.112,0,0,0,.169,5.249c-.054,1.071,1.466.84,1.252,1.992a1.077,1.077,0,0,1-.616.791,20.623,20.623,0,0,1-3.162.018c-.861-.076-2.059.436-2.625-.43a1.464,1.464,0,0,1,.391-1.6,19.932,19.932,0,0,0,.026-6.178,1.4,1.4,0,0,0-1.026-1.024,1.178,1.178,0,0,0-.8.166c-.2.243.022.525-.117.788-.009,1.979.1,3.856.214,5.854.2.6,1.047,1.084.65,1.833-.356.891-1.458.614-2.218.679a35.251,35.251,0,0,1-3.6-.081,1.4,1.4,0,0,1-.584-.683l-.16-.04c-1.138.593-2.295,1.407-3.716,1.233-.641-.1-.926-.782-1.328-1.184-.44.1-.658.467-1.057.672a3.541,3.541,0,0,1-3.522.141c-.3-.16-.484-.563-.825-.642-.456.851-1.458.493-2.259.559a19.919,19.919,0,0,1-3.663-.1c-.261-.14-.3-.442-.384-.7-.1-.787.835-1.034.71-1.841.129-1.94.317-4.182-.433-5.914a1.267,1.267,0,0,0-.7-.541c-.239,0-.561-.058-.719.125-.3.3-.2.767-.214,1.172l.132,5.672c.2.586.887,1.086.45,1.775a.744.744,0,0,1-.519.367c-1.321.007-2.682.035-3.964.022a.891.891,0,0,1-.7-.481c-.283-.665.254-1.174.552-1.659a20.754,20.754,0,0,0-.151-5.572,1.881,1.881,0,0,0-1.068-1.447.856.856,0,0,0-.74.085l-.119.243c-.068,2.161,0,4.342.115,6.44.083.586.946.843.809,1.531a.952.952,0,0,1-.517.79,21.13,21.13,0,0,1-3.2.058c-.942-.116-2.339.5-2.785-.57a1.316,1.316,0,0,1,.115-.849c.318-.4.818-.388,1.056-.894a35.79,35.79,0,0,0,.131-5.291c-.1-.484.054-1.131-.348-1.411-.121-.02-.18.122-.2.2a2.369,2.369,0,0,1-1.469,2.148c-1.24.128-1.368-1.325-2.172-1.785-.18-.02-.38.022-.439.2-.031,1.555.077,3.15.166,4.683a1.489,1.489,0,0,0,.807,1.247,1.731,1.731,0,0,1,1.265.8,1.176,1.176,0,0,1-.094,1.01,1.269,1.269,0,0,1-1.058.47c-1.942-.11-4.2-.057-6.125-.005a.848.848,0,0,1-.643-.421,1.327,1.327,0,0,1-.085-.928c.2-.849,1.457-.594,1.452-1.583a46.708,46.708,0,0,0-.009-5.289,1.582,1.582,0,0,0-.346-.967,1.968,1.968,0,0,0-1.1-.317c-.139.243.1.483.144.725a8.182,8.182,0,0,1-.462,6.908,5.372,5.372,0,0,1-5.411,2.432,4.7,4.7,0,0,1-3.939-2.683,8.289,8.289,0,0,1,.277-7.775,5.1,5.1,0,0,1,3.41-2.483,5.685,5.685,0,0,1,5.375,2.03c.382.1.2-.486.437-.649.676-.872,1.9-1.02,2.894-1.409a3.9,3.9,0,0,1,2.24-.376Zm-20.1-3.7a1.254,1.254,0,0,0-.62.185c-.3.224-.295.729-.274,1.092.087,1.15,1.525.7,1.851,1.645a21.788,21.788,0,0,1,.379,3.471,1.388,1.388,0,0,1-.136.767c-.14.021-.241-.14-.342-.22a66.393,66.393,0,0,1-4.079-6.4c-.3-.745-1.283-.4-1.944-.414-1.16.188-2.624-.53-3.339.524a1.21,1.21,0,0,0-.075.99c.164.726,1.084.539,1.327,1.184a26.038,26.038,0,0,1,.371,5.47,17.6,17.6,0,0,1-.331,5.251c-.176.828-1.518.656-1.352,1.7a1.052,1.052,0,0,0,.325.8,7.452,7.452,0,0,0,2.343.148c1.141-.006,2.322.047,3.5.021.26-.143.64-.205.658-.57.471-1.7-1.748-1.2-2.175-2.35a17.35,17.35,0,0,1-.184-4.441c.019-.162.179-.122.26-.062,1.409,1.466,2.22,3.279,3.41,4.907a22.443,22.443,0,0,0,2.4,3.116c0,.02-.02,0-.02,0a2.126,2.126,0,0,0,1.122-.006c.8-.328.893-1.217,1.029-2.005l-.094-9.893a7.592,7.592,0,0,1,.209-2.04c.176-.687,1.076-.734,1.314-1.34a1.266,1.266,0,0,0,.014-1.01.819.819,0,0,0-.643-.5A33.163,33.163,0,0,1,270.082,406.818ZM208.85,417.671a1.409,1.409,0,0,0-1,.87c-.079.485-.117,1.111.3,1.433a.557.557,0,0,0,.561-.042c.539-.486.437-1.334.415-2.041A.264.264,0,0,0,208.85,417.671Zm31.893-4.492a.674.674,0,0,0-.419.325,1.823,1.823,0,0,0-.216,1.535,2.645,2.645,0,0,0,1.561-.287.42.42,0,0,0,.259-.506C241.705,413.722,241.4,413.137,240.743,413.179Zm2.155-2.388a9.156,9.156,0,0,1,1.645.985c.179-.223.119-.586.318-.788a1.591,1.591,0,0,1,1-.306c1.641-.024,3.282-.009,4.944-.035a.791.791,0,0,1,.622.4c.121.424.262.968-.1,1.333a1.1,1.1,0,0,0-.6.971,5.463,5.463,0,0,0,.887,2.2.283.283,0,0,0,.4.019,4.852,4.852,0,0,0,.953-2.688c-.222-.4-.782-.624-.724-1.209a1.214,1.214,0,0,1,.318-.748l.36-.184a20.062,20.062,0,0,1,3.8.07.822.822,0,0,1,.422.645,1.29,1.29,0,0,1-.1.909c-.239.3-.619.405-.879.689-2.311,3.822-3.379,8.327-5.73,12.11a4.8,4.8,0,0,1-3.117,2.048,3.2,3.2,0,0,1-2.043-.4,1.625,1.625,0,0,1-.544-1.594,1.932,1.932,0,0,1,.917-1.4c1-.769,2,.984,2.942-.189.8-.607.456-1.758.253-2.545-.806-2.157-1.473-4.377-2.259-6.555a3.155,3.155,0,0,0-1.106-1.652c-.06-.02-.16.02-.12.121a4.853,4.853,0,0,1,.589,2.946c-.259.485-.86.508-1.319.691l-4.021,1.061a.4.4,0,0,0-.26.324,2.3,2.3,0,0,0,1.387,1.894,3.182,3.182,0,0,0,3.28-.777.577.577,0,0,1,.62.018,2.13,2.13,0,0,1-.094,2.2,6.065,6.065,0,0,1-6.56,1.917c-1.7-.439-2.628-2.153-2.913-3.808-.489-3.067.182-6.5,2.6-8.184a4.335,4.335,0,0,1,3.661-.637Zm-13.291-.285c-1.6.327-3.322-.152-4.823.236a.919.919,0,0,0-.459.687,1.451,1.451,0,0,0,.2,1.009,2.737,2.737,0,0,1,1.225,1.451c.906,2.137,1.753,4.255,2.7,6.351a13.6,13.6,0,0,0,1.47,3.025,1.15,1.15,0,0,0,1.042.34,1.944,1.944,0,0,0,1.438-1.216c1.413-3.072,2.284-6.386,3.957-9.359.359-.424,1-.689,1.058-1.336-.121-.2-.081-.464-.222-.665a.943.943,0,0,0-.641-.362l-3.223-.112-.6.123a1.147,1.147,0,0,0-.577,1.132c.021.444.362.625.6.947.262.868-.216,1.636-.394,2.424-.119.283-.178.666-.5.788-.321-.12-.4-.443-.563-.746a8.053,8.053,0,0,1-.687-2.3c.1-.384.579-.466.678-.81a1.6,1.6,0,0,0-.264-1.353C230.687,410.4,230.107,410.545,229.606,410.505Zm-11.069-.15a16.329,16.329,0,0,0-3.759,1.444,1.315,1.315,0,0,0-.4,1.253c.222.645,1,.522,1.424.864a1.58,1.58,0,0,1,.363.989c-.035,1.857.331,3.835-.085,5.653-.319.567-.98.467-1.278,1.013a1.327,1.327,0,0,0,.023,1.07.819.819,0,0,0,.582.443c1.582.016,3.242-.07,4.8.047.761-.123,1.883.318,2.421-.329a1.27,1.27,0,0,0,.237-.869c-.1-.848-1.063-.865-1.645-1.227a1.825,1.825,0,0,1-.544-1.108c-.1-1.555-.129-3.149-.133-4.7.06-.161.28-.182.44-.163.822.483.845,1.734,1.987,1.812a1.437,1.437,0,0,0,1.159-.649,3.661,3.661,0,0,0,.311-3.23c-.323-.847-.706-1.936-1.708-2.156-1-.138-1.6.994-2.2,1.48l-.2.041c-.281-.444-.163-1.09-.444-1.513A1.357,1.357,0,0,0,218.538,410.355Zm-16.483-3.507c.421.019.941-.022,1.182.34a1.34,1.34,0,0,1,0,1.393c-.259.4-.879.426-.958.952a72.825,72.825,0,0,0,.149,10.458.757.757,0,0,0,.422.705,1.677,1.677,0,0,0,.561.181l.1-.183a4.34,4.34,0,0,1,1.111-3.576c1.118-1.053,2.719-1.2,4.119-1.687.739-.426.336-1.394.334-2.141a1.074,1.074,0,0,0-.623-.725c-.66-.16-1.079.447-1.378.892-.5.748-.976,1.739-2.017,1.763a1.016,1.016,0,0,1-.882-.5c-.243-.867-.506-2.179.313-2.847a8.274,8.274,0,0,1,6.34-1.614,3.1,3.1,0,0,1,2.146,1.367c.624,1.23.468,2.846.452,4.3a17.864,17.864,0,0,0-.011,3.271.869.869,0,0,0,.522.624c.26.04.64-.042.8.22a2,2,0,0,1-.136,1.555,3.2,3.2,0,0,1-1.539.974c-.86.426-1.979.915-2.941.372-.421-.241-.542-.685-.9-.947-.5.123-.78.589-1.259.771a3.408,3.408,0,0,1-3.5-.131c-.261-.161-.3-.424-.622-.422a1.242,1.242,0,0,1-.759.729c-1.561.186-3.143-.132-4.784.054-.6.042-1.46.246-1.843-.358a1.551,1.551,0,0,1,.136-1.475,1.683,1.683,0,0,0,.856-1.617,15.094,15.094,0,0,0-.029-3.292c-.1-.2-.4-.241-.621-.24a8.776,8.776,0,0,0-2.422.067,1.194,1.194,0,0,0-.217.95,17.28,17.28,0,0,0,.149,3.391c.362.584,1.423.642,1.245,1.551a1.159,1.159,0,0,1-.578.992,20.651,20.651,0,0,1-2.222.046l.161-.021v-.02c-1.462-.056-2.882.068-4.263.033a1.1,1.1,0,0,1-.683-.584,1.783,1.783,0,0,1,.138-1.03c.319-.506,1.039-.609,1.117-1.256a52.094,52.094,0,0,0,.122-6.4l-.311-4.057c-.081-.585-.662-.664-1-1.047a1.557,1.557,0,0,1-.2-1.089.8.8,0,0,1,.459-.527,2.573,2.573,0,0,1,1.181-.064c1.7.035,3.262-.009,4.884-.054a.973.973,0,0,1,.782.341,1.224,1.224,0,0,1,.1,1.252c-.2.506-.939.548-1.058,1.094a14.754,14.754,0,0,0-.112,2.968c.1.242.222.544.542.584.48.019,1,.018,1.441,0,.34-.021.9.119,1.161-.185a8.628,8.628,0,0,0,.153-2.4,1.9,1.9,0,0,0-.966-1.9,1.536,1.536,0,0,1-.044-1.473.85.85,0,0,1,.679-.325C198.673,406.939,200.474,406.913,202.055,406.848Z" fill="#1a1818"/>
    <path id="Path_1782" data-name="Path 1782" d="M337.891,435.127V432.51H252.227v2.617Zm-94.072,0V432.51H188.178v2.617Z" transform="translate(-0.105 -8.515)" fill="#1a1818"/>
  </g>
</svg>
