<svg xmlns="http://www.w3.org/2000/svg" width="60" height="60" viewBox="0 0 60 60">
  <g id="Group_1015" data-name="Group 1015" transform="translate(-413 -2733)">
    <g id="Ellipse_45" data-name="Ellipse 45" transform="translate(413 2733)" fill="none" stroke="#210f47" stroke-width="3">
      <circle cx="30" cy="30" r="30" stroke="none"/>
      <circle cx="30" cy="30" r="28.5" fill="none"/>
    </g>
    <g id="Group_532" data-name="Group 532" transform="translate(44 1292.492)">
      <g id="Group_530" data-name="Group 530" transform="translate(384 1459.882)">
        <path id="Path_1544" data-name="Path 1544" d="M395.875,1477.382h-11.25a.625.625,0,0,1-.385-1.117l2.551-1.994a7.484,7.484,0,0,1-2.791-5.639c0-4.825,5.327-8.75,11.875-8.75s11.875,3.925,11.875,8.75S402.422,1477.382,395.875,1477.382Zm-9.435-1.25h9.435c5.859,0,10.625-3.364,10.625-7.5s-4.766-7.5-10.625-7.5-10.625,3.365-10.625,7.5a6.511,6.511,0,0,0,2.919,5.145.624.624,0,0,1,.013.994Z" transform="translate(-384 -1459.882)" fill="#1057fc"/>
      </g>
      <g id="Group_531" data-name="Group 531" transform="translate(395.528 1465.471)">
        <path id="Path_1545" data-name="Path 1545" d="M411.069,1480.014h-11.25a15.108,15.108,0,0,1-6.231-1.316.625.625,0,1,1,.519-1.138,13.851,13.851,0,0,0,5.712,1.2h9.435l-1.741-1.361a.624.624,0,0,1,.013-.994,6.511,6.511,0,0,0,2.919-5.145c0-2.215-1.4-4.31-3.836-5.747a.625.625,0,1,1,.634-1.076c2.83,1.667,4.453,4.154,4.453,6.824a7.484,7.484,0,0,1-2.791,5.639l2.551,1.994a.625.625,0,0,1-.385,1.117Z" transform="translate(-393.222 -1464.353)" fill="#1057fc"/>
      </g>
    </g>
  </g>
</svg>
