<svg xmlns="http://www.w3.org/2000/svg" width="30" height="26.25" viewBox="0 0 30 26.25">
  <g id="Group_494" data-name="Group 494" transform="translate(-48 -1410.882)">
    <path id="Path_1517" data-name="Path 1517" d="M50.5,1437.132a1.245,1.245,0,0,1-.967-2.035l.012-.017c1.193-1.576,3.039-4.353,3.39-5.694-3.141-2.013-4.935-4.865-4.935-7.879,0-5.859,6.729-10.625,15-10.625s15,4.766,15,10.625-6.729,10.625-15,10.625a20.632,20.632,0,0,1-2.243-.126c-2.967,2.91-8.119,4.546-9.746,5.009A1.219,1.219,0,0,1,50.5,1437.132Zm.076-1.344a.673.673,0,0,1-.073.1.6.6,0,0,1,.113-.057c1.07-.3,6.481-1.93,9.331-4.779a.6.6,0,0,1,.6-.325,19.74,19.74,0,0,0,2.449.159c7.581,0,13.75-4.2,13.75-9.375s-6.169-9.375-13.75-9.375-13.75,4.205-13.75,9.375c0,2.678,1.709,5.24,4.689,7.03a.627.627,0,0,1,.3.565C54.156,1430.958,51.075,1435.125,50.576,1435.788Z" fill="#1057fc"/>
  </g>
</svg>
