<svg xmlns="http://www.w3.org/2000/svg" width="30" height="30" viewBox="0 0 30 30">
  <g id="Group_478" data-name="Group 478" transform="translate(-382 -3334)">
    <g id="Group_477" data-name="Group 477" transform="translate(382 3334)">
      <path id="Path_1506" data-name="Path 1506" d="M409.632,3364A27.664,27.664,0,0,1,382,3336.369a2.371,2.371,0,0,1,2.368-2.368h5.526a2.371,2.371,0,0,1,2.368,2.368,17.2,17.2,0,0,0,.859,5.391,2.377,2.377,0,0,1-.586,2.415l-2.5,3.325a19.022,19.022,0,0,0,8.466,8.464l3.407-2.574a2.305,2.305,0,0,1,2.342-.493,17.187,17.187,0,0,0,5.381.856,2.371,2.371,0,0,1,2.368,2.368v5.511A2.372,2.372,0,0,1,409.632,3364Zm-25.263-28.421a.791.791,0,0,0-.789.79,26.083,26.083,0,0,0,26.053,26.053.791.791,0,0,0,.789-.79v-5.511a.79.79,0,0,0-.789-.789,18.749,18.749,0,0,1-5.885-.939.792.792,0,0,0-.805.186l-3.887,2.946a.792.792,0,0,1-.835.073,20.726,20.726,0,0,1-9.818-9.818.8.8,0,0,1,.074-.835l2.874-3.805a.867.867,0,0,0,.272-.9,18.73,18.73,0,0,1-.936-5.875.791.791,0,0,0-.789-.79Z" transform="translate(-382 -3334)" fill="#1057fc"/>
    </g>
  </g>
</svg>
