<svg xmlns="http://www.w3.org/2000/svg" width="40" height="40" viewBox="0 0 40 40">
  <g id="Group_1025" data-name="Group 1025" transform="translate(-655 -5323)">
    <g id="Ellipse_63" data-name="Ellipse 63" transform="translate(655 5323)" fill="none" stroke="#1057fc" stroke-width="2">
      <circle cx="20" cy="20" r="20" stroke="none"/>
      <circle cx="20" cy="20" r="19" fill="none"/>
    </g>
    <g id="Group_604" data-name="Group 604" transform="translate(-23.882 6025) rotate(-90)">
      <g id="Group_602" data-name="Group 602" transform="translate(672 688.882)">
        <path id="Path_1594" data-name="Path 1594" d="M678.715,708.882h-1.3a.416.416,0,0,1-.372-.6l3.718-7.437-5.6-.28-1.545,3.09a.417.417,0,0,1-.559.186l-.833-.417a.417.417,0,0,1-.222-.454l.817-4.085-.817-4.085a.417.417,0,0,1,.222-.454l.833-.417a.417.417,0,0,1,.559.187l1.545,3.09,5.6-.28-3.718-7.437a.416.416,0,0,1,.372-.6h1.3a2.9,2.9,0,0,1,2.277,1.095l5.333,6.666,2.732-.161a2.75,2.75,0,0,1,2.92,2.172,1.123,1.123,0,0,1,0,.456,2.769,2.769,0,0,1-2.92,2.173l-2.732-.161-5.333,6.666A2.9,2.9,0,0,1,678.715,708.882Zm-.624-.833h.624a2.074,2.074,0,0,0,1.627-.782l5.467-6.834a.423.423,0,0,1,.35-.156l2.946.174a1.927,1.927,0,0,0,2.052-1.5v-.146a1.908,1.908,0,0,0-2.052-1.5h0l-2.946.173a.429.429,0,0,1-.35-.155l-5.467-6.834a2.072,2.072,0,0,0-1.626-.782h-.625l3.7,7.4a.418.418,0,0,1-.352.6l-6.5.325a.4.4,0,0,1-.393-.23l-1.481-2.961-.176.088.771,3.854a.416.416,0,0,1,0,.163l-.771,3.855.176.087,1.481-2.96a.39.39,0,0,1,.393-.23l6.5.325a.418.418,0,0,1,.352.6Z" transform="translate(-672 -688.882)" fill="#210f47"/>
      </g>
      <g id="Group_603" data-name="Group 603" transform="translate(688.47 697.633)">
        <path id="Path_1595" data-name="Path 1595" d="M692.181,701.882a.41.41,0,0,1-.187-.044.417.417,0,0,1-.187-.559,1.445,1.445,0,0,0,0-1.293.417.417,0,0,1,.746-.373,2.288,2.288,0,0,1,0,2.04A.418.418,0,0,1,692.181,701.882Z" transform="translate(-691.763 -699.383)" fill="#210f47"/>
      </g>
    </g>
  </g>
</svg>
