<svg xmlns="http://www.w3.org/2000/svg" width="50" height="41.854" viewBox="0 0 50 41.854">
  <path id="Path_1391" data-name="Path 1391" d="M15.579-52.058a10.6,10.6,0,0,1,7.444,3.511,11.062,11.062,0,0,1,2.949,7.725,11,11,0,0,1-3.16,8.006,10.64,10.64,0,0,1-7.935,3.23A10.639,10.639,0,0,1,6.66-33.028,12.867,12.867,0,0,1,3.5-42.087,30.335,30.335,0,0,1,8.556-59.432,47.421,47.421,0,0,1,19.511-71.3l3.371,4.635a41.2,41.2,0,0,0-4.494,6.39A25.34,25.34,0,0,0,15.579-52.058Zm27.528.14a10.6,10.6,0,0,1,7.444,3.511A11.062,11.062,0,0,1,53.5-40.682a11,11,0,0,1-3.16,8.006,10.64,10.64,0,0,1-7.935,3.23,10.639,10.639,0,0,1-8.216-3.441,12.867,12.867,0,0,1-3.16-9.059,30.335,30.335,0,0,1,5.056-17.346A47.421,47.421,0,0,1,47.039-71.16l3.371,4.635a41.2,41.2,0,0,0-4.494,6.39A25.34,25.34,0,0,0,43.107-51.918Z" transform="translate(-3.5 71.3)" fill="#1057fc"/>
</svg>
