<svg xmlns="http://www.w3.org/2000/svg" width="29" height="30" viewBox="0 0 29 30">
  <g id="Group_484" data-name="Group 484" transform="translate(-329 -2320)">
    <g id="Group_479" data-name="Group 479" transform="translate(329 2320)">
      <path id="Path_1507" data-name="Path 1507" d="M329.63,2350a.631.631,0,0,1-.214-.038.625.625,0,0,1-.416-.587v-23.75a5.657,5.657,0,0,1,5.674-5.625h17.652a5.657,5.657,0,0,1,5.674,5.625v11.25a5.657,5.657,0,0,1-5.674,5.625h-16.1l-6.115,7.275A.63.63,0,0,1,329.63,2350Zm5.043-28.75a4.4,4.4,0,0,0-4.413,4.375v22.024l5.19-6.174a.629.629,0,0,1,.484-.225h16.391a4.4,4.4,0,0,0,4.413-4.375v-11.25a4.4,4.4,0,0,0-4.413-4.375Z" transform="translate(-329 -2320)" fill="#1057fc"/>
    </g>
    <g id="Group_483" data-name="Group 483" transform="translate(335.304 2330)">
      <g id="Group_480" data-name="Group 480">
        <path id="Path_1508" data-name="Path 1508" d="M335.891,2331.75a1.875,1.875,0,1,1,1.891-1.875A1.886,1.886,0,0,1,335.891,2331.75Zm0-2.5a.625.625,0,1,0,.63.625A.629.629,0,0,0,335.891,2329.25Z" transform="translate(-334 -2328)" fill="#1057fc"/>
      </g>
      <g id="Group_481" data-name="Group 481" transform="translate(6.304)">
        <path id="Path_1509" data-name="Path 1509" d="M340.891,2331.75a1.875,1.875,0,1,1,1.891-1.875A1.886,1.886,0,0,1,340.891,2331.75Zm0-2.5a.625.625,0,1,0,.63.625A.629.629,0,0,0,340.891,2329.25Z" transform="translate(-339 -2328)" fill="#1057fc"/>
      </g>
      <g id="Group_482" data-name="Group 482" transform="translate(12.609)">
        <path id="Path_1510" data-name="Path 1510" d="M345.891,2331.75a1.875,1.875,0,1,1,1.891-1.875A1.886,1.886,0,0,1,345.891,2331.75Zm0-2.5a.625.625,0,1,0,.63.625A.629.629,0,0,0,345.891,2329.25Z" transform="translate(-344 -2328)" fill="#1057fc"/>
      </g>
    </g>
  </g>
</svg>
