<svg xmlns="http://www.w3.org/2000/svg" width="60" height="60" viewBox="0 0 60 60">
  <g id="Group_1047" data-name="Group 1047" transform="translate(-758 -1080)">
    <g id="Ellipse_109" data-name="Ellipse 109" transform="translate(758 1080)" fill="none" stroke="#1057fc" stroke-width="4">
      <circle cx="30" cy="30" r="30" stroke="none"/>
      <circle cx="30" cy="30" r="28" fill="none"/>
    </g>
    <g id="Group_541" data-name="Group 541" transform="translate(-279 356)">
      <g id="Group_533" data-name="Group 533" transform="translate(1065.75 755.25)">
        <ellipse id="Ellipse_164" data-name="Ellipse 164" cx="1.875" cy="1.25" rx="1.875" ry="1.25" fill="#210f47"/>
      </g>
      <g id="Group_539" data-name="Group 539" transform="translate(1052 739)">
        <g id="Group_534" data-name="Group 534" transform="translate(6.25)">
          <path id="Path_1546" data-name="Path 1546" d="M1065.75,760.25c-3.079,0-5.812-2.487-6.949-6.253-1.032-.059-1.8-1.381-1.8-3.122a5.222,5.222,0,0,1,.19-1.415,8.409,8.409,0,0,1-.19-1.71,8.75,8.75,0,0,1,17.5,0,8.409,8.409,0,0,1-.19,1.71,5.222,5.222,0,0,1,.19,1.415c0,1.741-.769,3.064-1.8,3.122C1071.563,757.763,1068.829,760.25,1065.75,760.25Zm-6.509-7.6a.592.592,0,0,1,.219.041.629.629,0,0,1,.391.415c.874,3.529,3.245,5.9,5.9,5.9s5.025-2.37,5.9-5.9a.626.626,0,0,1,.938-.38c.22.036.664-.633.664-1.846a3.789,3.789,0,0,0-.179-1.189.623.623,0,0,1-.016-.331,7.5,7.5,0,1,0-14.61,0,.623.623,0,0,1-.016.331,3.789,3.789,0,0,0-.179,1.189c0,1.21.47,1.875.625,1.875A.7.7,0,0,1,1059.241,752.645Z" transform="translate(-1057 -739)" fill="#210f47"/>
        </g>
        <g id="Group_535" data-name="Group 535" transform="translate(6.46 3.75)">
          <path id="Path_1547" data-name="Path 1547" d="M1071.958,749.5a.625.625,0,0,1-.571-.371,9.224,9.224,0,0,1-.632-2.148,11.41,11.41,0,0,1-6.68-2.785,2.564,2.564,0,0,1-.419.544,4.793,4.793,0,0,1-3.409,1.011,9.4,9.4,0,0,0-.165,3.079.625.625,0,0,1-.718.663,12.614,12.614,0,0,0-1.571-.129.625.625,0,0,1,0-1.25c.34,0,.7.025,1,.054-.036-1.131.021-2.747.581-3.349a1.113,1.113,0,0,1,.879-.318,3.728,3.728,0,0,0,2.519-.648,1.64,1.64,0,0,0,.434-1.229.625.625,0,0,1,1.25,0c.073.628,3.206,3.125,6.875,3.125a.625.625,0,0,1,.625.625,5.94,5.94,0,0,0,.41,1.84l1.2-.1a.625.625,0,0,1,.1,1.246l-1.665.135Z" transform="translate(-1057.168 -742)" fill="#210f47"/>
        </g>
        <g id="Group_536" data-name="Group 536" transform="translate(11.25 11.25)">
          <path id="Path_1548" data-name="Path 1548" d="M1062.875,749.25h-1.25a.625.625,0,0,1,0-1.25h1.25a.625.625,0,0,1,0,1.25Z" transform="translate(-1061 -748)" fill="#210f47"/>
        </g>
        <g id="Group_537" data-name="Group 537" transform="translate(16.25 11.25)">
          <path id="Path_1549" data-name="Path 1549" d="M1066.875,749.25h-1.25a.625.625,0,0,1,0-1.25h1.25a.625.625,0,0,1,0,1.25Z" transform="translate(-1065 -748)" fill="#210f47"/>
        </g>
        <g id="Group_538" data-name="Group 538" transform="translate(0 20)">
          <path id="Path_1550" data-name="Path 1550" d="M1081.375,765h-28.75a.623.623,0,0,1-.606-.778l.971-3.884a3.125,3.125,0,0,1,1.635-2.037l6.47-3.235a.625.625,0,0,1,.855.313l3.219,7.511.474-.946a5.324,5.324,0,0,1-1.142-2.569c0-1.156.959-1.875,2.5-1.875s2.5.719,2.5,1.875a5.324,5.324,0,0,1-1.142,2.569l.474.946,3.219-7.511a.625.625,0,0,1,.855-.312l6.47,3.235a3.125,3.125,0,0,1,1.635,2.037l.971,3.884a.623.623,0,0,1-.606.778Zm-11.552-1.25h10.751l-.777-3.108a1.864,1.864,0,0,0-.98-1.222l-5.878-2.939Zm-3.686,0h1.728l-.8-1.595a.628.628,0,0,1,.07-.67,5.164,5.164,0,0,0,1.114-2.11c0-.564-.874-.625-1.25-.625s-1.25.061-1.25.625a5.234,5.234,0,0,0,1.114,2.11.625.625,0,0,1,.07.67Zm-12.71,0h10.751l-3.116-7.269-5.878,2.939a1.864,1.864,0,0,0-.98,1.222Z" transform="translate(-1052 -755)" fill="#210f47"/>
        </g>
      </g>
      <g id="Group_540" data-name="Group 540" transform="translate(1068.25 752.75)">
        <path id="Path_1551" data-name="Path 1551" d="M1065.625,754.375a.625.625,0,0,1,0-1.25c1.378,0,5-.769,5-2.5a.625.625,0,0,1,1.25,0C1071.875,753.486,1067.294,754.375,1065.625,754.375Z" transform="translate(-1065 -750)" fill="#210f47"/>
      </g>
    </g>
  </g>
</svg>
