<svg xmlns="http://www.w3.org/2000/svg" width="40" height="40" viewBox="0 0 40 40">
  <g id="Group_1036" data-name="Group 1036" transform="translate(-310 -2507)">
    <g id="Ellipse_106" data-name="Ellipse 106" transform="translate(310 2507)" fill="none" stroke="#1057fc" stroke-width="2">
      <circle cx="20" cy="20" r="20" stroke="none"/>
      <circle cx="20" cy="20" r="19" fill="none"/>
    </g>
    <g id="Polygon_4" data-name="Polygon 4" transform="translate(317.5 2514)" fill="#fff">
      <path d="M 21.52375030517578 21.00000190734863 L 3.476249933242798 21.00000190734863 C 2.933020114898682 21.00000190734863 2.446969985961914 20.71889114379883 2.176069974899292 20.24803161621094 C 1.90516996383667 19.77717018127441 1.906450033187866 19.21569061279297 2.179480075836182 18.74607086181641 L 11.2032299041748 3.225210905075073 C 11.47482299804688 2.758079528808594 11.95963096618652 2.479151010513306 12.49997138977051 2.479151010513306 C 12.50000381469727 2.479151010513306 12.49996662139893 2.479151010513306 12.5 2.479151010513306 C 13.04037952423096 2.479151010513306 13.52515029907227 2.758050918579102 13.79675960540771 3.225210905075073 L 22.82052040100098 18.74607086181641 C 23.09354972839355 19.21569061279297 23.09482955932617 19.77717018127441 22.82393074035645 20.24803161621094 C 22.55303001403809 20.71889114379883 22.06698036193848 21.00000190734863 21.52375030517578 21.00000190734863 Z" stroke="none"/>
      <path d="M 12.5 2.979141235351562 C 12.32701015472412 2.979141235351562 11.8964900970459 3.027610778808594 11.63549041748047 3.476520538330078 L 2.611740112304688 18.99738121032715 C 2.349369049072266 19.44865036010742 2.522739410400391 19.84796142578125 2.609460830688477 19.99868011474609 C 2.69618034362793 20.14942169189453 2.954240798950195 20.5 3.476249694824219 20.5 L 21.52375030517578 20.5 C 22.0457592010498 20.5 22.30381965637207 20.14942169189453 22.39053916931152 19.99868011474609 C 22.47726058959961 19.84796142578125 22.65063095092773 19.44865036010742 22.38825988769531 18.99738121032715 L 13.36450958251953 3.476530075073242 C 13.10350036621094 3.027610778808594 12.67298030853271 2.979141235351562 12.5 2.979141235351562 M 12.49999904632568 1.979146957397461 C 13.17172241210938 1.979146957397461 13.84344482421875 2.310731887817383 14.2290096282959 2.973901748657227 L 23.25276947021484 18.49476051330566 C 24.0279598236084 19.82808113098145 23.06604957580566 21.50000190734863 21.52375030517578 21.50000190734863 L 3.476249694824219 21.50000190734863 C 1.933950424194336 21.50000190734863 0.9720401763916016 19.82808113098145 1.747230529785156 18.49476051330566 L 10.77097988128662 2.973901748657227 C 11.15655040740967 2.310731887817383 11.82827472686768 1.979146957397461 12.49999904632568 1.979146957397461 Z" stroke="none" fill="#210f47"/>
    </g>
    <text id="_" data-name="!" transform="translate(328 2531)" fill="#210f47" font-size="12" font-family="TTCommonsPro-Bd, TT Commons Pro" letter-spacing="-0.02em"><tspan x="0" y="0">!</tspan></text>
  </g>
</svg>
