<svg xmlns="http://www.w3.org/2000/svg" xmlns:xlink="http://www.w3.org/1999/xlink" width="565" height="489" viewBox="0 0 565 489">
  <defs>
    <filter id="Rectangle_1371" x="-21" y="-18" width="607" height="531" filterUnits="userSpaceOnUse">
      <feOffset dy="3" input="SourceAlpha"/>
      <feGaussianBlur stdDeviation="7" result="blur"/>
      <feFlood flood-opacity="0.102"/>
      <feComposite operator="in" in2="blur"/>
      <feComposite in="SourceGraphic"/>
    </filter>
    <clipPath id="clip-path">
      <g transform="matrix(1, 0, 0, 1, 0, 0)" filter="url(#Rectangle_1371)">
        <rect id="Rectangle_1371-2" data-name="Rectangle 1371" width="565" height="489" rx="4" transform="translate(960 1871.43)" fill="#fff"/>
      </g>
    </clipPath>
  </defs>
  <g id="Mask_Group_7" data-name="Mask Group 7" transform="translate(-960 -1871.426)" clip-path="url(#clip-path)">
    <g id="mockups" transform="translate(960 1875.155)">
      <g id="back" transform="translate(0 92.823)">
        <path id="Shape_1_copy_8" data-name="Shape 1 copy 8" d="M1804.726,1266.628V1162.285a48.215,48.215,0,0,0-48.2-48.233H1524.863a48.217,48.217,0,0,0-48.2,48.233v40.976h-1.5v25.514h1.5v21.554a3.886,3.886,0,0,0-1.658,3.184v43.1a3.888,3.888,0,0,0,1.658,3.182v11.99a3.887,3.887,0,0,0-1.658,3.184v43.094a3.886,3.886,0,0,0,1.658,3.184V1731.6a48.219,48.219,0,0,0,48.2,48.231h231.661a48.217,48.217,0,0,0,48.2-48.231V1344.476a2.568,2.568,0,0,0,2.075-2.519v-72.809A2.57,2.57,0,0,0,1804.726,1266.628Z" transform="translate(-1475.003 -1114.053)" fill="#f9f9f9"/>
        <path id="screen_" data-name="screen " d="M1789.061,1731.717A31.875,31.875,0,0,1,1757.2,1763.6H1520.876a31.875,31.875,0,0,1-31.865-31.887V1159.675a31.875,31.875,0,0,1,31.865-31.888h30.563a4.359,4.359,0,0,1,4.165,4.207v2.71a16.661,16.661,0,0,0,16.654,16.668h133.3a16.665,16.665,0,0,0,16.659-16.668v-2.556h.032a4.368,4.368,0,0,1,4.17-4.362h30.78a31.875,31.875,0,0,1,31.861,31.888Z" transform="translate(-1473.543 -1112.622)" fill="#e8e6ec"/>
      </g>
      <g id="Front" transform="translate(233.203)">
        <path id="Shape_1_copy_8-2" data-name="Shape 1 copy 8" d="M2076.233,1182.565V1078.222a48.216,48.216,0,0,0-48.2-48.231H1796.37a48.217,48.217,0,0,0-48.2,48.231V1119.2h-1.5v25.514h1.5v21.554a3.886,3.886,0,0,0-1.657,3.184v43.1a3.883,3.883,0,0,0,1.657,3.181v11.991a3.892,3.892,0,0,0-1.657,3.186V1274a3.887,3.887,0,0,0,1.657,3.184v370.359a48.218,48.218,0,0,0,48.2,48.231h231.663a48.216,48.216,0,0,0,48.2-48.231V1260.415a2.568,2.568,0,0,0,2.073-2.52v-72.81A2.568,2.568,0,0,0,2076.233,1182.565Z" transform="translate(-1746.509 -1029.991)" fill="#f9f9f9"/>
        <path id="screen" d="M2060.569,1647.653a31.877,31.877,0,0,1-31.864,31.887H1792.38a31.874,31.874,0,0,1-31.861-31.887V1075.612a31.873,31.873,0,0,1,31.861-31.887h30.566a4.364,4.364,0,0,1,4.166,4.208v2.71a16.659,16.659,0,0,0,16.654,16.668h133.3a16.664,16.664,0,0,0,16.658-16.668v-2.557h.035a4.363,4.363,0,0,1,4.169-4.361H2028.7a31.877,31.877,0,0,1,31.864,31.887Z" transform="translate(-1745.049 -1028.559)" fill="#e8e6ec"/>
      </g>
    </g>
  </g>
</svg>
