<svg xmlns="http://www.w3.org/2000/svg" xmlns:xlink="http://www.w3.org/1999/xlink" width="430.961" height="499.738" viewBox="0 0 430.961 499.738">
  <defs>
    <filter id="Shape_780" x="55.284" y="335.256" width="188.116" height="164.482" filterUnits="userSpaceOnUse">
      <feOffset dy="28" input="SourceAlpha"/>
      <feGaussianBlur stdDeviation="16" result="blur"/>
      <feFlood flood-color="#26293d" flood-opacity="0.149"/>
      <feComposite operator="in" in2="blur"/>
      <feComposite in="SourceGraphic"/>
    </filter>
    <clipPath id="clip-path">
      <path id="screen_" data-name="screen " d="M919.422,806.621c1.861.239,2.528.655,2.97,1.76a.034.034,0,0,1,0,.016,11.235,11.235,0,0,1,.421,1.43c1.1,4.525,2.63,9.437,8.207,10.655,1.357.3,49.148,3.1,55.22,2.853,2.212-.089,7-.126,5.941-7.56-.074-.528-.169-1.026-.255-1.484-.23-1.247-.38-2.208.214-2.731,1.008-.89,10.5.057,11.832.268,6.57,1.038,14.111,10.854,16.848,21.355.489,1.864,51.742,273.508,58.927,316.095,1.451,8.595,1.386,17.655-7.034,20.944-1.191.465-85.813,19.189-95.414,20.661-10.174,1.561-15.758-5.236-18.116-15.294-.443-1.874-55.412-305.821-62.636-351.12-1.545-9.7-.328-17.906,9.376-18.642C907.776,805.689,918.429,806.493,919.422,806.621Z" fill="#fff"/>
    </clipPath>
    <filter id="Shape_780-2" x="187.561" y="295.864" width="188.116" height="164.482" filterUnits="userSpaceOnUse">
      <feOffset dy="28" input="SourceAlpha"/>
      <feGaussianBlur stdDeviation="16" result="blur-2"/>
      <feFlood flood-color="#26293d" flood-opacity="0.149"/>
      <feComposite operator="in" in2="blur-2"/>
      <feComposite in="SourceGraphic"/>
    </filter>
    <clipPath id="clip-path-2">
      <path id="screen_2" data-name="screen " d="M1057.035,806.621c-1.861.239-2.528.655-2.97,1.76a.033.033,0,0,0,0,.016,11.256,11.256,0,0,0-.421,1.43c-1.1,4.525-2.63,9.437-8.207,10.655-1.357.3-49.148,3.1-55.22,2.853-2.212-.089-7-.126-5.941-7.56.074-.528.169-1.026.255-1.484.23-1.247.38-2.208-.214-2.731-1.008-.89-10.5.057-11.832.268-6.57,1.038-14.111,10.854-16.848,21.355-.489,1.864-51.742,273.508-58.927,316.095-1.451,8.595-1.386,17.655,7.034,20.944,1.191.465,85.813,19.189,95.414,20.661,10.174,1.561,15.758-5.236,18.116-15.294.443-1.874,55.412-305.821,62.636-351.12,1.545-9.7.327-17.906-9.376-18.642C1068.681,805.689,1058.029,806.493,1057.035,806.621Z" transform="translate(-895.993 -805.813)" fill="#fff"/>
    </clipPath>
  </defs>
  <g id="Group_1057" data-name="Group 1057" transform="translate(-1094.039 -1872.087)">
    <g id="Phone" transform="translate(212.367 1109.994)">
      <g transform="matrix(1, 0, 0, 1, 881.67, 762.09)" filter="url(#Shape_780)">
        <path id="Shape_780-3" data-name="Shape 780" d="M1077.072,1156.482l-92.116,29.349,65.6-68.482Z" transform="translate(-881.67 -762.09)" fill="#fff"/>
      </g>
      <path id="Rectangle_770" data-name="Rectangle 770" d="M905.443,801.581l.4.051,94.191,6.909c10.039.737,20.2,12.726,22.841,26.828l4.079,21.784,2.55,13.616,51.88,277.074c2.529,13.5,1.6,21.209-6.344,25.339-4.276,2.589-9.727,3.893-14.305,4.892l-89.022,19.432c-14.134,2.737-25.522.789-30.843-29.331L882.432,832.011C878.021,805.3,893.741,800.721,905.443,801.581Z" fill="#ededf0"/>
      <path id="Shape_769" data-name="Shape 769" d="M972.835,817.233l-18.242-1.154a1.9,1.9,0,0,1-1.438-1.642c-.156-.866.238-1.534.876-1.492l18.246,1.2a1.878,1.878,0,0,1,1.4,1.617c.149.826-.2,1.473-.791,1.473Zm-28.383-.212c-1.293-.081-2.6-1.56-2.907-3.3s.495-3.083,1.788-3,2.59,1.562,2.9,3.3c.3,1.687-.439,3-1.669,3C944.525,817.024,944.489,817.023,944.452,817.021Z" fill="#d5d7e0"/>
      <g id="screen_3" data-name="screen ">
        <path id="screen_4" data-name="screen " d="M919.422,806.621c1.861.239,2.528.655,2.97,1.76a.034.034,0,0,1,0,.016,11.235,11.235,0,0,1,.421,1.43c1.1,4.525,2.63,9.437,8.207,10.655,1.357.3,49.148,3.1,55.22,2.853,2.212-.089,7-.126,5.941-7.56-.074-.528-.169-1.026-.255-1.484-.23-1.247-.38-2.208.214-2.731,1.008-.89,10.5.057,11.832.268,6.57,1.038,14.111,10.854,16.848,21.355.489,1.864,51.742,273.508,58.927,316.095,1.451,8.595,1.386,17.655-7.034,20.944-1.191.465-85.813,19.189-95.414,20.661-10.174,1.561-15.758-5.236-18.116-15.294-.443-1.874-55.412-305.821-62.636-351.12-1.545-9.7-.328-17.906,9.376-18.642C907.776,805.689,918.429,806.493,919.422,806.621Z" fill="#fff"/>
      </g>
    </g>
    <g id="Phone-2" data-name="Phone" transform="translate(1324.039 1872.087)">
      <g transform="matrix(1, 0, 0, 1, -230, 0)" filter="url(#Shape_780-2)">
        <path id="Shape_780-4" data-name="Shape 780" d="M984.956,1156.482l92.116,29.349-65.6-68.482Z" transform="translate(-749.39 -801.49)" fill="#fff"/>
      </g>
      <path id="Rectangle_770-2" data-name="Rectangle 770" d="M1058.861,801.581l-.4.051-94.191,6.909c-10.039.737-20.2,12.726-22.841,26.828l-4.079,21.784-2.55,13.616-51.88,277.074c-2.529,13.5-1.6,21.209,6.344,25.339,4.276,2.589,9.727,3.893,14.305,4.892l89.022,19.432c14.134,2.737,25.522.789,30.843-29.331l58.438-336.163C1086.284,805.3,1070.563,800.721,1058.861,801.581Z" transform="translate(-881.672 -801.486)" fill="#ededf0"/>
      <path id="Shape_769-2" data-name="Shape 769" d="M31.356,0,13.114,1.156A1.9,1.9,0,0,0,11.675,2.8c-.156.866.238,1.534.876,1.492L30.8,3.091a1.878,1.878,0,0,0,1.4-1.617C32.35.647,32,0,31.409,0ZM2.972.214C1.679.3.376,1.774.065,3.515s.495,3.083,1.788,3,2.59-1.562,2.9-3.3c.3-1.687-.439-3-1.669-3C3.046.211,3.009.212,2.972.214Z" transform="translate(141.153 15.749) rotate(180)" fill="#d5d7e0"/>
      <g id="screen_5" data-name="screen " transform="translate(2.168 4.327)">
        <path id="screen_6" data-name="screen " d="M1057.035,806.621c-1.861.239-2.528.655-2.97,1.76a.033.033,0,0,0,0,.016,11.256,11.256,0,0,0-.421,1.43c-1.1,4.525-2.63,9.437-8.207,10.655-1.357.3-49.148,3.1-55.22,2.853-2.212-.089-7-.126-5.941-7.56.074-.528.169-1.026.255-1.484.23-1.247.38-2.208-.214-2.731-1.008-.89-10.5.057-11.832.268-6.57,1.038-14.111,10.854-16.848,21.355-.489,1.864-51.742,273.508-58.927,316.095-1.451,8.595-1.386,17.655,7.034,20.944,1.191.465,85.813,19.189,95.414,20.661,10.174,1.561,15.758-5.236,18.116-15.294.443-1.874,55.412-305.821,62.636-351.12,1.545-9.7.327-17.906-9.376-18.642C1068.681,805.689,1058.029,806.493,1057.035,806.621Z" transform="translate(-895.993 -805.813)" fill="#fff"/>
      </g>
    </g>
  </g>
</svg>
