<svg xmlns="http://www.w3.org/2000/svg" width="60" height="60" viewBox="0 0 60 60">
  <g id="Group_1055" data-name="Group 1055" transform="translate(-930 -944)">
    <g id="Ellipse_109" data-name="Ellipse 109" transform="translate(930 944)" fill="none" stroke="#1057fc" stroke-width="4">
      <circle cx="30" cy="30" r="30" stroke="none"/>
      <circle cx="30" cy="30" r="28" fill="none"/>
    </g>
    <g id="Group_937" data-name="Group 937" transform="translate(136 -1745.375)">
      <g id="Group_935" data-name="Group 935" transform="translate(809 2717.5)">
        <path id="Path_1966" data-name="Path 1966" d="M818.375,2731.25h-8.75a.625.625,0,0,1-.625-.625v-15a.625.625,0,0,1,.625-.625h8.75a.625.625,0,0,1,.625.625v15A.625.625,0,0,1,818.375,2731.25ZM810.25,2730h7.5v-13.75h-7.5Z" transform="translate(-809 -2715)" fill="#210f47"/>
      </g>
      <g id="Group_936" data-name="Group 936" transform="translate(817.75 2705)">
        <path id="Path_1967" data-name="Path 1967" d="M831.938,2732.5H820.375a7.017,7.017,0,0,1-4.193-1.433.625.625,0,0,1,.884-.885,5.931,5.931,0,0,0,3.309,1.067h11.563a1.564,1.564,0,0,0,1.563-1.562,1.543,1.543,0,0,0-.494-1.131.627.627,0,0,1,.359-1.078,1.548,1.548,0,0,0,.891-2.672.627.627,0,0,1,.359-1.078,1.547,1.547,0,0,0,.529-2.922.627.627,0,0,1-.042-1.09,1.869,1.869,0,0,0-.976-3.466h-8.75a.625.625,0,0,1-.584-.847A19.465,19.465,0,0,0,826,2710c0-2.047-1.815-3.75-2.5-3.75a2.634,2.634,0,0,0-1.25.339v4.036a.636.636,0,0,1-.057.262l-3.75,8.125a.63.63,0,0,1-.287.3l-1.25.625a.625.625,0,1,1-.56-1.118l1.054-.527,3.6-7.8v-4.239a.628.628,0,0,1,.234-.489A3.936,3.936,0,0,1,823.5,2705c1.446,0,3.75,2.289,3.75,5a17.974,17.974,0,0,1-.995,5h7.87a3.128,3.128,0,0,1,3.125,3.125,3.094,3.094,0,0,1-.811,2.095,7.5,7.5,0,0,0-.439,5.718,2.8,2.8,0,0,0-1.25,3.75A2.817,2.817,0,0,1,831.938,2732.5Z" transform="translate(-816 -2705)" fill="#210f47"/>
      </g>
    </g>
  </g>
</svg>
