<svg xmlns="http://www.w3.org/2000/svg" xmlns:xlink="http://www.w3.org/1999/xlink" width="329.077" height="538.942" viewBox="0 0 329.077 538.942">
  <defs>
    <filter id="Shape_1_copy_7" x="0.539" y="0.499" width="328.078" height="537.942" filterUnits="userSpaceOnUse">
      <feOffset dy="20" input="SourceAlpha"/>
      <feGaussianBlur stdDeviation="20" result="blur"/>
      <feFlood flood-opacity="0.09"/>
      <feComposite operator="in" in2="blur"/>
      <feComposite in="SourceGraphic"/>
    </filter>
    <filter id="Subtraction_97" x="0" y="0" width="329.077" height="538.942" filterUnits="userSpaceOnUse">
      <feOffset dy="20" input="SourceAlpha"/>
      <feGaussianBlur stdDeviation="20" result="blur-2"/>
      <feFlood flood-opacity="0.09"/>
      <feComposite operator="in" in2="blur-2"/>
      <feComposite in="SourceGraphic"/>
    </filter>
  </defs>
  <g id="Group_1053" data-name="Group 1053" transform="translate(-1254.5 -341.559)">
    <g transform="matrix(1, 0, 0, 1, 1254.5, 341.56)" filter="url(#Shape_1_copy_7)">
      <path id="Shape_1_copy_7-2" data-name="Shape 1 copy 7" d="M2143.763,6932.787v-65.5a30.251,30.251,0,0,0-30.228-30.277H1968.256a30.254,30.254,0,0,0-30.229,30.277v25.725h-.942v16.017h.942v13.529a2.437,2.437,0,0,0-1.04,2v27.053a2.437,2.437,0,0,0,1.04,2v7.527a2.44,2.44,0,0,0-1.04,2v27.052a2.432,2.432,0,0,0,1.04,2v232.493a30.253,30.253,0,0,0,30.229,30.277h145.279a30.251,30.251,0,0,0,30.228-30.277V6981.656a1.613,1.613,0,0,0,1.3-1.582v-45.705A1.612,1.612,0,0,0,2143.763,6932.787Z" transform="translate(-1876.45 -6796.51)" fill="#2c3144"/>
    </g>
    <path id="screen_" data-name="screen " d="M2135.876,7225.881A20,20,0,0,1,2115.9,7245.9h-148.2a20,20,0,0,1-19.982-20.018v-359.1a20,20,0,0,1,19.982-20.016h19.168a2.734,2.734,0,0,1,2.613,2.64v1.7a10.454,10.454,0,0,0,10.444,10.463h83.593a10.455,10.455,0,0,0,10.447-10.463V6849.5h.02a2.74,2.74,0,0,1,2.615-2.736h19.3a20,20,0,0,1,19.979,20.016Z" transform="translate(-622.971 -6455.879)" fill="#fff"/>
    <path id="Rectangle_4883" data-name="Rectangle 4883" d="M0,0H114a8,8,0,0,1,8,8V63a8,8,0,0,1-8,8H8a8,8,0,0,1-8-8V0A0,0,0,0,1,0,0Z" transform="translate(1343.039 453)" fill="#eeedf0"/>
    <path id="Path_1957" data-name="Path 1957" d="M0,0H9.589V9.589Z" transform="translate(1334.039 453)" fill="#eeedf0"/>
    <text id="Hi_Mary_thank_you_for_participating_in_our_survey_Find_the_survey_here:_www.tnz.nz_hW04C0A_ABC_Surveys" data-name="Hi Mary, thank you for participating in our survey!  Find the survey here: www.tnz.nz/hW04C0A
ABC Surveys" transform="translate(1348.039 458)" fill="#210f47" font-size="10" font-family="TTCommonsPro-Rg, TT Commons Pro" letter-spacing="-0.02em"><tspan x="0" y="10">Hi Mary, thank you for </tspan><tspan x="0" y="22" xml:space="preserve">participating in our survey!  </tspan><tspan x="0" y="34">Find the survey here: </tspan><tspan x="0" y="46" fill="#1057fc" text-decoration="underline">www.tnz.nz/hW04C0A</tspan><tspan x="0" y="58">ABC Surveys</tspan></text>
    <text id="Text_Message" data-name="Text Message" transform="translate(1372.039 773)" fill="#4b566f" font-size="10" font-family="TTCommonsPro-Rg, TT Commons Pro" letter-spacing="-0.02em"><tspan x="0" y="0">Text Message</tspan></text>
    <text id="_" data-name="+" transform="translate(1345.039 776)" fill="#1057fc" font-size="18" font-family="TTCommonsPro-Db, TT Commons Pro" letter-spacing="-0.02em"><tspan x="-5" y="0">+</tspan></text>
    <path id="Rectangle_4886" data-name="Rectangle 4886" d="M6,0H184a6,6,0,0,1,6,6V41a0,0,0,0,1,0,0H0a0,0,0,0,1,0,0V6A6,6,0,0,1,6,0Z" transform="translate(1323.039 391)" fill="#f3f2f5"/>
    <path id="Rectangle_4887" data-name="Rectangle 4887" d="M1,0H189a1,1,0,0,1,1,1V1a0,0,0,0,1,0,0H0A0,0,0,0,1,0,1V1A1,1,0,0,1,1,0Z" transform="translate(1323.039 432)" fill="#210f47" opacity="0.2"/>
    <g transform="matrix(1, 0, 0, 1, 1254.5, 341.56)" filter="url(#Subtraction_97)">
      <path id="Subtraction_97-2" data-name="Subtraction 97" d="M176.548,417.942H31.269A30.24,30.24,0,0,1,1.04,387.665V155.172a2.437,2.437,0,0,1-1.04-2V126.123a2.444,2.444,0,0,1,1.04-2V116.6a2.446,2.446,0,0,1-1.04-2V87.546a2.445,2.445,0,0,1,1.04-2V72.019H.1V56H1.04V30.277A30.215,30.215,0,0,1,31.269,0H176.548a30.24,30.24,0,0,1,30.228,30.277v65.5a1.614,1.614,0,0,1,1.3,1.581v45.706a1.614,1.614,0,0,1-1.3,1.582V387.665a30.213,30.213,0,0,1-30.228,30.277ZM29.682,8.829A20.022,20.022,0,0,0,9.7,28.845v359.1a20.022,20.022,0,0,0,19.982,20.018h148.2a20.022,20.022,0,0,0,19.98-20.018V28.845a20.021,20.021,0,0,0-19.98-20.016h-19.3a2.732,2.732,0,0,0-2.615,2.736h-.02v1.606A10.467,10.467,0,0,1,145.5,23.635H61.908A10.466,10.466,0,0,1,51.464,13.171v-1.7a2.75,2.75,0,0,0-2.613-2.64Z" transform="translate(60.5 40.5)" fill="#2c3144" stroke="rgba(0,0,0,0)" stroke-width="1"/>
    </g>
    <g id="Rectangle_4888" data-name="Rectangle 4888" transform="translate(1362.039 758)" fill="none" stroke="#dbdbdb" stroke-width="1">
      <rect width="143" height="24" rx="12" stroke="none"/>
      <rect x="0.5" y="0.5" width="142" height="23" rx="11.5" fill="none"/>
    </g>
    <g id="Rectangle_4889" data-name="Rectangle 4889" transform="translate(1333.039 758)" fill="none" stroke="#dbdbdb" stroke-width="1">
      <rect width="24" height="24" rx="12" stroke="none"/>
      <rect x="0.5" y="0.5" width="23" height="23" rx="11.5" fill="none"/>
    </g>
    <text id="_11:41" data-name="11:41" transform="translate(1340.039 403)" fill="#4b566f" font-size="8" font-family="TTCommonsPro-Rg, TT Commons Pro" letter-spacing="-0.02em"><tspan x="0" y="0">11:41</tspan></text>
    <text id="Business_Name" data-name="Business Name" transform="translate(1362.039 412)" fill="#210f47" font-size="12" font-family="TTCommonsPro-Md, TT Commons Pro" font-weight="500" letter-spacing="-0.02em"><tspan x="-38" y="12">Business Name</tspan></text>
    <path id="Path_1960" data-name="Path 1960" d="M-4773.577-8814.34l-5.446,5.446,5.446,5.445" transform="translate(6116.338 9228.395)" fill="none" stroke="#1057fc" stroke-width="2"/>
    <g id="round-send-24px" transform="translate(1149.039 319)">
      <g id="Bounding_Boxes" transform="translate(334 443)">
        <path id="Path_11" data-name="Path 11" d="M0,0H16V16H0Z" fill="none"/>
      </g>
      <g id="Rounded_1_" transform="translate(336 446.515)">
        <path id="Path_12" data-name="Path 12" d="M2.824,12.44,13.1,8.486a.509.509,0,0,0,0-.973L2.824,3.56a.582.582,0,0,0-.818.481L2,6.478A.548.548,0,0,0,2.512,7l8.32,1-8.32.994A.557.557,0,0,0,2,9.522l.006,2.437A.582.582,0,0,0,2.824,12.44Z" transform="translate(-2 -3.515)" fill="#1057fc"/>
      </g>
    </g>
  </g>
</svg>
