<svg xmlns="http://www.w3.org/2000/svg" xmlns:xlink="http://www.w3.org/1999/xlink" width="921.767" height="596.796" viewBox="0 0 921.767 596.796">
  <defs>
    <linearGradient id="linear-gradient" x1="0.5" y1="1.25" x2="0.5" y2="-0.25" gradientUnits="objectBoundingBox">
      <stop offset="0" stop-color="#210f47"/>
      <stop offset="0.021" stop-color="#2c313d"/>
      <stop offset="0.288" stop-color="#210f47"/>
      <stop offset="0.373" stop-color="#210f47"/>
      <stop offset="1" stop-color="#210f47"/>
    </linearGradient>
    <filter id="Rectangle_9_copy" x="0" y="303.344" width="921.767" height="293.452" filterUnits="userSpaceOnUse">
      <feOffset dy="41" input="SourceAlpha"/>
      <feGaussianBlur stdDeviation="42" result="blur"/>
      <feFlood flood-color="#283267" flood-opacity="0.459"/>
      <feComposite operator="in" in2="blur"/>
      <feComposite in="SourceGraphic"/>
    </filter>
  </defs>
  <g id="Macbook" transform="translate(-3238.117 -1637.015)">
    <g transform="matrix(1, 0, 0, 1, 3238.12, 1637.02)" filter="url(#Rectangle_9_copy)">
      <path id="Rectangle_9_copy-2" data-name="Rectangle 9 copy" d="M26.051,41.452c-10.658,0-20.931-2.8-25.231-7.528A2.657,2.657,0,0,1,0,32.176c-.009-3.509,10.5-5.11,10.5-5.11L49,7.562,130.162,0C381.622,7.744,288.2,7.747,539.722,0l81.157,7.562,38.506,19.5s10.368,1.55,10.383,5.033a2.668,2.668,0,0,1-.825,1.769c-4.3,4.723-14.446,7.584-25.114,7.584Z" transform="translate(126 388.34)" fill="url(#linear-gradient)"/>
    </g>
    <path id="Rectangle_5_copy" data-name="Rectangle 5 copy" d="M3476.81,1981.417a17.4,17.4,0,0,1-17.4-17.359V1654.372a17.4,17.4,0,0,1,17.4-17.357h484.435a17.4,17.4,0,0,1,17.4,17.357v309.685a17.4,17.4,0,0,1-17.4,17.359Z" transform="translate(-20.028)" fill="#210f47"/>
    <path id="Ellipse_1_copy_2" data-name="Ellipse 1 copy 2" d="M4033.867,2147.327c-.55,1.92-2.811,3.3-6.756,3.3H3766.822a3.113,3.113,0,0,0-3.114-3.107H3634.289a3.111,3.111,0,0,0-3.112,3.107H3371.153c-4.1,0-6.562-1.3-7.062-3.3-.338-1.358.242-3.033,1.839-4.839l65.7-73.992c2.487-2.8,8.764-5.035,14.06-5.035h505.894c5.3,0,11.6,2.231,14.12,5.035l8.39,9.327,58.141,64.665C4033.735,2144.173,4034.275,2145.9,4033.867,2147.327Z" transform="translate(0 -89.514)" fill="#342651"/>
    <path id="Shape_5_copy_2" data-name="Shape 5 copy 2" d="M3951.068,2104.714h-27.679c-1.628,0-2.7.366-2.384.817l1.529,2.23c.315.461,1.908.835,3.555.835h28.033c1.649,0,2.686-.374,2.319-.835l-1.779-2.23c-.36-.451-1.971-.817-3.6-.817m-39.564-.163h-27.667c-1.625,0-2.74.364-2.488.817l1.329,2.394c.257.461,1.8.835,3.446.835h28.034c1.648,0,2.734-.374,2.429-.835l-1.6-2.394c-.3-.452-1.863-.817-3.485-.817m78.283,0H3962.12c-1.625,0-2.643.364-2.274.817l1.948,2.394c.377.461,2.017.835,3.664.835h28.033c1.649,0,2.638-.374,2.209-.835l-2.213-2.394c-.418-.452-2.075-.817-3.7-.817m-516.865-4.654h-25.209c-1.6,0-3.217.354-3.614.792l-6.383,7.072c-.414.461.583.835,2.229.835h25.947c1.649,0,3.281-.374,3.649-.835l5.645-7.072c.35-.438-.664-.792-2.266-.792m37.962,0h-25.212c-1.6,0-3.169.354-3.511.792l-5.479,7.072c-.356.461.687.835,2.335.835h25.947c1.648,0,3.234-.374,3.544-.835l4.741-7.072c.3-.438-.767-.792-2.365-.792m45.2,0h-32.455c-1.6,0-3.127.354-3.41.792l-4.576,7.072c-.3.461.794.835,2.442.835h33.4c1.648,0,3.177-.374,3.414-.835l3.668-7.072c.225-.438-.885-.792-2.487-.792m49.551,0h-36.8c-1.6,0-3.072.354-3.287.792l-3.505,7.072c-.227.461.924.835,2.569.835h37.877c1.648,0,3.116-.374,3.278-.835l2.49-7.072c.153-.438-1.019-.792-2.62-.792m174.152,0h-161.4c-1.6,0-3.015.354-3.159.792l-2.325,7.072c-.149.461,1.064.835,2.71.835h166.123c1.648,0,2.9-.374,2.788-.835l-1.653-7.072c-.1-.438-1.481-.792-3.083-.792m48.971,0H3792.54c-1.6,0-2.807.354-2.694.792l1.817,7.072c.121.461,1.551.835,3.2.835h37.282c1.647,0,2.833-.374,2.649-.835l-2.817-7.072c-.176-.438-1.613-.792-3.213-.792m39.988,0H3841.51c-1.6,0-2.747.354-2.564.792l2.984,7.072c.2.461,1.687.835,3.335.835H3873.3c1.648,0,2.782-.374,2.538-.835l-3.77-7.072c-.233-.438-1.719-.792-3.317-.792m78.338-.237h-27.216c-1.6,0-2.652.354-2.352.792l1.371,1.994c.3.445,1.865.806,3.48.806h27.547c1.618,0,2.642-.361,2.288-.806l-1.591-1.994c-.347-.438-1.923-.792-3.527-.792m-419.783-9.909h-70.531c-1.543,0-3.1.331-3.466.74l-5.948,6.59c-.388.428.585.777,2.173.777h72.52c1.591,0,3.1-.349,3.375-.777l4.2-6.59c.26-.409-.783-.74-2.328-.74m36.664,0H3539.62c-1.549,0-3,.331-3.255.74l-4.049,6.59c-.261.428.813.777,2.4.777h25.036c1.592,0,3.057-.349,3.276-.777l3.361-6.59c.207-.409-.878-.74-2.424-.74m36.663,0h-24.349c-1.545,0-2.959.331-3.16.74l-3.2,6.59c-.209.428.911.777,2.5.777h25.035c1.592,0,3.011-.349,3.177-.777l2.518-6.59c.156-.409-.97-.74-2.517-.74m36.665,0h-24.349c-1.546,0-2.918.331-3.066.74l-2.361,6.59c-.156.428,1.008.777,2.6.777h25.037c1.59,0,2.966-.349,3.077-.777l1.674-6.59c.106-.409-1.063-.74-2.609-.74m36.665,0h-24.348c-1.548,0-2.876.331-2.97.74l-1.525,6.59c-.1.428,1.108.777,2.7.777h25.035c1.592,0,2.924-.349,2.98-.777l.834-6.59c.052-.409-1.157-.74-2.7-.74m36.665,0h-24.349c-1.546,0-2.834.331-2.874.74l-.683,6.59c-.045.428,1.207.777,2.8.777h25.037c1.588,0,2.878-.349,2.878-.777l-.006-6.59c0-.409-1.255-.74-2.8-.74m36.663,0h-24.349c-1.544,0-2.791.331-2.781.74l.161,6.59c.009.428,1.305.777,2.9.777h25.036c1.591,0,2.834-.349,2.778-.777l-.847-6.59c-.052-.409-1.347-.74-2.894-.74m36.666,0h-24.349c-1.545,0-2.751.331-2.69.74l1,6.59c.067.428,1.409.777,3,.777h25.036c1.59,0,2.788-.349,2.68-.777l-1.69-6.59c-.1-.409-1.442-.74-2.986-.74m36.663,0h-24.349c-1.546,0-2.707.331-2.593.74l1.845,6.59c.117.428,1.5.777,3.092.777h25.038c1.588,0,2.744-.349,2.579-.777l-2.531-6.59c-.157-.409-1.533-.74-3.082-.74m36.662,0h-24.347c-1.545,0-2.662.331-2.5.74l2.686,6.59c.172.428,1.6.777,3.191.777h25.038c1.591,0,2.7-.349,2.481-.777l-3.371-6.59c-.209-.409-1.632-.74-3.18-.74m36.668,0H3869.6c-1.547,0-2.623.331-2.405.74l3.525,6.59c.229.428,1.705.777,3.294.777h25.039c1.589,0,2.655-.349,2.379-.777l-4.212-6.59c-.26-.409-1.725-.74-3.269-.74m77.245,0h-64.931c-1.547,0-2.582.331-2.312.74l4.37,6.59c.281.428,1.8.777,3.39.777h66.766c1.59,0,2.559-.349,2.172-.777l-5.986-6.59c-.372-.409-1.924-.74-3.469-.74m-455.84-9.546H3465.3a6.111,6.111,0,0,0-3.327.692l-5.556,6.153c-.361.4.59.726,2.126.726h51.42c1.535,0,3.009-.324,3.29-.726l4.327-6.153c.267-.383-.727-.692-2.222-.692m35.446,0h-23.541c-1.493,0-2.915.309-3.175.692l-4.181,6.153c-.274.4.75.726,2.287.726h24.181c1.536,0,2.968-.324,3.2-.726l3.54-6.153c.219-.383-.816-.692-2.309-.692m35.445,0H3562.7c-1.495,0-2.875.309-3.084.692l-3.4,6.153c-.22.4.844.726,2.38.726h24.181c1.535,0,2.925-.324,3.1-.726l2.757-6.153c.169-.383-.9-.692-2.4-.692m35.446,0h-23.54c-1.495,0-2.835.309-3,.692l-2.612,6.153c-.169.4.938.726,2.472.726H3619.2c1.535,0,2.884-.324,3.012-.726l1.966-6.153c.123-.383-.989-.692-2.483-.692m35.446,0H3633.6c-1.494,0-2.8.309-2.909.692l-1.826,6.153c-.118.4,1.029.726,2.566.726h24.181c1.536,0,2.842-.324,2.919-.726l1.183-6.153c.074-.383-1.08-.692-2.573-.692m35.445,0H3669.04c-1.492,0-2.756.309-2.821.692l-1.038,6.153c-.068.4,1.123.726,2.654.726h24.186c1.534,0,2.8-.324,2.827-.726l.4-6.153c.024-.383-1.167-.692-2.662-.692m35.446,0h-23.54c-1.495,0-2.718.309-2.735.692l-.253,6.153c-.018.4,1.216.726,2.751.726h24.181c1.536,0,2.76-.324,2.734-.726l-.387-6.153c-.026-.383-1.256-.692-2.751-.692m35.446,0h-23.54c-1.5,0-2.68.309-2.646.692l.532,6.153c.035.4,1.308.726,2.842.726h24.182c1.536,0,2.718-.324,2.641-.726l-1.174-6.153c-.073-.383-1.343-.692-2.838-.692m35.445,0h-23.542c-1.491,0-2.636.309-2.555.692l1.319,6.153c.086.4,1.4.726,2.934.726h24.183c1.535,0,2.675-.324,2.548-.726l-1.961-6.153c-.122-.383-1.43-.692-2.926-.692m35.446,0h-23.539c-1.495,0-2.6.309-2.472.692l2.107,6.153c.134.4,1.492.726,3.023.726h24.185c1.535,0,2.635-.324,2.457-.726l-2.747-6.153c-.171-.383-1.522-.692-3.015-.692m35.446,0h-23.541c-1.494,0-2.559.309-2.381.692l2.89,6.153c.188.4,1.584.726,3.121.726h24.182c1.535,0,2.593-.324,2.364-.726l-3.532-6.153c-.219-.383-1.608-.692-3.1-.692m35.446,0h-23.542c-1.5,0-2.52.309-2.291.692l3.675,6.153c.239.4,1.676.726,3.211.726h24.182c1.536,0,2.553-.324,2.27-.726l-4.317-6.153c-.265-.383-1.7-.692-3.189-.692m57.361,0H3917.16c-1.495,0-2.482.309-2.2.692l4.458,6.153c.292.4,1.771.726,3.307.726h46.7c1.534,0,2.486-.324,2.121-.726l-5.588-6.153a6.151,6.151,0,0,0-3.335-.692m-453.993-8.929H3473.27a5.986,5.986,0,0,0-3.2.646l-5.2,5.76c-.336.375.593.678,2.076.678h36.285c1.485,0,2.916-.3,3.2-.678l4.328-5.76c.269-.357-.687-.646-2.132-.646m34.306,0h-22.783c-1.448,0-2.829.288-3.091.646l-4.195,5.76c-.272.375.71.678,2.194.678h23.384c1.484,0,2.876-.3,3.111-.678l3.594-5.76c.224-.357-.768-.646-2.215-.646m34.3,0h-22.783c-1.447,0-2.793.288-3.008.646l-3.459,5.76c-.223.375.8.678,2.283.678h23.382c1.485,0,2.838-.3,3.023-.678l2.859-5.76c.177-.357-.851-.646-2.3-.646m34.306,0h-22.783c-1.448,0-2.757.288-2.924.646l-2.725,5.76c-.178.375.881.678,2.367.678h23.384c1.484,0,2.8-.3,2.938-.678l2.125-5.76c.129-.357-.938-.646-2.382-.646m34.307,0h-22.783c-1.449,0-2.72.288-2.843.646l-1.989,5.76c-.128.375.969.678,2.455.678h23.382c1.485,0,2.762-.3,2.853-.678l1.387-5.76c.089-.357-1.017-.646-2.461-.646m34.3,0H3657.37c-1.449,0-2.685.288-2.762.646l-1.252,5.76c-.081.375,1.056.678,2.539.678h23.385c1.486,0,2.724-.3,2.764-.678l.653-5.76c.042-.357-1.1-.646-2.544-.646m34.3,0h-22.784c-1.445,0-2.643.288-2.675.646l-.517,5.76c-.036.375,1.143.678,2.625.678h23.383c1.486,0,2.684-.3,2.677-.678l-.082-5.76c-.005-.357-1.181-.646-2.628-.646m34.3,0h-22.783c-1.445,0-2.608.288-2.593.646l.217,5.76c.016.375,1.23.678,2.715.678H3749.7c1.484,0,2.645-.3,2.592-.678l-.819-5.76c-.051-.357-1.265-.646-2.711-.646m34.307,0h-22.784c-1.446,0-2.57.288-2.512.646l.953,5.76c.061.375,1.315.678,2.8.678h23.385c1.485,0,2.605-.3,2.5-.678l-1.553-5.76c-.1-.357-1.347-.646-2.792-.646m34.3,0h-22.784c-1.446,0-2.533.288-2.428.646l1.69,5.76c.108.375,1.4.678,2.885.678h23.383c1.484,0,2.569-.3,2.421-.678l-2.292-5.76c-.142-.357-1.429-.646-2.875-.646m34.307,0h-22.785c-1.448,0-2.5.288-2.345.646l2.424,5.76c.157.375,1.487.678,2.971.678h23.385c1.485,0,2.529-.3,2.332-.678l-3.024-5.76c-.189-.357-1.514-.646-2.958-.646m34.3,0H3863.2c-1.446,0-2.461.288-2.264.646l3.158,5.76c.207.375,1.575.678,3.06.678h23.385c1.482,0,2.488-.3,2.244-.678l-3.762-5.76c-.231-.357-1.593-.646-3.038-.646m34.3,0H3897.5c-1.445,0-2.422.288-2.181.646l3.894,5.76c.254.375,1.663.678,3.148.678h23.383c1.482,0,2.451-.3,2.16-.678l-4.5-5.76c-.275-.357-1.673-.646-3.122-.646m34.306,0H3931.81c-1.445,0-2.385.288-2.1.646l4.629,5.76c.3.375,1.749.678,3.235.678h23.383c1.485,0,2.411-.3,2.07-.678l-5.229-5.76a6.009,6.009,0,0,0-3.206-.646" transform="translate(-15.455 -91.155)" fill="#3a425a"/>
    <path id="Shape_5_copy_2-2" data-name="Shape 5 copy 2" d="M3951.068,2103.549h-27.679c-1.628,0-2.7.367-2.384.82l1.529,2.229c.315.461,1.908.835,3.555.835h28.033c1.649,0,2.686-.374,2.319-.835l-1.779-2.229c-.36-.453-1.971-.82-3.6-.82m-39.564-.162h-27.667c-1.625,0-2.74.366-2.488.818l1.329,2.394c.257.461,1.8.835,3.446.835h28.034c1.648,0,2.734-.374,2.429-.835l-1.6-2.394c-.3-.452-1.863-.818-3.485-.818m78.283,0H3962.12c-1.625,0-2.643.366-2.274.818l1.948,2.394c.377.461,2.017.835,3.664.835h28.033c1.649,0,2.638-.374,2.209-.835l-2.213-2.394c-.418-.452-2.075-.818-3.7-.818m-516.865-4.652h-25.209c-1.6,0-3.217.355-3.614.792l-6.383,7.072c-.414.461.583.835,2.229.835h25.947c1.649,0,3.281-.374,3.649-.835l5.645-7.072c.35-.437-.664-.792-2.266-.792m37.962,0h-25.212c-1.6,0-3.169.355-3.511.792l-5.479,7.072c-.356.461.687.835,2.335.835h25.947c1.648,0,3.234-.374,3.544-.835l4.741-7.072c.3-.437-.767-.792-2.365-.792m45.2,0h-32.455c-1.6,0-3.127.355-3.41.792l-4.576,7.072c-.3.461.794.835,2.442.835h33.4c1.648,0,3.177-.374,3.414-.835l3.668-7.072c.225-.437-.885-.792-2.487-.792m49.551,0h-36.8c-1.6,0-3.072.355-3.287.792l-3.505,7.072c-.227.461.924.835,2.569.835h37.877c1.648,0,3.116-.374,3.278-.835l2.49-7.072c.153-.437-1.019-.792-2.62-.792m174.152,0h-161.4c-1.6,0-3.015.355-3.159.792l-2.325,7.072c-.149.461,1.064.835,2.71.835h166.123c1.648,0,2.9-.374,2.788-.835l-1.653-7.072c-.1-.437-1.481-.792-3.083-.792m48.971,0H3792.54c-1.6,0-2.807.355-2.694.792l1.817,7.072c.121.461,1.551.835,3.2.835h37.282c1.647,0,2.833-.374,2.649-.835l-2.817-7.072c-.176-.437-1.613-.792-3.213-.792m39.988,0H3841.51c-1.6,0-2.747.355-2.564.792l2.984,7.072c.2.461,1.687.835,3.335.835H3873.3c1.648,0,2.782-.374,2.538-.835l-3.77-7.072c-.233-.437-1.719-.792-3.317-.792m78.338-.237h-27.216c-1.6,0-2.652.354-2.352.79l1.371,1.995c.3.445,1.865.806,3.48.806h27.547c1.618,0,2.642-.361,2.288-.806l-1.591-1.995c-.347-.437-1.923-.79-3.527-.79m-419.783-9.91h-70.531c-1.543,0-3.1.331-3.466.74l-5.948,6.59c-.388.429.585.779,2.173.779h72.52c1.591,0,3.1-.35,3.375-.779l4.2-6.59c.26-.409-.783-.74-2.328-.74m36.664,0H3539.62c-1.549,0-3,.331-3.255.74l-4.049,6.59c-.261.429.813.779,2.4.779h25.036c1.592,0,3.057-.35,3.276-.779l3.361-6.59c.207-.409-.878-.74-2.424-.74m36.663,0h-24.349c-1.545,0-2.959.331-3.16.74l-3.2,6.59c-.209.429.911.779,2.5.779h25.035c1.592,0,3.011-.35,3.177-.779l2.518-6.59c.156-.409-.97-.74-2.517-.74m36.665,0h-24.349c-1.546,0-2.918.331-3.066.74l-2.361,6.59c-.156.429,1.008.779,2.6.779h25.037c1.59,0,2.966-.35,3.077-.779l1.674-6.59c.106-.409-1.063-.74-2.609-.74m36.665,0h-24.348c-1.548,0-2.876.331-2.97.74l-1.525,6.59c-.1.429,1.108.779,2.7.779h25.035c1.592,0,2.924-.35,2.98-.779l.834-6.59c.052-.409-1.157-.74-2.7-.74m36.665,0h-24.349c-1.546,0-2.834.331-2.874.74l-.683,6.59c-.045.429,1.207.779,2.8.779h25.037c1.588,0,2.878-.35,2.878-.779l-.006-6.59c0-.409-1.255-.74-2.8-.74m36.663,0h-24.349c-1.544,0-2.791.331-2.781.74l.161,6.59c.009.429,1.305.779,2.9.779h25.036c1.591,0,2.834-.35,2.778-.779l-.847-6.59c-.052-.409-1.347-.74-2.894-.74m36.666,0h-24.349c-1.545,0-2.751.331-2.69.74l1,6.59c.067.429,1.409.779,3,.779h25.036c1.59,0,2.788-.35,2.68-.779l-1.69-6.59c-.1-.409-1.442-.74-2.986-.74m36.663,0h-24.349c-1.546,0-2.707.331-2.593.74l1.845,6.59c.117.429,1.5.779,3.092.779h25.038c1.588,0,2.744-.35,2.579-.779l-2.531-6.59c-.157-.409-1.533-.74-3.082-.74m36.662,0h-24.347c-1.545,0-2.662.331-2.5.74l2.686,6.59c.172.429,1.6.779,3.191.779h25.038c1.591,0,2.7-.35,2.481-.779l-3.371-6.59c-.209-.409-1.632-.74-3.18-.74m36.668,0H3869.6c-1.547,0-2.623.331-2.405.74l3.525,6.59c.229.429,1.705.779,3.294.779h25.039c1.589,0,2.655-.35,2.379-.779l-4.212-6.59c-.26-.409-1.725-.74-3.269-.74m77.245,0h-64.931c-1.547,0-2.582.331-2.312.74l4.37,6.59c.281.429,1.8.779,3.39.779h66.766c1.59,0,2.559-.35,2.172-.779l-5.986-6.59c-.372-.409-1.924-.74-3.469-.74m-455.84-9.545H3465.3a6.115,6.115,0,0,0-3.327.691l-5.556,6.154c-.361.4.59.725,2.126.725h51.42c1.535,0,3.009-.325,3.29-.725l4.327-6.154c.267-.383-.727-.691-2.222-.691m35.446,0h-23.541c-1.493,0-2.915.309-3.175.691l-4.181,6.154c-.274.4.75.725,2.287.725h24.181c1.536,0,2.968-.325,3.2-.725l3.54-6.154c.219-.383-.816-.691-2.309-.691m35.445,0H3562.7c-1.495,0-2.875.309-3.084.691l-3.4,6.154c-.22.4.844.725,2.38.725h24.181c1.535,0,2.925-.325,3.1-.725l2.757-6.154c.169-.383-.9-.691-2.4-.691m35.446,0h-23.54c-1.495,0-2.835.309-3,.691l-2.612,6.154c-.169.4.938.725,2.472.725H3619.2c1.535,0,2.884-.325,3.012-.725l1.966-6.154c.123-.383-.989-.691-2.483-.691m35.446,0H3633.6c-1.494,0-2.8.309-2.909.691l-1.826,6.154c-.118.4,1.029.725,2.566.725h24.181c1.536,0,2.842-.325,2.919-.725l1.183-6.154c.074-.383-1.08-.691-2.573-.691m35.445,0H3669.04c-1.492,0-2.756.309-2.821.691l-1.038,6.154c-.068.4,1.123.725,2.654.725h24.186c1.534,0,2.8-.325,2.827-.725l.4-6.154c.024-.383-1.167-.691-2.662-.691m35.446,0h-23.54c-1.495,0-2.718.309-2.735.691l-.253,6.154c-.018.4,1.216.725,2.751.725h24.181c1.536,0,2.76-.325,2.734-.725l-.387-6.154c-.026-.383-1.256-.691-2.751-.691m35.446,0h-23.54c-1.5,0-2.68.309-2.646.691l.532,6.154c.035.4,1.308.725,2.842.725h24.182c1.536,0,2.718-.325,2.641-.725l-1.174-6.154c-.073-.383-1.343-.691-2.838-.691m35.445,0h-23.542c-1.491,0-2.636.309-2.555.691l1.319,6.154c.086.4,1.4.725,2.934.725h24.183c1.535,0,2.675-.325,2.548-.725l-1.961-6.154c-.122-.383-1.43-.691-2.926-.691m35.446,0h-23.539c-1.495,0-2.6.309-2.472.691l2.107,6.154c.134.4,1.492.725,3.023.725h24.185c1.535,0,2.635-.325,2.457-.725l-2.747-6.154c-.171-.383-1.522-.691-3.015-.691m35.446,0h-23.541c-1.494,0-2.559.309-2.381.691l2.89,6.154c.188.4,1.584.725,3.121.725h24.182c1.535,0,2.593-.325,2.364-.725l-3.532-6.154c-.219-.383-1.608-.691-3.1-.691m35.446,0h-23.542c-1.5,0-2.52.309-2.291.691l3.675,6.154c.239.4,1.676.725,3.211.725h24.182c1.536,0,2.553-.325,2.27-.725l-4.317-6.154c-.265-.383-1.7-.691-3.189-.691m57.361,0H3917.16c-1.495,0-2.482.309-2.2.691l4.458,6.154c.292.4,1.771.725,3.307.725h46.7c1.534,0,2.486-.325,2.121-.725l-5.588-6.154a6.155,6.155,0,0,0-3.335-.691m-453.993-8.93H3473.27a5.974,5.974,0,0,0-3.2.646l-5.2,5.76c-.336.375.593.678,2.076.678h36.285c1.485,0,2.916-.3,3.2-.678l4.328-5.76c.269-.359-.687-.646-2.132-.646m34.306,0h-22.783c-1.448,0-2.829.287-3.091.646l-4.195,5.76c-.272.375.71.678,2.194.678h23.384c1.484,0,2.876-.3,3.111-.678l3.594-5.76c.224-.359-.768-.646-2.215-.646m34.3,0h-22.783c-1.447,0-2.793.287-3.008.646l-3.459,5.76c-.223.375.8.678,2.283.678h23.382c1.485,0,2.838-.3,3.023-.678l2.859-5.76c.177-.359-.851-.646-2.3-.646m34.306,0h-22.783c-1.448,0-2.757.287-2.924.646l-2.725,5.76c-.178.375.881.678,2.367.678h23.384c1.484,0,2.8-.3,2.938-.678l2.125-5.76c.129-.359-.938-.646-2.382-.646m34.307,0h-22.783c-1.449,0-2.72.287-2.843.646l-1.989,5.76c-.128.375.969.678,2.455.678h23.382c1.485,0,2.762-.3,2.853-.678l1.387-5.76c.089-.359-1.017-.646-2.461-.646m34.3,0H3657.37c-1.449,0-2.685.287-2.762.646l-1.252,5.76c-.081.375,1.056.678,2.539.678h23.385c1.486,0,2.724-.3,2.764-.678l.653-5.76c.042-.359-1.1-.646-2.544-.646m34.3,0h-22.784c-1.445,0-2.643.287-2.675.646l-.517,5.76c-.036.375,1.143.678,2.625.678h23.383c1.486,0,2.684-.3,2.677-.678l-.082-5.76c-.005-.359-1.181-.646-2.628-.646m34.3,0h-22.783c-1.445,0-2.608.287-2.593.646l.217,5.76c.016.375,1.23.678,2.715.678H3749.7c1.484,0,2.645-.3,2.592-.678l-.819-5.76c-.051-.359-1.265-.646-2.711-.646m34.307,0h-22.784c-1.446,0-2.57.287-2.512.646l.953,5.76c.061.375,1.315.678,2.8.678h23.385c1.485,0,2.605-.3,2.5-.678l-1.553-5.76c-.1-.359-1.347-.646-2.792-.646m34.3,0h-22.784c-1.446,0-2.533.287-2.428.646l1.69,5.76c.108.375,1.4.678,2.885.678h23.383c1.484,0,2.569-.3,2.421-.678l-2.292-5.76c-.142-.359-1.429-.646-2.875-.646m34.307,0h-22.785c-1.448,0-2.5.287-2.345.646l2.424,5.76c.157.375,1.487.678,2.971.678h23.385c1.485,0,2.529-.3,2.332-.678l-3.024-5.76c-.189-.359-1.514-.646-2.958-.646m34.3,0H3863.2c-1.446,0-2.461.287-2.264.646l3.158,5.76c.207.375,1.575.678,3.06.678h23.385c1.482,0,2.488-.3,2.244-.678l-3.762-5.76c-.231-.359-1.593-.646-3.038-.646m34.3,0H3897.5c-1.445,0-2.422.287-2.181.646l3.894,5.76c.254.375,1.663.678,3.148.678h23.383c1.482,0,2.451-.3,2.16-.678l-4.5-5.76c-.275-.359-1.673-.646-3.122-.646m34.306,0H3931.81c-1.445,0-2.385.287-2.1.646l4.629,5.76c.3.375,1.749.678,3.235.678h23.383c1.485,0,2.411-.3,2.07-.678l-5.229-5.76a6,6,0,0,0-3.206-.646" transform="translate(-15.455 -90.91)" fill="#525a7a"/>
    <ellipse id="Rectangle_8_copy" data-name="Rectangle 8 copy" cx="2.141" cy="2.149" rx="2.141" ry="2.149" transform="translate(3696.858 1642.265)" fill="#4b4b4b"/>
    <path id="Rounded_Rectangle_1_copy" data-name="Rounded Rectangle 1 copy" d="M3851.042,2128.534h-172.7c-3.357,0-6.477.93-6.971,2.079L3662.154,2155c-.478,1.075,1.762,1.946,5,1.946h194c3.238,0,5.463-.871,4.964-1.946l-8.07-24.387c-.514-1.149-3.652-2.079-7.007-2.079" transform="translate(-62.572 -103.173)" fill="#423460"/>
    <path id="screen" d="M3968.028,1658.906v298.68a3.6,3.6,0,0,1-3.611,3.6H3482.288a3.6,3.6,0,0,1-3.6-3.6v-298.68a3.606,3.606,0,0,1,3.6-3.605h482.129A3.611,3.611,0,0,1,3968.028,1658.906Z" transform="translate(-24.074 -3.838)" fill="#fff"/>
  </g>
</svg>
