<svg xmlns="http://www.w3.org/2000/svg" width="60" height="60" viewBox="0 0 60 60">
  <g id="Group_1056" data-name="Group 1056" transform="translate(-585 -944)">
    <g id="Ellipse_110" data-name="Ellipse 110" transform="translate(585 944)" fill="none" stroke="#1057fc" stroke-width="4">
      <circle cx="30" cy="30" r="30" stroke="none"/>
      <circle cx="30" cy="30" r="28" fill="none"/>
    </g>
    <g id="Group_934" data-name="Group 934" transform="translate(-162.875 892)">
      <g id="Group_929" data-name="Group 929" transform="translate(766 74.5)">
        <path id="Path_1961" data-name="Path 1961" d="M777.875,95.5C771.328,95.5,766,91.295,766,86.125c0-3.582,8.011-11.987,8.926-12.934a.618.618,0,0,1,.449-.191h5a.618.618,0,0,1,.449.191c.915.946,8.926,9.351,8.926,12.934C789.75,91.295,784.422,95.5,777.875,95.5Zm-2.234-21.25c-2.5,2.622-8.391,9.33-8.391,11.875,0,4.48,4.766,8.125,10.625,8.125S788.5,90.6,788.5,86.125c0-2.546-5.889-9.253-8.391-11.875Z" transform="translate(-766 -73)" fill="#210f47"/>
      </g>
      <g id="Group_930" data-name="Group 930" transform="translate(772.25 74.5)">
        <path id="Path_1962" data-name="Path 1962" d="M781.625,74.25h-10a.625.625,0,0,1,0-1.25h10a.625.625,0,0,1,0,1.25Z" transform="translate(-771 -73)" fill="#210f47"/>
      </g>
      <g id="Group_931" data-name="Group 931" transform="translate(769.527 67)">
        <path id="Path_1963" data-name="Path 1963" d="M779.669,75.75h-5a.636.636,0,0,1-.391-.136c-.535-.429-5.247-4.255-5.449-6.57a1.568,1.568,0,0,1,.371-1.208c1.039-1.179,3.754.366,5.305,1.414.711-1.013,1.766-2.25,2.664-2.25s1.951,1.237,2.664,2.25c1.551-1.046,4.265-2.592,5.305-1.414a1.568,1.568,0,0,1,.371,1.208c-.2,2.315-4.914,6.141-5.45,6.57A.63.63,0,0,1,779.669,75.75Zm-4.779-1.25h4.557c1.872-1.524,4.7-4.26,4.816-5.564a.322.322,0,0,0-.064-.273c-.4-.243-2.425.721-4.167,1.969a.624.624,0,0,1-.889-.169,6.8,6.8,0,0,0-1.991-2.215,7.206,7.206,0,0,0-1.959,2.215.624.624,0,0,1-.889.169c-1.911-1.37-3.814-2.182-4.175-1.963-.018.02-.073.084-.056.266C770.188,70.24,773.018,72.976,774.891,74.5Z" transform="translate(-768.822 -67)" fill="#210f47"/>
      </g>
      <g id="Group_932" data-name="Group 932" transform="translate(774.75 83.25)">
        <path id="Path_1964" data-name="Path 1964" d="M776.122,88.75A2.893,2.893,0,0,1,773,86.423a.624.624,0,0,1,.57-.675.637.637,0,0,1,.675.57c.055.651.9,1.182,1.875,1.182,1.018,0,1.878-.573,1.878-1.249,0-.61-.593-1-1.862-1.238L776,84.987c-2.027-.374-3-1.2-3-2.487,0-1.379,1.4-2.5,3.128-2.5a2.894,2.894,0,0,1,3.12,2.326.625.625,0,0,1-.57.676.642.642,0,0,1-.675-.57c-.055-.652-.9-1.182-1.875-1.182-1.019,0-1.878.573-1.878,1.25,0,.61.594,1,1.868,1.237l.136.026c2.026.374,3,1.2,3,2.488C779.25,87.629,777.847,88.75,776.122,88.75Z" transform="translate(-773 -80)" fill="#210f47"/>
      </g>
      <g id="Group_933" data-name="Group 933" transform="translate(777.25 82)">
        <path id="Path_1965" data-name="Path 1965" d="M775.625,90.25a.625.625,0,0,1-.625-.625v-10a.625.625,0,0,1,1.25,0v10A.625.625,0,0,1,775.625,90.25Z" transform="translate(-775 -79)" fill="#210f47"/>
      </g>
    </g>
  </g>
</svg>
