<svg xmlns="http://www.w3.org/2000/svg" width="40" height="40" viewBox="0 0 40 40">
  <g id="Group_1038" data-name="Group 1038" transform="translate(-1000 -2507)">
    <g id="Ellipse_104" data-name="Ellipse 104" transform="translate(1000 2507)" fill="none" stroke="#1057fc" stroke-width="2">
      <circle cx="20" cy="20" r="20" stroke="none"/>
      <circle cx="20" cy="20" r="19" fill="none"/>
    </g>
    <g id="Group_731" data-name="Group 731" transform="translate(969 197)">
      <g id="Group_729" data-name="Group 729" transform="translate(48.5 2320)">
        <path id="Path_1667" data-name="Path 1667" d="M55,2331.667a.426.426,0,0,1-.171-.037.417.417,0,0,1-.242-.432l.358-2.868a.417.417,0,0,1,.055-.83h.417a.416.416,0,0,1,.413.469l-.247,1.982,2.02-2.309a.421.421,0,0,1,.314-.143h2.5a1.251,1.251,0,0,0,1.25-1.25v-4.167a1.252,1.252,0,0,0-1.25-1.25H52.083a1.252,1.252,0,0,0-1.25,1.25v.833a.417.417,0,1,1-.833,0v-.833A2.086,2.086,0,0,1,52.083,2320h8.333a2.086,2.086,0,0,1,2.083,2.083v4.167a2.086,2.086,0,0,1-2.083,2.083H58.106l-2.792,3.191A.419.419,0,0,1,55,2331.667Z" transform="translate(-50 -2320)" fill="#210f47"/>
      </g>
      <g id="Group_730" data-name="Group 730" transform="translate(41 2324.167)">
        <path id="Path_1668" data-name="Path 1668" d="M56.416,2340.833a.416.416,0,0,1-.4-.316l-.392-1.567a1.531,1.531,0,0,0-1.007-1.087l-2.893-.965c-1.3-.54-1.589-2.413-1.589-2.678a.416.416,0,0,1,.151-.321,2.169,2.169,0,0,0,.827-1.31,1.1,1.1,0,0,1,.408-.942,4.4,4.4,0,0,0,.241-.935.417.417,0,0,1-.322-.406v-1.957c0-.909-.278-1.087-.4-1.162a.517.517,0,0,1-.273-.381.408.408,0,0,1,.012-.14c-.055-.234-.45-.835-1.859-.835a2.673,2.673,0,0,0-2.518,2.517v1.957a.416.416,0,0,1-.314.4,3.7,3.7,0,0,0,.233.937,1.1,1.1,0,0,1,.407.942,2.169,2.169,0,0,0,.827,1.31.416.416,0,0,1,.151.321c0,.265-.291,2.138-1.561,2.668l-2.922.975a1.528,1.528,0,0,0-1.007,1.087l-.392,1.567a.417.417,0,1,1-.808-.2l.392-1.566a2.362,2.362,0,0,1,1.552-1.677l2.894-.964c.62-.258.922-1.281,1-1.718a2.742,2.742,0,0,1-.957-1.8c0-.178-.045-.252-.062-.266a.32.32,0,0,1-.235-.231,4.966,4.966,0,0,1-.356-1.459.412.412,0,0,1,.013-.1.916.916,0,0,1,.313-.5v-1.683A3.494,3.494,0,0,1,48.916,2325c2.009,0,2.594,1.023,2.686,1.57a2.033,2.033,0,0,1,.666,1.781v1.683a.916.916,0,0,1,.313.5.412.412,0,0,1,.013.1,4.966,4.966,0,0,1-.356,1.459.419.419,0,0,1-.286.25c.028,0-.011.066-.011.247a2.742,2.742,0,0,1-.957,1.8c.078.436.383,1.46,1.027,1.729l2.866.953a2.362,2.362,0,0,1,1.552,1.677l.392,1.566a.416.416,0,0,1-.4.518Z" transform="translate(-41 -2325)" fill="#210f47"/>
      </g>
    </g>
  </g>
</svg>
