<svg xmlns="http://www.w3.org/2000/svg" width="40" height="40" viewBox="0 0 40 40">
  <g id="Group_1039" data-name="Group 1039" transform="translate(-1345 -2507)">
    <g id="Ellipse_105" data-name="Ellipse 105" transform="translate(1345 2507)" fill="none" stroke="#1057fc" stroke-width="2">
      <circle cx="20" cy="20" r="20" stroke="none"/>
      <circle cx="20" cy="20" r="19" fill="none"/>
    </g>
    <g id="Group_728" data-name="Group 728" transform="translate(539 2308.117)">
      <g id="Group_724" data-name="Group 724" transform="translate(819.478 212.377)">
        <path id="Path_1665" data-name="Path 1665" d="M830.435,225.493a.437.437,0,0,1-.211-.055l-3.7-2.057-3.7,2.057a.434.434,0,0,1-.637-.465l.823-4.119-2.879-2.879a.435.435,0,0,1,.259-.74l3.69-.41,2.064-3.717a.453.453,0,0,1,.761,0l2.065,3.717,3.69.41a.435.435,0,0,1,.259.74l-2.879,2.879.823,4.119a.434.434,0,0,1-.426.52Zm-3.913-3.043a.435.435,0,0,1,.211.055l3.091,1.717-.685-3.426a.433.433,0,0,1,.118-.392l2.4-2.4-3.015-.335a.44.44,0,0,1-.332-.221l-1.793-3.229-1.794,3.229a.437.437,0,0,1-.331.221l-3.015.335,2.4,2.4a.433.433,0,0,1,.118.392l-.685,3.426,3.091-1.717A.435.435,0,0,1,826.522,222.45Z" transform="translate(-820 -212.901)" fill="#210f47"/>
      </g>
      <g id="Group_727" data-name="Group 727" transform="translate(816 208.882)">
        <g id="Group_726" data-name="Group 726">
          <g id="Group_725" data-name="Group 725">
            <path id="Path_1666" data-name="Path 1666" d="M826,228.882c-.642,0-1.086-.6-1.478-1.136-.228-.309-.51-.693-.7-.743a2.349,2.349,0,0,0-1.021.3c-.623.271-1.27.551-1.8.24s-.623-1.019-.7-1.7a1,1,0,0,0-1.259-1.259c-.681-.077-1.386-.156-1.7-.7s-.03-1.182.24-1.8a2.323,2.323,0,0,0,.3-1.02c-.049-.188-.434-.471-.742-.7-.533-.392-1.136-.837-1.136-1.479s.6-1.086,1.136-1.479c.308-.227.692-.51.742-.7a2.32,2.32,0,0,0-.3-1.021c-.27-.623-.55-1.268-.24-1.8s1.019-.623,1.7-.7a1,1,0,0,0,1.258-1.259c.077-.682.156-1.386.7-1.7s1.18-.03,1.8.241a2.336,2.336,0,0,0,1.021.3c.188-.05.47-.435.7-.743.392-.532.837-1.136,1.478-1.136s1.086.6,1.478,1.136c.228.309.51.693.7.743a2.313,2.313,0,0,0,1.021-.3c.623-.271,1.27-.551,1.8-.241s.624,1.019.7,1.7a1,1,0,0,0,1.259,1.26c.681.076,1.386.156,1.7.7s.03,1.182-.24,1.8a2.321,2.321,0,0,0-.3,1.021c.05.188.434.47.742.7.533.393,1.137.837,1.137,1.479s-.6,1.087-1.137,1.479c-.308.227-.692.51-.742.7a2.318,2.318,0,0,0,.3,1.02c.27.623.55,1.268.24,1.8s-1.019.623-1.7.7a1,1,0,0,0-1.258,1.259c-.077.681-.156,1.385-.7,1.7s-1.182.03-1.8-.241a2.326,2.326,0,0,0-1.021-.3c-.188.05-.47.435-.7.743C827.086,228.279,826.641,228.882,826,228.882Zm-2.255-2.757a1.142,1.142,0,0,1,.3.038,2.5,2.5,0,0,1,1.173,1.067c.23.311.577.782.779.782s.549-.47.778-.782a2.508,2.508,0,0,1,1.174-1.067,2.576,2.576,0,0,1,1.591.342c.345.15.868.376,1.022.285s.23-.667.271-1.045a1.762,1.762,0,0,1,2.027-2.026c.378-.043.95-.107,1.045-.271s-.137-.677-.285-1.022a2.579,2.579,0,0,1-.343-1.592,2.507,2.507,0,0,1,1.068-1.173c.311-.23.782-.577.782-.779s-.47-.549-.782-.778a2.511,2.511,0,0,1-1.068-1.173,2.582,2.582,0,0,1,.343-1.593c.149-.344.376-.864.285-1.022s-.667-.228-1.044-.27a1.763,1.763,0,0,1-2.028-2.027c-.042-.378-.106-.95-.271-1.045s-.676.136-1.023.286a2.558,2.558,0,0,1-1.591.342,2.507,2.507,0,0,1-1.173-1.067c-.229-.312-.577-.783-.779-.783s-.549.47-.778.782a2.509,2.509,0,0,1-1.174,1.068,2.582,2.582,0,0,1-1.591-.342c-.345-.15-.87-.376-1.022-.286s-.23.668-.272,1.045a1.761,1.761,0,0,1-2.026,2.027c-.378.043-.95.106-1.045.27s.136.677.285,1.022a2.581,2.581,0,0,1,.343,1.593,2.511,2.511,0,0,1-1.068,1.173c-.311.23-.782.577-.782.778s.47.55.782.779a2.507,2.507,0,0,1,1.068,1.173,2.579,2.579,0,0,1-.343,1.592c-.149.344-.376.864-.285,1.022s.667.229,1.044.271a1.762,1.762,0,0,1,2.027,2.026c.043.378.107.95.271,1.045s.676-.136,1.023-.285A3.447,3.447,0,0,1,823.745,226.125Z" transform="translate(-816 -208.882)" fill="#210f47"/>
          </g>
        </g>
      </g>
    </g>
  </g>
</svg>
