<svg xmlns="http://www.w3.org/2000/svg" width="150.5" height="34.494" viewBox="0 0 150.5 34.494">
  <g id="Group_786" data-name="Group 786" transform="translate(65 -338.89)">
    <path id="Path_1788" data-name="Path 1788" d="M180.338,351.75l-.358.072-.143.072-.287.072-.143.072-.215.072-.072.072-.143.072-.072.072-.072.072-.143.143-.072.143-.072.143-.143.143-.072.215-.072.072-.072.215-.072.072-.072.215-.072.143-.072.287-.072.215v1.649h8.812v-.287l-.072-.072-.072-.215-.072-.143-.072-.143-.072-.072-.072-.215-.071-.072-.072-.143-.072-.072-.072-.143-.072-.143-.072-.143-.072-.072-.072-.143-.072-.072-.072-.143-.072-.072-.072-.143-.072-.072-.072-.072-.072-.143-.143-.143-.072-.072-.072-.072-.072-.072-.072-.072-.143-.143-.143-.072-.072-.072-.143-.072-.072-.072-.143-.072-.072-.072-.143-.072-.143-.072-.215-.072-.072-.072-.287-.072-.143-.072-.43-.072-.287-.072h-1.648l-.215.072Z" transform="translate(-192.466 -10.136)" fill="#000101"/>
    <path id="Path_1789" data-name="Path 1789" d="M311.253,352.513l-.072.143-.072.143-.143.143-.072.143-.072.143-.143.143-.072.143-.072.143-.143.143-.072.143-.072.143-.072.072-.072.072-.072.143-.072.072-.072.143-.072.072-.072.143-.072.072-.072.143-.072.072-.072.143-.072.072-.072.143-.072.072-.072.143-.072.072-.072.143-.072.072-.072.072-.072.143-.072.143v.072h4.514l.072-.143.072-.072.072-.072.072-.143.143-.143.072-.143.072-.143.143-.143.072-.143.072-.072.072-.143.072-.072.071-.143.072-.072.072-.143.072-.072.072-.143.072-.072.072-.143.072-.072.072-.143.072-.072.072-.143.072-.072.072-.072.072-.072.072-.143.072-.072.072-.143.072-.072.072-.143.072-.072.072-.143.072-.072.072-.143v-.143H311.4l-.143.143Z" transform="translate(-296.227 -10.684)" fill="#000101"/>
    <path id="Path_1790" data-name="Path 1790" d="M258.313,352.513l.072.072.072.143.072.072.072.143.072.072.072.143.143.143.072.144.072.072.072.143.072.072.072.143.071.072.072.143.072.072.072.143.072.072.072.143.072.072.072.143.072.072.072.143.143.143.072.143.072.143.143.143.072.143.072.072.072.072.072.143.072.072.072.143.072.072.072.143h4.514v-.072l-.072-.143-.072-.143-.072-.143-.143-.143-.072-.143-.072-.143-.143-.143-.072-.143-.072-.072-.072-.072-.072-.143-.072-.072-.072-.143-.072-.072-.072-.143-.072-.072-.072-.143-.072-.072-.072-.143-.072-.072-.072-.143-.072-.072-.072-.143-.072-.072-.072-.143-.072-.143-.072-.072-.072-.143-.072-.072-.072-.143-.143-.143-.072-.143-.071-.072-.072-.072h-4.514v.143Z" transform="translate(-256.255 -10.684)" fill="#000101"/>
    <path id="Path_1791" data-name="Path 1791" d="M348.814,355.537h14.257v-3.513H348.814v3.513Z" transform="translate(-327.985 -10.41)" fill="#000101"/>
    <path id="Path_1792" data-name="Path 1792" d="M348.814,355.263v.072h14.329v-3.656H348.814v.072h14.257v3.513Z" transform="translate(-327.985 -10.136)" fill="#fff"/>
    <path id="Path_1793" data-name="Path 1793" d="M451.219,351.75l-.43.072-.143.072-.215.072-.143.072-.215.072-.072.072-.215.072-.072.143-.072.072-.071.143-.072.072-.072.143-.072.072-.072.143-.072.072-.072.143-.072.143-.072.143-.072.143-.072.287-.072.143-.072.358-.072.358v1.147l.072.072h8.812v-.287l-.072-.143-.072-.143-.072-.143-.072-.143-.072-.143-.072-.143-.072-.072-.072-.143-.072-.072-.072-.215-.072-.072-.072-.143-.072-.072-.072-.143-.072-.143-.072-.143-.072-.072-.072-.072-.072-.072-.072-.072-.072-.072-.072-.143-.072-.072-.072-.072-.072-.072-.072-.072-.072-.072-.143-.072-.072-.072-.072-.072-.072-.072-.143-.072-.072-.072-.143-.072-.072-.072-.143-.072-.143-.072-.143-.072-.143-.072-.287-.072-.143-.072-.43-.072-.287-.072h-1.576l-.287.072Z" transform="translate(-407.107 -10.136)" fill="#000101"/>
    <path id="Path_1794" data-name="Path 1794" d="M235.171,355.908h3.869v-.072h-3.8V351.75h3.8v-.072h-3.869v4.23Z" transform="translate(-237.913 -10.136)" fill="#fff"/>
    <path id="Path_1795" data-name="Path 1795" d="M239.313,356.11v-4.086h-3.8v4.086Z" transform="translate(-238.186 -10.41)" fill="#000101"/>
    <path id="Path_1796" data-name="Path 1796" d="M424.806,356.11h3.725v-4.086h-3.725v4.086Z" transform="translate(-388.216 -10.41)" fill="#000101"/>
    <path id="Path_1797" data-name="Path 1797" d="M572.846,351.75l-.43.072-.215.072-.287.072-.072.072-.215.072-.072.072-.215.072-.072.072-.143.072-.072.072-.143.072-.143.143-.143.143-.072.072-.072.072-.072.072-.072.072-.143.143-.072.143-.072.072-.072.143-.072.072-.072.143-.072.072-.072.143-.072.143-.072.143-.072.143-.072.215-.072.143-.072.287-.072.215v.574h4.084l.072-.072.072-.072.072-.072.072-.072.072-.072.143-.072.143-.072.072-.072.358-.072,9.17-.072v-3.513H573.2l-.358.072Z" transform="translate(-502.655 -10.136)" fill="#000101"/>
    <path id="Path_1798" data-name="Path 1798" d="M111.006,351.75l-.287.072-.215.072-.215.072-.143.072-.215.072-.072.072-.143.072-.143.072-.143.072-.072.072-.072.072-.072.072-.143.072-.072.072-.072.072-.072.072-.072.143-.072.072-.072.143-.072.143-.072.215-.072.072-.072.215-.072.143-.072.215-.072.143-.072.215-.072.143-.072.287-.072.143-.072.215-.072.143v.358h4.3l.072-.215.072-.072.143-.143h.143l.143.072.072.072.072.072.072.287h4.37v-.215l-.072-.287-.072-.143-.071-.215-.072-.143-.072-.215-.072-.143-.072-.287-.072-.072-.072-.215-.072-.143-.072-.215-.072-.143-.072-.143-.072-.143-.072-.143-.072-.072-.072-.072-.072-.072-.072-.072-.072-.072-.072-.072-.072-.072-.072-.072-.143-.072-.072-.072-.143-.072-.072-.072-.215-.072-.072-.072-.215-.072-.143-.072-.286-.072-.143-.072-.287-.072-.286-.072h-2.221l-.215.072Z" transform="translate(-136.889 -10.136)" fill="#000101"/>
    <path id="Path_1799" data-name="Path 1799" d="M424.533,351.751h3.725v4.086h-3.725v-4.086Zm-.072,4.158h3.8l.072-.072v-4.158h-3.869v4.229Z" transform="translate(-387.942 -10.137)" fill="#fff"/>
    <path id="Path_1800" data-name="Path 1800" d="M-39.495,338.961l-.143.072-.143.072-.143.072-.072.072-.143.072-.143.072-.072.072-.072.072-.072.072-.143.072-.072.072-.143.072-.143.143-.072.072-.071.072-.072.072-.143.072-.072.072-.072.072-.072.072-.072.072-.072.072-.072.072-.072.072-.143.072-.143.143-.143.143-.143.143-.143.143-.143.143-.143.143-.143.143-.143.143-.072.143-.072.072-.072.072-.072.072-.072.072-.072.072-.072.072-.072.072-.072.144-.072.072-.072.072-.072.072-.072.072-.072.072-.072.072-.072.072-.072.072-.072.072-.072.072-.072.143-.072.072-.072.072-.072.072-.072.072-.143.143-.071.143-.072.072-.072.072-.072.072-.072.072-.072.143-.072.072-.072.072-.072.143-.072.072-.072.072-.143.143-.072.143-.072.072-.072.072-.072.072-.072.143-.071.072-.143.143-.072.143-.072.072-.072.072-.072.143-.072.072-.072.072-.143.143-.072.143-.072.072-.072.143-.072.072-.143.143-.072.143-.072.072-.143.143-.072.143-.072.072-.072.143-.072.072-.287.143-.143.072-.215.072-.072.072-.143.072-.071.143-.072.215-.143.072-.143.143-.072.072-.072.072-.143.072-.072.072-.071.072-.143.072-.143.143-.072.072-.072.072-.143.072-.072.072-.072.072L-50.6,350l-.072.072-.143.072-.072.072-.072.072-.072.072-.143.072-.072.072-.072.072-.072.072-.143.072-.072.072-.143.072-.143.143-.072.072-.143.072-.072.072-.143.072-.143.143-.072.072-.143.072-.072.072-.072.072-.143.072-.072.072-.143.072-.072.072-.072.072-.143.072-.071.072-.072.072-.143.072-.072.072-.143.072-.072.072-.143.072-.143.143-.072.072-.143.072-.072.072-.143.072-.072.072-.143.072-.072.072-.143.072-.072.072-.143.072-.072.072-.143.072-.072.072-.143.072-.072.072-.215.072-.215.143-.072.072-.215.072-.072.072-.286.072-.143.072h-.072l-.072-.072-.072-.072-.072-.072-.072-.072-.072-.072-.072-.072-.072-.072-.143-.072-.072-.072-.072-.072-.072-.072-.143-.143-.143-.143-.143-.072-.072-.072-.143-.072-.072-.072-.072-.072-.072-.072-.143-.143-.143-.072-.072-.072-.143-.072-.072-.072-.143-.143-.143-.072-.143-.072-.072-.072-.072-.072-.143-.072-.072-.072-.143-.072-.072-.072-.143-.072-.143-.072-.072-.072-.143-.072-.071-.072-.143-.072-.072-.072-.143-.072-.143-.072-.143-.072-.072-.072-.215-.071-.072-.072-.143-.072-.072-.072-.287-.072-.072-.072-.215-.072-.143-.072-.287-.072-.143-.072-.573-.072h-.287l-.358.072-.143.072-.072.072-.072.072-.072.143v.86l.072.215.072.143.072.143.072.072.072.143.072.072.072.143.072.072.072.143.072.072.072.072.072.072.072.143.143.143.072.072.072.072.072.072.072.072.072.072.072.072.072.072.072.143.072.072.072.072.072.072.072.072.072.072.072.072.143.072.072.072.072.072.072.072.072.072.072.072.072.072.072.072.072.072.072.072.072.072.143.143.143.143.143.072.072.072.072.072.072.072.071.072.143.072.072.072.072.072.071.072.143.072.072.072.072.072.072.072.143.143.143.072.072.072.072.072.072.072.143.143.143.072.072.072.143.072.072.072.143.143.143.072.072.072.072.072.143.072.072.072.072.072.143.072.072.072.072.072.143.072.072.072.072.072.143.072.072.072.143.072.072.072.143.072.072.072h.717l.143-.072.215-.072.072-.072.143-.072.143-.072.143-.072.143-.143.072-.072.143-.072.072-.072.072-.072.072-.072.072-.072.072-.072.072-.072.072-.072.072-.072.072-.072.072-.072.072-.072.072-.072.072-.072.072-.072.072-.072.072-.072.072-.072.072-.072.072-.072.072-.072.072-.072.072-.072.143-.143.072-.072.072-.072.072-.072.072-.143.072-.072.072-.072.071-.072.072-.072.143-.143.072-.143.072-.072.072-.072.072-.072.072-.143.072-.072.072-.072.072-.072.143-.143.072-.143.072-.072.072-.143.072-.072.143-.143.072-.143.072-.072.072-.072.072-.143.072-.072.072-.072.072-.143.072-.072.072-.072.072-.143.072-.072.072-.072.072-.143.072-.072.072-.143.072-.072.143-.143.072-.143.072-.072.072-.143.072-.072.072-.072.072-.143.072-.143.143-.143.072-.143.072-.072.072-.143.072-.072.072-.143.071-.072.072-.143.072-.072.072-.143.072-.072.072-.143.072-.072.072-.143.072-.072.072-.143.072-.072.071-.143h.072l.072.072.072.072.072.072.072.072.072.072.072.072.072.072.143.072.072.072.072.072.143.143.143.072.143.072.072.072.072.072.143.072.072.072.143.072.072.072.143.072.072.072.143.071.072.072.143.072.143.072.143.143.215.072.072.072.143.072.072.072.143.072.143.072.072.072.143.072.072.072.143.072.072.072.215.143.143.072.143.072.143.072.072.072.143.072.072.072.143.072.072.072.143.072.072.072.143.072.072.072.143.072.072.072.143.072.072.072.143.072.072.072.143.072.072.072.072.072.143.072.143.143.143.072.072.072.143.072.072.072.143.143.143.072.072.072.072.072.143.072.071.072.072.072.143.143.072.072.143.072.072.072.072.072.072.072.143.072.072.072.072.072.072.072.072.072.072.072.072.072.072.072.072.072.072.072.072.072.072.072.072.072.072.143.072.072.072.072.072.072.072.143.143.143.072.072.072.143.072.072.072.144.072.072.072.215.072.072.072.143.072.143.072.215.072.143.072.287.072.215v.072l-.072.072-.072.072-.072.072-.072.072-.072.072-.072.072-.072.072-.072.072-.072.072-.072.072-.072.072-.143.072-.072.072-.072.072-.143.072-.143.143-.072.072-.072.072-.143.072-.072.072-.143.072-.072.072-.143.072-.143.143-.072.072-.143.072-.072.072-.072.072-.072.072-.143.072-.072.072L-41,361.4l-.143.143-.072.072-.143.072-.072.072-.143.072-.143.143-.143.072-.072.072-.072.072-.143.072-.072.072-.072.072-.143.072-.072.072-.072.072-.143.072-.143.143-.072.072-.143.072-.072.072-.143.072-.143.143-.072.072-.072.072-.072.072-.143.072-.072.072-.072.072-.072.072-.143.072-.143.143-.143.143-.072.072-.072.072-.072.072-.072.072-.072.072-.072.072-.072.072-.072.072-.071.072-.072.072-.072.072-.072.072-.072.072-.072.072-.072.072-.072.072-.072.072-.072.143-.072.072-.072.072-.072.143-.072.072-.072.072-.072.143-.072.143-.072.143-.071.072-.072.215-.072.144-.072.43v.5l.072.43.072.143.072.143.071.143.072.144.072.071.072.072.072.072.072.143.143.143.143.143.072.072.072.072.072.072.072.072.143.072.072.072.143.143.143.072.072.072.143.072.072.072.143.072.143.072.143.072.072.072.215.143.215.072.072.072.215.072.072.072.215.072.143.072.215.072.072.072.215.072.143.072.215.072.143.072.215.072.143.072.287.072.143.072.215.072.143.072.287.072.143.072.286.072.143.072.358.072.143.072.358.072.143.072.43.072.143.072.43.072.143.072.43.072.287.072.43.072.287.072.5.072h1.719l.287-.072.072-.072.143-.072.143-.072.072-.072.072-.072.072-.072.072-.072.072-.072.072-.143.071-.143.072-.143.072-.287.072-.287v-.43l-.072-.358-.072-.358-.072-.143-.071-.215-.072-.072-.072-.215-.143-.143-.072-.072-.072-.072-.072-.072-.072-.072-.072-.072-.072-.072-.143-.072-.072-.072-.215-.072-.072-.072-.215-.072-.215-.071-.143-.072-.215-.072-.143-.072-.287-.072-.143-.072-.287-.072-.143-.072-.286-.072-.215-.072-.287-.072-.143-.072-.358-.072-.143-.072-.358-.072-.143-.072-.358-.072-.143-.072-.358-.072-.143-.072-.287-.072-.215-.072-.358-.072-.143-.072-.286-.072-.143-.072-.286-.072-.143-.072-.286-.072-.072-.072-.287-.072-.143-.072-.143-.072-.143-.072-.143-.143v-.072l.143-.143.143-.143.143-.143.072-.143.072-.072.072-.072.072-.072.072-.072.072-.143.072-.072.071-.072.143-.143.072-.143.143-.143.072-.072.072-.143.072-.072.072-.072.143-.143.072-.143.072-.072.072-.143.072-.072.143-.143.072-.143.072-.072.072-.143.072-.072.072-.143.072-.072.072-.143.072-.072.143-.143.072-.144.072-.143.072-.143.072-.072.072-.143.072-.072.072-.143.072-.072.072-.215.072-.072.072-.143.072-.072.072-.215.072-.072.072-.215.072-.072.072-.215.072-.072.072-.215.072-.143.072-.215.072-.143.072-.287.072-.215.072-.43.072-.43v-.358l-.072-.358-.072-.359-.072-.143-.072-.143-.072-.143-.072-.215-.072-.072-.072-.143-.072-.143-.072-.143-.072-.072-.072-.143-.072-.072-.072-.143-.072-.072-.072-.143-.072-.072-.072-.143-.072-.072-.072-.143-.072-.072-.072-.143-.072-.072-.072-.143-.143-.143-.072-.072-.072-.143-.072-.072-.072-.143-.143-.143-.143-.143-.072-.072-.072-.143-.072-.072-.072-.072-.072-.072-.072-.143-.143-.143-.143-.143-.143-.143-.072-.072-.072-.072-.072-.072-.072-.072-.072-.072-.072-.072-.072-.072-.071-.072-.072-.072-.072-.072-.072-.072-.072-.072-.072-.072-.072-.072-.072-.072-.072-.072-.072-.072-.072-.072-.072-.072-.072-.072-.072-.072-.072-.071-.072-.072-.072-.072-.072-.072-.143-.143-.143-.143-.143-.072-.072-.072-.072-.072-.072-.072-.143-.072L-43.22,350l-.143-.143-.143-.072-.072-.072-.072-.072-.143-.072-.143-.143-.143-.072-.072-.072-.143-.072-.072-.072-.143-.072-.072-.072-.215-.143-.215-.072-.071-.072-.143-.072-.143-.072-.143-.072-.143-.072-.215-.072-.072-.072-.287-.072-.143-.072-.358-.072-.358-.072-.358-.072.143-.072.072-.072.072-.072.143-.072.072-.072.143-.072.143-.072.072-.072.072-.072.143-.072.143-.072.072-.072.072-.072.072-.072.143-.072.143-.072.072-.072.072-.072.143-.072.072-.072.143-.072.072-.072.143-.072.072-.072.143-.072.072-.072.143-.072.072-.072.143-.072.072-.072.143-.072.072-.072.143-.072.072-.072.143-.072.072-.072.143-.072.072-.072.143-.072.072-.072.143-.072.143-.072.143-.072.215-.143.072-.072.143-.072.072-.072.143-.072.072-.072.143-.072.143-.072.143-.072.072-.072.215-.072.215-.143.071-.072.143-.072.072-.072.215-.072.072-.072.143-.072.143-.072.143-.072.215-.072.143-.072.215-.072.143-.072h.358l.072.072.072.072.072.072.072.072.072.072.072.072.072.072.072.072.072.072.072.072.072.072.072.072.072.072.072.072.072.072.072.072.143.143.143.143.143.143.143.072.072.072.072.072.072.072.072.072.072.072.143.072.072.072.072.072.072.072.143.143.143.072.072.072.072.072.143.072.072.072.072.072.072.072.143.072.072.072.072.072.143.072.072.072.143.072.072.072.143.143.143.072.143.072.143.072.072.072.143.072.072.072.143.072.143.072.143.072.143.072.143.072.215.072.215.072.287.072h.86l.215-.072.072-.072.072-.072.072-.072.072-.215v-.645l-.072-.143-.072-.215-.072-.143-.072-.143-.072-.143-.072-.143-.072-.072-.072-.143-.072-.072-.072-.143-.072-.072-.072-.143-.072-.072-.072-.143-.143-.143-.072-.072-.072-.143-.072-.072-.072-.072-.072-.072-.071-.143-.143-.143-.072-.072-.072-.072-.072-.072-.072-.072-.072-.072-.072-.072-.072-.143-.072-.072-.143-.143-.143-.143-.143-.143-.143-.143-.143-.143-.143-.143-.143-.143-.143-.143-.143-.143-.143-.143-.143-.143-.143-.143-.143-.143-.143-.143-.143-.072-.072-.072-.072-.072-.072-.072-.072-.072-.072-.072-.072-.072-.072-.072-.143-.143-.143-.143-.143-.072-.072-.072-.072-.072-.072-.072-.072-.072-.072-.072-.143-.072-.072-.072-.072-.072-.072-.072-.143-.143-.143-.143-.143-.072-.072-.072-.143-.072-.072-.072-.143-.072h-.86l-.215.072Z" fill="#3e2a85"/>
    <path id="Path_1801" data-name="Path 1801" d="M508.357,351.75l-.358.072-.143.072-.287.072-.143.072-.143.072-.143.072-.143.072-.072.072-.143.072-.072.072-.072.072-.072.072-.072.072-.072.072-.072.072-.072.072-.072.143-.072.072-.072.143-.072.072-.072.143-.072.143-.072.215-.072.215-.072.5v1.505H509.5l.072-.072.072-.215.072-.072.072-.072.143.143.072.072.072.215h4.012v-.215l-.072-.143-.072-.359-.072-.143-.072-.287-.072-.143-.072-.287-.072-.143-.072-.215-.072-.072-.072-.143-.072-.072-.072-.143-.071-.072-.072-.143-.072-.072-.072-.143-.072-.072-.072-.072-.072-.072-.072-.072-.072-.072-.072-.072-.072-.072-.072-.072-.072-.072-.072-.072-.072-.072-.072-.072-.072-.072-.143-.072-.072-.072-.072-.072-.143-.072-.143-.072-.143-.072-.143-.072-.43-.072-.43-.072h-1.648l-.287.072Z" transform="translate(-452.28 -10.136)" fill="#000101"/>
    <path id="Path_1802" data-name="Path 1802" d="M-16.206,345.529l-.287.072-.143.072-.215.072-.072.072-.143.072-.072.072-.143.072-.072.072-.072.072-.072.072-.072.072-.072.072-.072.072-.072.072-.072.143-.072.072-.143.143-.072.143-.072.143-.072.143-.072.143-.072.215-.072.143-.072.287-.072.215-.072.43v1.577l.072.5.072.215.072.358.072.143.072.287.072.143.072.215.072.143.072.143.072.143.072.072.072.143.072.143.143.143.072.072.072.072.072.072.072.072.143.143.143.072.143.072.143.072.143.072.358.072h1l.43-.072.215-.072.215-.072.143-.072.215-.072.072-.072.143-.072.072-.072.143-.072.143-.072.143-.072.143-.143.072-.072.143-.072.072-.072.072-.072.072-.072.072-.072.072-.072.072-.072.072-.072.143-.143.071-.143.072-.072.072-.215.072-.143v-1.506l-.072-.287-.072-.43-.072-.143-.071-.358-.072-.143-.072-.215-.072-.143-.072-.215-.072-.143-.072-.143-.072-.143-.072-.143-.072-.072-.072-.215-.071-.072-.072-.143-.072-.072-.072-.143-.143-.143-.072-.072-.072-.143-.072-.072-.072-.072-.072-.072-.072-.072-.072-.072-.072-.072-.072-.072-.143-.072-.072-.072-.143-.072-.072-.072-.143-.072-.143-.072-.287-.072-.287-.072h-.5l-.287.072Z" transform="translate(-36.686 -5.205)" fill="#3e2a85"/>
    <path id="Path_1803" data-name="Path 1803" d="M472.82,379.127l.072.287.072.215.072.287.072.215.072.287.072.143.072.358.072.143.072.287.072.215.072.287.072.143.072.358.072.143.072.287.072.215.072.287.072.143.072.358.072.143.072.287.072.143.072.358.072.143.072.359.072.143.072.287.072.143.072.358.071.143.072.287.072.215.072.215.072.143.072.215.072.072.072.143.072.143.072.143.072.072.072.143.072.072.072.143.143.143.143.143.143.143.143.143.143.072.072.072.072.072.143.072.143.143.287.072.143.072.215.072.215.072.43.072.287.072h1.863l.215-.072.358-.072.143-.072.215-.072.143-.072.215-.072.072-.072.215-.072.072-.072.143-.072.072-.143.072-.072.072-.143.072-.072.072-.215.072-.143.072-.287.072-.143.072-.358.072-.215.072-.5.072-.287.072-.717.072-.43.072-1.075.072-.789.072-3.011v-1.434h-3.94l-.072,6.452-.072.072-.072.215-.072.072H479.2l-.072-.072-.143-.072-.072-.143-.072-.072-.072-.287-.072-.143-.072-.287-.072-.143-.072-.287-.072-.143-.072-.359-.072-.143-.072-.358-.072-.215-.072-.287-.072-.215-.072-.358-.072-.143-.072-.43-.072-.144-.072-.358-.072-.215-.072-.358-.072-.215-.072-.358-.072-.215-.072-.358-.072-.287-.072-.143H472.82v.143Z" transform="translate(-426.271 -31.778)" fill="#000101"/>
    <path id="Path_1804" data-name="Path 1804" d="M91.46,379.127l-.072.143-.072.287-.072.143-.072.215-.072.215-.072.215-.072.143-.072.287-.072.143-.072.287-.072.143-.072.287-.072.143-.072.287-.072.143-.072.287-.072.143-.072.287-.072.215-.072.215-.072.287-.072.143-.072.215-.072.143-.072.287-.072.143-.072.287-.072.143-.072.287-.072.143-.072.287-.072.143-.072.287-.072.143-.072.287-.072.143-.072.358-.072.143-.072.287-.072.143-.072.287-.072.143-.072.287-.072.143-.071.287-.072.143-.072.359-.072.143v.287h17.553v-.358l-.072-.143-.072-.287-.072-.143-.072-.287-.072-.143-.072-.287-.071-.143-.072-.287-.072-.143-.072-.287-.071-.215-.072-.287-.072-.143-.072-.287-.072-.215-.072-.215-.072-.215-.072-.215-.072-.215-.072-.215-.072-.215-.072-.215-.072-.215-.072-.215-.072-.215-.072-.143-.072-.287-.072-.143-.072-.287-.072-.143-.072-.287-.072-.143-.072-.287-.072-.143-.072-.287-.072-.143-.072-.287-.072-.143-.072-.287-.072-.143-.072-.287-.072-.143-.072-.287-.072-.143-.072-.215-.072-.215-.072-.215-.072-.143-.072-.143h-4.3v.143l.072.143.072.215.072.143.072.287.072.143.072.287.072.143.072.287.072.143.072.287.072.143.072.287.072.143.072.215.072.143.072.287.072.143.072.287.072.143.072.287.072.143.072.287.072.143.072.215.072.143.072.287.072.143.072.287.072.215.072.215.072.287.072.143.072.215-6.674,0,.082-.14.072-.143.072-.287.072-.143.072-.287.072-.143.072-.287.072-.143.072-.287.072-.143.072-.287.072-.143.072-.215.072-.215.072-.215.072-.215.072-.215.072-.215.072-.215.072-.215.072-.215.072-.287.072-.072.072-.287.072-.143.072-.287.072-.143.072-.287.072-.143.072-.287.072-.143.072-.287.072-.143v-.143h-4.3l-.072.143Z" transform="translate(-121.284 -31.778)" fill="#000101"/>
    <path id="Path_1805" data-name="Path 1805" d="M529.123,379.127l.072.143.072.287.072.143.072.358.072.143.072.358.072.143.072.287.072.215.072.359.072.143.072.287.072.143.072.358.072.143.072.358.072.143.072.358.072.143.072.287.072.143.072.359.072.143.072.359.072.143.072.287.072.215.072.358.072.143.072.287.072.143.072.358.072.215.072.287.072.287.072.215.072.287.071.143.072.287.072.215.072.287.072.215.072.287.072.143h4.012v-.143l-.072-.215-.072-.287-.072-.215L536,388.59l-.072-.215-.072-.287-.072-.143-.071-.358-.072-.143-.072-.287-.072-.143-.072-.358-.072-.143-.072-.358-.072-.143-.072-.287-.072-.215-.072-.287-.072-.215-.072-.287-.072-.143-.072-.358-.072-.143-.072-.287-.072-.143-.072-.358-.072-.143-.072-.358-.072-.143-.072-.287-.072-.215-.072-.287-.072-.215-.072-.287-.072-.143-.072-.287-.072-.215-.072-.287-.072-.215-.072-.287-.072-.143-.072-.358-.072-.143-.072-.287h-4.012v.143Z" transform="translate(-470.897 -31.778)" fill="#000101"/>
    <path id="Path_1806" data-name="Path 1806" d="M569.192,385.436l.072.358.072.43.072.143.072.287.072.143.072.215.072.143.072.143.072.143.072.143.072.072.072.143.072.072.072.143.143.143.072.072.072.072.072.072.072.072.072.072.072.072.072.072.072.072.143.143.143.072.072.072.143.072.072.072.215.072.072.072.215.072.143.072.287.072.215.072h10.89v-3.512l-9.385-.073-.143-.072-.072-.072-.143-.072-.143-.072-.072-.072-.072-.072-.072-.143-.072-.143-.072-.072-.072-.215-.072-.143-.072-1.505h10.46v-3.728h-10.46v-.645h-3.869v6.452Z" transform="translate(-502.655 -31.778)" fill="#000101"/>
    <path id="Path_1807" data-name="Path 1807" d="M374.03,389.737h3.8V378.984h-3.8v10.753Z" transform="translate(-347.971 -31.778)" fill="#000101"/>
    <path id="Path_1808" data-name="Path 1808" d="M276.621,379.2l.072.072.072.143.072.072.072.143.072.072.072.143.072.072.072.143.072.072.072.143.072.072.072.143.072.072.072.143.072.072.072.215.143.143.072.143.072.143.143.143.072.143.072.143.072.072.072.143.071.072.072.143.072.072.072.143.072.143.072.072.072.143.072.072.072.143.072.072.072.143.072.072.072.143.072.072.072.143.072.072.072,5.95h3.869l.072-6.022.072-.072.072-.143.072-.072.072-.143.072-.072.072-.143.072-.072.072-.143.072-.072.072-.071.072-.144.143-.143.072-.143.072-.072.072-.143.072-.072.072-.143.072-.072.072-.143.072-.072.072-.143.072-.072.072-.143.072-.072.072-.143.072-.072.072-.143.072-.072.072-.143.072-.072.072-.072.072-.143.143-.143.072-.143.072-.143.072-.072.072-.072.072-.143.072-.072.072-.143.072-.072.072-.143.072-.072v-.072h-4.585l-.072.072-.072.072-.143.143-.072.143-.072.072-.358.072-.072-.072-.072-.143-.072-.072-.072-.143-.072-.072-.072-.072h-4.442v.215Z" transform="translate(-270.766 -31.778)" fill="#000101"/>
    <path id="Path_1809" data-name="Path 1809" d="M424.461,389.737h3.869V378.984h-3.869v10.753Z" transform="translate(-387.943 -31.778)" fill="#000101"/>
    <path id="Path_1810" data-name="Path 1810" d="M448.64,389.737h3.94V378.984h-3.94v10.753Z" transform="translate(-407.107 -31.778)" fill="#000101"/>
    <path id="Path_1811" data-name="Path 1811" d="M588.19,416.441v.072h10.46v-3.656h-9.457l9.385.073v3.512Z" transform="translate(-517.713 -58.626)" fill="#fff"/>
    <path id="Path_1812" data-name="Path 1812" d="M177.831,389.737H181.7v-8.961l-.072-1.792h-3.8v10.753Z" transform="translate(-192.466 -31.778)" fill="#000101"/>
    <path id="Path_1813" data-name="Path 1813" d="M201.665,379.2l.072.143.072.358.072.143.072.287.072.143.072.358.072.143.072.358.072.143.072.287.072.143.072.358.072.143.072.358.072.144.072.287.072.143.072.358.072.143.072.287.072.143.072.359.072.143.072.359.072.143.072.287.072.143.072.358.072.143.072.358.072.143.072.287.072.143.072.215.072.143.072.143.072.143.072.143.072.143.072.072.072.143.072.072.072.143.143.143.072.072.072.072.071.072.072.072.143.143.143.072.072.072.072.072.072.072.143.072.072.072.215.072.143.072.215.072.143.072.358.072.215.072,1.719.072h.645l.5-.072.143-.072.215-.072.072-.072.215-.072.072-.072.143-.072.072-.072.143-.072.072-.072.143-.072.143-.143.143-.143.143-.143.143-.143.072-.143.072-.072.072-.143.072-.072.072-.215.072-.072.072-.287.072-.143v-8.316h-3.869l-.072,6.6-.072.072-.072.072-.072.072h-.287l-.072-.072-.143-.143-.072-.072-.072-.143-.072-.143-.072-.287-.072-.143-.072-.287-.072-.215-.072-.287-.072-.143-.072-.358-.072-.143-.072-.358-.072-.215-.072-.287-.072-.215-.072-.359-.072-.215-.072-.358-.072-.143-.072-.43-.072-.143-.072-.358-.072-.215-.072-.358-.072-.215-.072-.358-.072-.143h-4.227v.215Z" transform="translate(-211.356 -31.778)" fill="#000101"/>
    <path id="Path_1814" data-name="Path 1814" d="M356.758,443.805h.072v.072H360.7v-.072H356.83v-3.3h-.072v3.3Z" transform="translate(-334.282 -80.542)" fill="#fff"/>
    <path id="Path_1815" data-name="Path 1815" d="M564.041,440.58l-.143.072-.358.072-.143.072-.215.072-.143.072-.143.072-.143.072-.072.072-.143.072-.072.072-.072.072-.143.072-.072.072-.072.072-.072.072-.072.072-.072.072-.072.143-.072.072-.072.072-.072.144-.072.143-.072.143-.072.143-.072.287-.072.287v.645h4.227l.143-.143.072-.072.143-.072.215-.072,11.176-.072v-2.939H564.758l-.716.072Z" transform="translate(-496.358 -80.542)" fill="#000101"/>
    <path id="Path_1816" data-name="Path 1816" d="M392.406,440.234l-.645.072-.215.072-.286.072-.143.072-.215.072-.215.072-.143.072-.143.072-.072.072-.143.072-.072.072-.143.072-.072.072-.143.072-.143.143-.143.143-.072.143-.072.072-.072.072-.072.072-.072.143-.072.072-.143.143-.072.215-.072.072-.072.143-.072.143-.072.358v.43h4.084l.072-.072.143-.072.072-.072.143-.072.072-.072.215-.072.143-.072,9.6-.072v-2.868h-.645l-10.03.072Z" transform="translate(-359.469 -80.267)" fill="#000101"/>
    <path id="Path_1817" data-name="Path 1817" d="M357.1,443.805h3.869v-3.3H357.1v3.3Z" transform="translate(-334.556 -80.542)" fill="#000101"/>
    <path id="Path_1818" data-name="Path 1818" d="M105.433,440.234l-.645.072-.215.072-.358.072-.143.072-.215.072-.143.072-.143.072-.143.072-.143.072-.143.072-.072.072-.072.072-.072.072-.143.072-.072.072-.072.072-.072.072-.072.072-.072.072-.072.072-.143.143-.072.144-.072.072-.072.143-.072.072-.072.143-.072.072-.072.215-.072.072-.072.287-.072.215v.287l.072.072h4.084l.072-.072.143-.072.072-.072.072-.072.072-.072.215-.072.215-.072,9.528-.072v-2.868h-.573l-10.03.072Z" transform="translate(-131.961 -80.267)" fill="#000101"/>
    <path id="Path_1819" data-name="Path 1819" d="M216.518,443.3h14.4v-2.8h-14.4v2.8Z" transform="translate(-223.128 -80.542)" fill="#000101"/>
    <path id="Path_1820" data-name="Path 1820" d="M474.232,440.58l-.143.072-.358.072-.143.072-.215.072-.143.072-.143.072-.143.072-.143.072-.072.072-.072.072-.143.072-.072.072-.072.072-.072.072-.072.072-.072.072-.072.072-.072.072-.072.072-.072.143-.072.072-.072.143-.072.143-.072.215-.072.143-.072.43v.645h4.227l.072-.143.072-.072.215-.072.215-.072,11.176-.072v-2.939H474.877l-.645.072Z" transform="translate(-425.176 -80.542)" fill="#000101"/>
    <path id="Path_1821" data-name="Path 1821" d="M216.244,440.234h14.4v2.8h-14.4v-2.8Zm-.072,2.867h14.544v-2.939H216.172V443.1Z" transform="translate(-222.854 -80.267)" fill="#fff"/>
    <path id="Path_1822" data-name="Path 1822" d="M185.084,443.6h3.8v-.072h-3.725v-3.3h3.725v-.072h-3.8V443.6Z" transform="translate(-198.215 -80.267)" fill="#fff"/>
    <path id="Path_1823" data-name="Path 1823" d="M189.155,443.805v-3.3H185.43v3.3Z" transform="translate(-198.489 -80.542)" fill="#000101"/>
    <path id="Path_1824" data-name="Path 1824" d="M301.45,440.234l-.5.072-.215.072-.287.072-.143.072-.287.072-.072.072-.143.072-.072.072-.072.072-.072.072-.072.072-.072.143-.072.072-.143.143-.072.143-.072.143-.072.143-.072.072-.072.215-.072.143-.072.43v1l6.735.072h2.221v-.215l-.072-.143-.072-.143-.072-.143-.143-.143-.072-.143-.072-.143-.143-.143-.072-.072-.072-.143-.072-.072-.072-.072-.072-.072-.072-.143-.072-.072-.072-.072-.072-.072-.071-.072-.072-.072-.072-.072-.072-.072-.072-.072-.143-.143-.143-.072-.072-.072-.143-.072-.072-.072-.143-.072-.072-.072-.143-.072-.143-.072-.215-.072-.215-.072-.143-.072-.286-.072-.287-.072-.573-.072-.86-.072h-.358l-.573.072Z" transform="translate(-288.287 -80.267)" fill="#000101"/>
    <path id="Path_1825" data-name="Path 1825" d="M101.838,470.4h3.8v-5.018h10.6v-2.867l-10.532-.073v-.5h-3.869V470.4Z" transform="translate(-132.234 -97.526)" fill="#000101"/>
    <path id="Path_1826" data-name="Path 1826" d="M472.474,462.152l.072.072.072.143.143.143.143.143.143.072.072.072.072.072.072.072.072.072.072.072.143.072.072.072.143.143.143.072.143.072.143.072.143.072.143.072.143.072.215.072.143.072.215.072.143.072.358.072.143.072.358.072.143.072.287.072.143.072.358.072.143.072.287.072.143.072.358.072.143.072.287.072.143.072.358.072.143.072.286.072.143.072.358.072.143.072.287.072.215.072.287.072.143.072.287.072.215.072.287.072.143.072.286.072.215.072.287.071.215.072.215.072.358.072.143.072.287.072.143.072.143.143.072.143v.287l-.072.072-.215.143-10.961.072v3.011h12.394l.287-.072.287-.072.215-.072.143-.072.143-.072.143-.072.143-.072.143-.072.143-.143.072-.072.072-.072.072-.072.072-.072.072-.072.072-.072.072-.072.072-.072.143-.143.072-.143.072-.072.072-.215.072-.072.072-.215.072-.143.072-.43v-1.147l-.072-.43-.072-.143-.072-.215-.072-.072-.072-.143-.072-.143-.072-.143-.143-.143-.072-.072-.072-.143-.072-.072-.072-.072-.072-.072-.072-.072-.072-.072-.143-.072-.072-.072-.143-.143-.143-.072-.072-.072-.143-.072-.072-.072-.215-.072-.072-.072-.215-.072-.143-.072-.215-.072-.143-.072-.287-.072-.143-.072-.358-.072-.143-.072-.287-.072-.215-.072-.358-.072-.143-.072-.287-.072-.143-.072-.358-.072-.143-.072-.358-.072-.143-.072-.287-.072-.215-.072-.287-.072-.215-.072-.286-.072-.215-.072-.287-.072-.215-.072-.215-.072-.287-.072-.215-.072h-6.806v.215Z" transform="translate(-425.997 -97.526)" fill="#000101"/>
    <path id="Path_1827" data-name="Path 1827" d="M406.987,468.586v-.215l-.072-1h10.675v-2.939l-.072-.072h-10.6l10.6.072V467.3h-10.46c-.165,0-.215.05-.215.215v.717a.376.376,0,0,0,.143.358Z" transform="translate(-373.979 -99.444)" fill="#fff"/>
    <path id="Path_1828" data-name="Path 1828" d="M322.907,462.081l.072.143.072.287.072.072.072.215.072.143.072.287.072.143.072.215.072.143.072.215.072.143.072.287.072.072.072.287.072.072.072.287.072.143.072.215.071.143.072.215.072.143.072.215.072.143.072.287.072.215.072.143.072.215.072.143.072.215.072.143.072.215.072.143.072.215.072.143.072.143.072.072.072.143.072.143.072.072.072.072.072.072.072.072.072.143.143.072.072.072.072.072.072.072.072.072.072.072.143.072.072.072.143.072.143.072.143.072.143.072.215.072.143.072.358.072.215.072.788.072h2.149l.358-.072.215-.072.215-.072.143-.072.143-.072.143-.072.143-.072.072-.072.143-.072.072-.072.143-.072.072-.072.072-.072.072-.072.072-.072.072-.072.072-.072.072-.072.072-.072.072-.072.072-.143.072-.143.072-.215.072-.143v-6.524h-3.94l-.072,5.161-.072.143-.072.072h-.43l-.072-.072-.072-.072-.072-.072-.072-.072-.072-.215-.072-.072-.072-.287-.072-.072-.072-.287-.072-.072-.072-.287-.072-.143-.072-.287-.072-.143-.072-.215-.072-.215-.072-.215-.072-.215-.072-.215-.072-.215-.072-.215-.072-.215-.072-.215-.072-.215-.072-.215-.072-.215-.072-.215-.072-.143-.072-.287h-4.3v.143Z" transform="translate(-307.452 -97.526)" fill="#000101"/>
    <path id="Path_1829" data-name="Path 1829" d="M388.537,466.956l.072.5.072.215.072.215.072.143.072.215.071.072.072.143.072.072.072.143.072.072.072.143.143.144.143.143.143.143.143.144.143.072.072.072.143.072.072.072.143.072.072.072.215.072.071.072.215.072.143.072.287.072.215.072h.43l.788.072h10.1V467.6l-9.314-.073-.215-.072-.215-.072-.215-.072-.072-.072-.072-.072-.072-.072-.072-.072-.072-.072-.072-.143-.072-.072-.072-.072a.376.376,0,0,1-.143-.358v-.717c0-.165.05-.215.215-.215h10.46v-2.868l-10.6-.072v-.5h-3.869v5.018Z" transform="translate(-359.469 -97.527)" fill="#000101"/>
    <path id="Path_1830" data-name="Path 1830" d="M405.808,491.693v.072l.358.072h10.6V488.9h-9.385l9.314.073v2.795H406.6l-.788-.072Z" transform="translate(-373.158 -118.894)" fill="#fff"/>
    <path id="Path_1831" data-name="Path 1831" d="M101.493,470.4h.072v.072h3.869V465.45h10.6v-3.011h-10.6l10.532.073v2.867h-10.6V470.4h-3.8v-8.459h-.072V470.4Z" transform="translate(-131.961 -97.526)" fill="#fff"/>
    <path id="Path_1832" data-name="Path 1832" d="M246.15,470.468v-8.531h-3.725v8.531Z" transform="translate(-243.662 -97.526)" fill="#000101"/>
    <path id="Path_1833" data-name="Path 1833" d="M302.8,461.938h-3.725v8.531h3.8l.018-2.438-.089-6.093Z" transform="translate(-288.561 -97.526)" fill="#000101"/>
    <path id="Path_1834" data-name="Path 1834" d="M185.084,470.54h3.8v-8.6h-3.8v8.6Z" transform="translate(-198.215 -97.526)" fill="#000101"/>
    <path id="Path_1835" data-name="Path 1835" d="M242.079,470.54h3.8v-.072h.072v-8.531h-.072v8.531h-3.725v-8.531h-.072v8.6Z" transform="translate(-243.388 -97.526)" fill="#fff"/>
    <path id="Path_1836" data-name="Path 1836" d="M298.728,470.54h3.94v-5.663l-.072-2.939h-.072l.089,6.093-.018,2.438h-3.8v-8.531h-.072v8.6Z" transform="translate(-288.287 -97.526)" fill="#fff"/>
    <path id="Path_1837" data-name="Path 1837" d="M562.284,462.081l.072.143.072.072.072.072.072.072.072.072.072.072.072.072.072.072.072.072.072.072.072.072.072.072.072.072.143.072.072.072.143.072.072.072.143.072.072.072.143.072.143.072.143.072.143.072.215.072.143.072.287.072.143.072.287.072.215.072.286.072.143.072.287.072.143.072.358.072.143.072.358.072.143.072.287.072.143.072.287.072.215.072.287.072.143.072.287.072.215.072.286.072.143.072.358.072.143.072.287.072.143.072.287.072.215.072.286.072.215.072.287.072.143.072.287.071.215.072.215.072.358.072.143.072.287.072.143.072.143.143.072.072v.358l-.072.143-.215.072-10.89.072-.072.072v2.939h12.394l.286-.072.358-.072.143-.072.215-.072.143-.072.072-.072.143-.072.143-.072.072-.072.072-.072.072-.072.143-.072.072-.072.072-.072.072-.072.072-.143.072-.072.072-.072.072-.072.072-.143.072-.072.072-.215.072-.072.072-.215.071-.143.072-.358.072-.43v-.43l-.072-.43-.072-.358-.071-.143-.072-.215-.072-.072-.072-.215-.072-.072-.072-.143-.072-.072-.072-.072-.072-.143-.072-.072-.072-.072-.072-.072-.072-.072-.072-.072-.072-.072-.072-.072-.072-.072-.143-.072-.072-.072-.143-.072-.072-.072-.143-.072-.072-.072-.215-.072-.072-.072-.215-.072-.072-.072-.286-.072-.143-.072-.287-.072-.143-.072-.358-.072-.143-.072-.287-.072-.215-.072-.287-.072-.215-.072-.287-.072-.143-.072-.358-.072-.143-.072-.358-.072-.143-.072-.287-.072-.215-.072-.287-.072-.215-.072-.215-.072-.287-.072-.215-.072-.215-.072-.287-.072-.287-.072-.143-.072h-6.878v.143Z" transform="translate(-497.179 -97.526)" fill="#000101"/>
    <path id="Path_1838" data-name="Path 1838" d="M645.516,487.769a1.56,1.56,0,1,1-1.469,1.558,1.515,1.515,0,0,1,1.469-1.558Z" transform="translate(-561.984 -118)" fill="none" stroke="#1a1818" stroke-width="1"/>
    <path id="Path_1839" data-name="Path 1839" d="M647.72,492.694v-1.832h.812a1.085,1.085,0,0,1,.372.049.41.41,0,0,1,.2.174.522.522,0,0,1,.076.276.458.458,0,0,1-.126.329.639.639,0,0,1-.39.17.618.618,0,0,1,.146.091,1.274,1.274,0,0,1,.2.243l.319.5h-.305l-.242-.381c-.071-.11-.129-.194-.175-.252a.542.542,0,0,0-.123-.122.372.372,0,0,0-.111-.049.78.78,0,0,0-.135-.008h-.281v.814Zm.242-1.024h.521a.771.771,0,0,0,.26-.035.276.276,0,0,0,.143-.11.3.3,0,0,0,.049-.164.272.272,0,0,0-.094-.214.441.441,0,0,0-.3-.084h-.58v.606Z" transform="translate(-564.896 -120.452)" fill="#1a1818"/>
  </g>
</svg>
