<svg xmlns="http://www.w3.org/2000/svg" width="133.78" height="80" viewBox="0 0 133.78 80">
  <g id="AWSLAMBDA" transform="translate(-1.668 -1.1)">
    <path id="Path_1530" data-name="Path 1530" d="M46.269,30.155a13.462,13.462,0,0,0,.489,3.96,23.816,23.816,0,0,0,1.424,3.2,1.935,1.935,0,0,1,.311,1.023,1.762,1.762,0,0,1-.845,1.335l-2.8,1.869a2.133,2.133,0,0,1-1.157.4,2.047,2.047,0,0,1-1.335-.623,13.765,13.765,0,0,1-1.6-2.091c-.445-.756-.89-1.6-1.379-2.625a16.437,16.437,0,0,1-13.081,6.14c-3.737,0-6.719-1.068-8.9-3.2A11.43,11.43,0,0,1,14.1,31a11.454,11.454,0,0,1,4.049-9.166c2.714-2.314,6.318-3.471,10.9-3.471a35.228,35.228,0,0,1,4.716.356c1.646.222,3.337.578,5.117.979V16.45c0-3.382-.712-5.74-2.091-7.119-1.424-1.379-3.826-2.047-7.253-2.047a20.244,20.244,0,0,0-4.805.578,35.453,35.453,0,0,0-4.805,1.513,12.766,12.766,0,0,1-1.557.578,2.729,2.729,0,0,1-.712.133c-.623,0-.934-.445-.934-1.379V6.528a2.815,2.815,0,0,1,.311-1.557,3.332,3.332,0,0,1,1.246-.934,25.616,25.616,0,0,1,5.606-2,26.976,26.976,0,0,1,6.941-.845c5.295,0,9.166,1.2,11.657,3.6,2.447,2.4,3.693,6.051,3.693,10.945V30.155ZM28.2,36.918a14.42,14.42,0,0,0,4.583-.8,9.915,9.915,0,0,0,4.227-2.848,7.062,7.062,0,0,0,1.513-2.848,15.974,15.974,0,0,0,.445-3.871V24.682a37.157,37.157,0,0,0-4.093-.756,33.526,33.526,0,0,0-4.182-.267c-2.981,0-5.161.578-6.63,1.78a6.2,6.2,0,0,0-2.18,5.117,6.211,6.211,0,0,0,1.646,4.716A6.17,6.17,0,0,0,28.2,36.918Zm35.729,4.805a2.484,2.484,0,0,1-1.691-.445,3.626,3.626,0,0,1-.934-1.735L50.852,5.149a7.794,7.794,0,0,1-.4-1.78.976.976,0,0,1,1.068-1.112h4.36a2.466,2.466,0,0,1,1.735.445,3.64,3.64,0,0,1,.89,1.735L65.98,33.892,72.921,4.437A3.121,3.121,0,0,1,73.766,2.7a3.061,3.061,0,0,1,1.78-.445h3.56a2.678,2.678,0,0,1,1.78.445,3,3,0,0,1,.845,1.735l7.03,29.811,7.7-29.811a3.815,3.815,0,0,1,.89-1.735,2.9,2.9,0,0,1,1.735-.445h4.138a.989.989,0,0,1,1.112,1.112,4.437,4.437,0,0,1-.089.712,6.331,6.331,0,0,1-.311,1.112L93.21,39.587a3.412,3.412,0,0,1-.934,1.735,2.847,2.847,0,0,1-1.691.445H86.758a2.678,2.678,0,0,1-1.78-.445,3.154,3.154,0,0,1-.845-1.78l-6.9-28.7L70.385,39.5a3.473,3.473,0,0,1-.845,1.78,2.758,2.758,0,0,1-1.78.445Zm57.175,1.2a29.444,29.444,0,0,1-6.852-.8,20.241,20.241,0,0,1-5.117-1.78A3.206,3.206,0,0,1,107.76,39.1a3.141,3.141,0,0,1-.267-1.246V35.583c0-.934.356-1.379,1.023-1.379a2.519,2.519,0,0,1,.8.133c.267.089.667.267,1.112.445a24.2,24.2,0,0,0,4.894,1.557,26.721,26.721,0,0,0,5.295.534,12,12,0,0,0,6.5-1.468,4.791,4.791,0,0,0,2.314-4.227,4.333,4.333,0,0,0-1.2-3.115,11.164,11.164,0,0,0-4.494-2.314l-6.452-2c-3.248-1.023-5.651-2.536-7.119-4.538a10.6,10.6,0,0,1-2.225-6.452,9.9,9.9,0,0,1,1.2-4.939,11.44,11.44,0,0,1,3.2-3.648,14.122,14.122,0,0,1,4.627-2.314,19.392,19.392,0,0,1,5.606-.756,22.336,22.336,0,0,1,2.981.178c1.023.133,1.958.311,2.892.489.89.222,1.735.445,2.536.712a9.711,9.711,0,0,1,1.869.8,3.848,3.848,0,0,1,1.335,1.112,2.4,2.4,0,0,1,.4,1.468V7.952c0,.934-.356,1.424-1.023,1.424a4.628,4.628,0,0,1-1.691-.534,20.355,20.355,0,0,0-8.543-1.735,11.484,11.484,0,0,0-5.918,1.246,4.3,4.3,0,0,0-2.091,3.96,4.2,4.2,0,0,0,1.335,3.159,13.29,13.29,0,0,0,4.894,2.447l6.318,2c3.2,1.023,5.517,2.447,6.9,4.271a10.068,10.068,0,0,1,2.047,6.229,11.438,11.438,0,0,1-1.157,5.161,11.966,11.966,0,0,1-3.248,3.915,14.342,14.342,0,0,1-4.939,2.492A21.158,21.158,0,0,1,121.108,42.924Z" transform="translate(-6.901)" fill="#252f3e"/>
    <g id="Group_513" data-name="Group 513" transform="translate(1.668 50.974)">
      <path id="Path_1531" data-name="Path 1531" d="M122.617,130.069c-14.638,10.812-35.907,16.552-54.194,16.552A98.042,98.042,0,0,1,2.261,121.393c-1.379-1.246-.133-2.937,1.513-1.958A133.431,133.431,0,0,0,69.98,137.01a132.118,132.118,0,0,0,50.5-10.323C122.928,125.575,125.019,128.29,122.617,130.069Z" transform="translate(-1.668 -116.495)" fill="#f90"/>
      <path id="Path_1532" data-name="Path 1532" d="M264.324,119.825c-1.869-2.4-12.369-1.157-17.13-.578-1.424.178-1.646-1.068-.356-2,8.365-5.873,22.113-4.182,23.715-2.225,1.6,2-.445,15.751-8.276,22.336-1.2,1.023-2.358.489-1.824-.845C262.233,132.106,266.193,122.183,264.324,119.825Z" transform="translate(-137.28 -113.192)" fill="#f90"/>
    </g>
  </g>
</svg>
