<svg id="MicrosoftExcel" xmlns="http://www.w3.org/2000/svg" width="99.03" height="96.747" viewBox="0 0 99.03 96.747">
  <path id="path10" d="M51.793,0h6.682V9C69.736,9,81,9.022,92.258,8.966c1.9.079,3.994-.056,5.647,1.08,1.159,1.665,1.024,3.78,1.1,5.692q-.084,29.294-.022,58.565c-.056,3.274.3,6.615-.382,9.843-.45,2.34-3.262,2.4-5.141,2.475-11.655.034-23.32-.022-34.986,0V96.747H51.489c-17.144-3.116-34.323-6-51.489-9V9.011C17.268,6.007,34.536,3.049,51.793,0Z" fill="#207245"/>
  <path id="path48" d="M51.98,11H89.1V81.872H51.98v-6.75h9V67.248h-9v-4.5h9V54.873h-9v-4.5h9V42.5h-9V38h9V30.124h-9v-4.5h9V17.75h-9V11Z" transform="translate(6.495 1.375)" fill="#fff"/>
  <path id="path58" d="M63.98,17H79.729v7.875H63.98V17Z" transform="translate(7.995 2.124)" fill="#207245"/>
  <path id="path72" d="M31.693,26.421q3.814-.27,7.65-.461Q34.837,35.19,30.264,44.4c3.094,6.3,6.255,12.555,9.36,18.854-2.711-.157-5.411-.326-8.122-.517-1.912-4.691-4.241-9.225-5.614-14.129-1.53,4.567-3.712,8.876-5.467,13.353-2.464-.034-4.927-.135-7.391-.236,2.891-5.659,5.681-11.362,8.662-16.987-2.531-5.794-5.31-11.475-7.92-17.234q3.712-.219,7.425-.427c1.676,4.4,3.51,8.741,4.894,13.252,1.485-4.781,3.7-9.281,5.6-13.9Z" transform="translate(1.628 3.244)" fill="#fff"/>
  <path id="path90" d="M63.98,28H79.729v7.875H63.98V28Z" transform="translate(7.995 3.499)" fill="#207245"/>
  <path id="path108" d="M63.98,39H79.729v7.875H63.98V39Z" transform="translate(7.995 4.873)" fill="#207245"/>
  <path id="path114" d="M63.98,50H79.729v7.875H63.98V50Z" transform="translate(7.995 6.248)" fill="#207245"/>
  <path id="path120" d="M63.98,61H79.729v7.875H63.98V61Z" transform="translate(7.995 7.623)" fill="#207245"/>
</svg>
