<svg id="Outlook.com" xmlns="http://www.w3.org/2000/svg" width="103.173" height="104.313" viewBox="0 0 103.173 104.313">
  <path id="path3" d="M64.566,22.116v20.4l7.131,4.49a1.823,1.823,0,0,0,.784,0l30.688-20.69a4.372,4.372,0,0,0-3.573-4.2H64.566Z" fill="#0072c6"/>
  <path id="path5" d="M64.566,50.133l6.508,4.47a1.945,1.945,0,0,0,2.022,0c-1.1.674,30.077-20.036,30.077-20.036v37.5c0,4.082-2.613,5.795-5.552,5.795H64.563V50.133Z" fill="#0072c6"/>
  <g id="g23" transform="translate(-13.481 -41.384)">
    <path id="path25" d="M44.354,82.111a5.993,5.993,0,0,0-5.289,3.123A15.39,15.39,0,0,0,37.106,93.5a15.088,15.088,0,0,0,1.959,8.251,5.949,5.949,0,0,0,10.324.082q1.916-2.95,1.92-8.188,0-5.46-1.861-8.5a5.723,5.723,0,0,0-5.093-3.032Z" fill="#0072c6"/>
    <path id="path27" d="M13.481,53.138v79.827L74.208,145.7V41.384Zm40.636,53.408a12.037,12.037,0,0,1-10.042,5.07,11.883,11.883,0,0,1-9.834-4.909q-3.8-4.913-3.8-12.8,0-8.327,3.859-13.47A12.171,12.171,0,0,1,44.527,75.3a11.607,11.607,0,0,1,9.724,4.921q3.714,4.925,3.714,12.98Q57.971,101.479,54.118,106.546Z" fill="#0072c6"/>
  </g>
</svg>
