<svg id="Pipedrive" xmlns="http://www.w3.org/2000/svg" xmlns:xlink="http://www.w3.org/1999/xlink" width="200" height="67.002" viewBox="0 0 200 67.002">
  <defs>
    <clipPath id="clip-path">
      <rect id="Rectangle_4705" data-name="Rectangle 4705" width="200" height="67.002"/>
    </clipPath>
  </defs>
  <g id="Group_528" data-name="Group 528">
    <g id="Group_515" data-name="Group 515" clip-path="url(#clip-path)">
      <path id="Path_1533" data-name="Path 1533" d="M124.314,125.475a7.661,7.661,0,0,0-5.848,2.382c-.106-.847-.662-1.932-2.831-1.932H110.9v4.922h1.932c.318,0,.423.106.423.423v22.519h5.61v-9.05a7.485,7.485,0,0,0,5.16,1.905c5.478,0,9.315-4.34,9.315-10.585.026-6.324-3.625-10.585-9.024-10.585m-1.138,16.274c-3.017,0-4.393-2.884-4.393-5.583,0-4.234,2.3-5.742,4.472-5.742,2.646,0,4.446,2.276,4.446,5.689-.026,3.916-2.3,5.636-4.525,5.636" transform="translate(-90.364 -102.241)" fill="#203232"/>
    </g>
    <g id="Group_516" data-name="Group 516" clip-path="url(#clip-path)">
      <path id="Path_1534" data-name="Path 1534" d="M237.791,142.972V131.038c0-2.011-.979-2.99-2.964-2.99H229.8v4.922h1.932c.318,0,.423.106.423.423v11.881c0,2.038.953,2.99,2.964,2.99h5.028v-4.9h-1.932c-.291.026-.423-.106-.423-.4" transform="translate(-187.248 -104.337)" fill="#203232"/>
    </g>
    <g id="Group_517" data-name="Group 517" clip-path="url(#clip-path)">
      <path id="Path_1535" data-name="Path 1535" d="M293.091,125.475a7.779,7.779,0,0,0-5.875,2.382c-.106-.847-.662-1.932-2.831-1.932h-4.71v4.922h1.932c.318,0,.423.106.423.423v22.519h5.663v-9.05a7.541,7.541,0,0,0,5.16,1.905c5.478,0,9.315-4.34,9.315-10.585,0-6.324-3.652-10.585-9.076-10.585m-1.138,16.274c-3.017,0-4.393-2.884-4.393-5.583,0-4.234,2.3-5.742,4.472-5.742,2.646,0,4.446,2.276,4.446,5.689,0,3.916-2.276,5.636-4.525,5.636" transform="translate(-227.889 -102.241)" fill="#203232"/>
    </g>
    <g id="Group_518" data-name="Group 518" clip-path="url(#clip-path)">
      <path id="Path_1536" data-name="Path 1536" d="M412.988,125.475c-6.06,0-10.267,4.366-10.267,10.585,0,6.139,4.551,10.585,10.849,10.585a12.27,12.27,0,0,0,8.1-3.043l.238-.212-2.435-4.049-.37.344a8.465,8.465,0,0,1-5.187,2.064,5.212,5.212,0,0,1-5.372-4.419h13.31l.026-.37c0-.053.132-1.244.132-1.826,0-5.769-3.625-9.659-9.024-9.659m-4.234,7.674a4.189,4.189,0,0,1,4.234-3.123,3.326,3.326,0,0,1,3.228,3.123Z" transform="translate(-328.15 -102.241)" fill="#203232"/>
    </g>
    <g id="Group_519" data-name="Group 519" clip-path="url(#clip-path)">
      <path id="Path_1537" data-name="Path 1537" d="M528.495,109.435V89.879c0-2.011-.979-2.99-2.99-2.99h-5.028v4.922h1.932c.318,0,.423.106.423.423v3.546a7.548,7.548,0,0,0-5.239-1.72c-5.451,0-9.262,4.366-9.262,10.585,0,6.324,3.652,10.585,9.05,10.585a7.373,7.373,0,0,0,5.769-2.435c.106.873.688,1.985,2.779,1.985H530.8v-4.9h-1.879c-.318-.026-.423-.159-.423-.45m-10.029.873c-2.673,0-4.393-2.223-4.393-5.689,0-3.361,1.8-5.61,4.472-5.61,3.043,0,4.393,2.8,4.393,5.583,0,4.234-2.3,5.716-4.472,5.716" transform="translate(-414.205 -70.8)" fill="#203232"/>
    </g>
    <g id="Group_520" data-name="Group 520" clip-path="url(#clip-path)">
      <path id="Path_1538" data-name="Path 1538" d="M637.52,126.475a6.809,6.809,0,0,0-5.769,3.493v-.45c0-1.826-1.005-2.779-2.99-2.779h-4.816v4.922h1.932c.318,0,.423.106.423.423v14.9h5.61v-8.1a11.421,11.421,0,0,1,.4-3.043,5.031,5.031,0,0,1,4.9-3.784,7.5,7.5,0,0,1,1.111.079l.476.079v-5.583l-.344-.053a3.285,3.285,0,0,0-.926-.106" transform="translate(-508.412 -103.056)" fill="#203232"/>
    </g>
    <g id="Group_521" data-name="Group 521" clip-path="url(#clip-path)">
      <path id="Path_1539" data-name="Path 1539" d="M714.205,142.972V131.038c0-2.011-.979-2.99-2.964-2.99H706.69v4.922h1.455c.318,0,.423.106.423.423v11.881c0,2.038.953,2.99,2.964,2.99h5.028v-4.9h-1.932c-.291.026-.423-.106-.423-.4" transform="translate(-575.835 -104.337)" fill="#203232"/>
    </g>
    <g id="Group_522" data-name="Group 522" clip-path="url(#clip-path)">
      <path id="Path_1540" data-name="Path 1540" d="M770.685,128.047h-2.99a2.99,2.99,0,0,0-3.255,2.09l-3.652,10.214c-.132.37-.238.794-.344,1.217-.106-.4-.238-.847-.37-1.217l-3.652-10.214c-.556-1.508-1.455-2.09-3.255-2.09h-3.175v4.922h.82c.45,0,.582.159.688.423l5.663,14.9h6.324l5.663-14.9c.106-.265.238-.423.688-.423h.873v-4.922Z" transform="translate(-611.119 -104.337)" fill="#203232"/>
    </g>
    <g id="Group_523" data-name="Group 523" clip-path="url(#clip-path)">
      <path id="Path_1541" data-name="Path 1541" d="M868.87,125.475c-6.06,0-10.267,4.366-10.267,10.585,0,6.139,4.551,10.585,10.849,10.585a12.27,12.27,0,0,0,8.1-3.043l.238-.212-2.435-4.049-.37.344a8.442,8.442,0,0,1-5.16,2.064,5.212,5.212,0,0,1-5.372-4.419h13.31l.026-.37c0-.053.106-1.244.106-1.826,0-5.769-3.625-9.659-9.024-9.659m-4.234,7.674a4.189,4.189,0,0,1,4.234-3.123,3.326,3.326,0,0,1,3.228,3.123Z" transform="translate(-699.619 -102.241)" fill="#203232"/>
    </g>
    <g id="Group_524" data-name="Group 524" clip-path="url(#clip-path)">
      <rect id="Rectangle_4714" data-name="Rectangle 4714" width="5.001" height="5.266" transform="translate(45.144 16.062)" fill="#203232"/>
    </g>
    <g id="Group_525" data-name="Group 525" clip-path="url(#clip-path)">
      <rect id="Rectangle_4716" data-name="Rectangle 4716" width="5.001" height="5.266" transform="translate(132.998 16.062)" fill="#203232"/>
    </g>
    <g id="Group_526" data-name="Group 526" clip-path="url(#clip-path)">
      <path id="Path_1542" data-name="Path 1542" d="M962.213,125.951h.741v2.011h.556v-2.011h.741v-.476h-2.038Z" transform="translate(-784.044 -102.241)" fill="#203232"/>
    </g>
    <g id="Group_527" data-name="Group 527" clip-path="url(#clip-path)">
      <path id="Path_1543" data-name="Path 1543" d="M976.694,125.475l-.556,1.72-.582-1.72h-.767v2.487h.5v-1.746h.026l.609,1.746h.423l.609-1.746v1.746h.5v-2.487Z" transform="translate(-794.292 -102.241)" fill="#203232"/>
    </g>
  </g>
</svg>
