<svg xmlns="http://www.w3.org/2000/svg" width="150" height="41.887" viewBox="0 0 150 41.887">
  <g id="Downer" transform="translate(-34.7 -28.7)">
    <rect id="Rectangle_4848" data-name="Rectangle 4848" width="10.86" height="19.608" transform="translate(173.84 39.458)" fill="#94d600"/>
    <rect id="Rectangle_4849" data-name="Rectangle 4849" width="17.828" height="10.86" transform="translate(156.089 28.7)" fill="#55c1e9"/>
    <rect id="Rectangle_4850" data-name="Rectangle 4850" width="10.86" height="10.86" transform="translate(173.84 28.7)"/>
    <g id="Group_785" data-name="Group 785" transform="translate(34.7 45.18)">
      <path id="Path_1783" data-name="Path 1783" d="M493.365,118.7v-3.891H486.6v19.278h6.765v-6c0-4.451,1.984-6.485,5.519-6.485h.56V114.48C496.239,114.353,494.459,116.057,493.365,118.7Z" transform="translate(-371.671 -109.14)"/>
      <path id="Path_1784" data-name="Path 1784" d="M43.932,93.5H34.7v24.924h9.1c8.622,0,13.657-5.341,13.657-12.538v-.051C57.437,98.637,52.477,93.5,43.932,93.5Zm6.689,12.513c0,4.018-2.645,6.307-6.612,6.307h-2.67V99.629h2.7c3.967,0,6.612,2.314,6.612,6.307v.076Z" transform="translate(-34.7 -93.5)"/>
      <path id="Path_1785" data-name="Path 1785" d="M138.38,114.2c-6.129,0-10.58,4.578-10.58,10.071v.076c0,5.468,4.4,9.995,10.5,9.995,6.129,0,10.58-4.578,10.58-10.071v-.076C148.909,118.727,144.484,114.2,138.38,114.2Zm3.993,10.148a4.019,4.019,0,0,1-3.993,4.273,4.163,4.163,0,0,1-4.069-4.349v-.076a4.019,4.019,0,0,1,3.993-4.273,4.163,4.163,0,0,1,4.069,4.349Z" transform="translate(-104.122 -108.936)"/>
      <path id="Path_1786" data-name="Path 1786" d="M248.972,114.1a7.142,7.142,0,0,0-5.773,3.128v-2.7H229.8L227.2,124.3l-3-9.842h-5.6l-2.95,9.766-2.518-9.69H206.5l5.875,19.4h5.8l3.2-10.02,3.128,10.02h5.849l4.222-13.759h1.857v13.606H243.2V123.357c0-2.111,1.221-3.23,2.848-3.23,1.6,0,2.7,1.144,2.7,3.23v10.427h6.765V121.2C255.534,116.821,253.067,114.1,248.972,114.1Z" transform="translate(-162.807 -108.861)"/>
      <path id="Path_1787" data-name="Path 1787" d="M414.115,114.1c-5.7,0-9.715,4.451-9.715,10.071v.076c0,5.977,4.273,10.02,10.326,10.02a10.13,10.13,0,0,0,8.367-3.917l-3.739-3.1a5.847,5.847,0,0,1-4.273,1.958,3.974,3.974,0,0,1-4.171-3.179H423.8c.025-.458.025-.966.025-1.4C423.83,118.983,420.778,114.1,414.115,114.1Zm-3.306,8.469c.356-2.111,1.577-3.484,3.357-3.484,1.857,0,3.1,1.348,3.357,3.484Z" transform="translate(-310.377 -108.861)"/>
    </g>
  </g>
</svg>
